%TF.GenerationSoftware,KiCad,Pcbnew,(6.0.0)*%
%TF.CreationDate,2022-09-29T10:08:53+01:00*%
%TF.ProjectId,truss_PCB,74727573-735f-4504-9342-2e6b69636164,rev?*%
%TF.SameCoordinates,Original*%
%TF.FileFunction,Soldermask,Bot*%
%TF.FilePolarity,Negative*%
%FSLAX46Y46*%
G04 Gerber Fmt 4.6, Leading zero omitted, Abs format (unit mm)*
G04 Created by KiCad (PCBNEW (6.0.0)) date 2022-09-29 10:08:53*
%MOMM*%
%LPD*%
G01*
G04 APERTURE LIST*
G04 Aperture macros list*
%AMRoundRect*
0 Rectangle with rounded corners*
0 $1 Rounding radius*
0 $2 $3 $4 $5 $6 $7 $8 $9 X,Y pos of 4 corners*
0 Add a 4 corners polygon primitive as box body*
4,1,4,$2,$3,$4,$5,$6,$7,$8,$9,$2,$3,0*
0 Add four circle primitives for the rounded corners*
1,1,$1+$1,$2,$3*
1,1,$1+$1,$4,$5*
1,1,$1+$1,$6,$7*
1,1,$1+$1,$8,$9*
0 Add four rect primitives between the rounded corners*
20,1,$1+$1,$2,$3,$4,$5,0*
20,1,$1+$1,$4,$5,$6,$7,0*
20,1,$1+$1,$6,$7,$8,$9,0*
20,1,$1+$1,$8,$9,$2,$3,0*%
%AMFreePoly0*
4,1,22,0.500000,-0.750000,0.000000,-0.750000,0.000000,-0.745033,-0.079941,-0.743568,-0.215256,-0.701293,-0.333266,-0.622738,-0.424486,-0.514219,-0.481581,-0.384460,-0.499164,-0.250000,-0.500000,-0.250000,-0.500000,0.250000,-0.499164,0.250000,-0.499963,0.256109,-0.478152,0.396186,-0.417904,0.524511,-0.324060,0.630769,-0.204165,0.706417,-0.067858,0.745374,0.000000,0.744959,0.000000,0.750000,
0.500000,0.750000,0.500000,-0.750000,0.500000,-0.750000,$1*%
%AMFreePoly1*
4,1,20,0.000000,0.744959,0.073905,0.744508,0.209726,0.703889,0.328688,0.626782,0.421226,0.519385,0.479903,0.390333,0.500000,0.250000,0.500000,-0.250000,0.499851,-0.262216,0.476331,-0.402017,0.414519,-0.529596,0.319384,-0.634700,0.198574,-0.708877,0.061801,-0.746166,0.000000,-0.745033,0.000000,-0.750000,-0.500000,-0.750000,-0.500000,0.750000,0.000000,0.750000,0.000000,0.744959,
0.000000,0.744959,$1*%
%AMFreePoly2*
4,1,22,0.550000,-0.750000,0.000000,-0.750000,0.000000,-0.745033,-0.079941,-0.743568,-0.215256,-0.701293,-0.333266,-0.622738,-0.424486,-0.514219,-0.481581,-0.384460,-0.499164,-0.250000,-0.500000,-0.250000,-0.500000,0.250000,-0.499164,0.250000,-0.499963,0.256109,-0.478152,0.396186,-0.417904,0.524511,-0.324060,0.630769,-0.204165,0.706417,-0.067858,0.745374,0.000000,0.744959,0.000000,0.750000,
0.550000,0.750000,0.550000,-0.750000,0.550000,-0.750000,$1*%
%AMFreePoly3*
4,1,20,0.000000,0.744959,0.073905,0.744508,0.209726,0.703889,0.328688,0.626782,0.421226,0.519385,0.479903,0.390333,0.500000,0.250000,0.500000,-0.250000,0.499851,-0.262216,0.476331,-0.402017,0.414519,-0.529596,0.319384,-0.634700,0.198574,-0.708877,0.061801,-0.746166,0.000000,-0.745033,0.000000,-0.750000,-0.550000,-0.750000,-0.550000,0.750000,0.000000,0.750000,0.000000,0.744959,
0.000000,0.744959,$1*%
G04 Aperture macros list end*
%ADD10R,1.700000X1.700000*%
%ADD11C,6.400000*%
%ADD12C,0.800000*%
%ADD13R,1.000000X1.000000*%
%ADD14O,1.000000X1.000000*%
%ADD15RoundRect,0.250000X-0.845000X0.620000X-0.845000X-0.620000X0.845000X-0.620000X0.845000X0.620000X0*%
%ADD16O,2.190000X1.740000*%
%ADD17O,1.700000X1.700000*%
%ADD18C,4.000000*%
%ADD19R,1.600000X1.600000*%
%ADD20C,1.600000*%
%ADD21O,1.600000X1.600000*%
%ADD22C,3.716000*%
%ADD23R,3.716000X3.716000*%
%ADD24O,2.400000X1.200000*%
%ADD25R,2.000000X1.905000*%
%ADD26O,2.000000X1.905000*%
%ADD27C,3.000000*%
%ADD28FreePoly0,90.000000*%
%ADD29FreePoly1,90.000000*%
%ADD30RoundRect,0.146375X0.436625X0.146375X-0.436625X0.146375X-0.436625X-0.146375X0.436625X-0.146375X0*%
%ADD31FreePoly0,180.000000*%
%ADD32FreePoly1,180.000000*%
%ADD33FreePoly2,270.000000*%
%ADD34R,1.500000X1.000000*%
%ADD35FreePoly3,270.000000*%
%ADD36FreePoly0,270.000000*%
%ADD37FreePoly1,270.000000*%
%ADD38FreePoly0,0.000000*%
%ADD39FreePoly1,0.000000*%
G04 APERTURE END LIST*
D10*
%TO.C,J18*%
X140970000Y-70485000D03*
%TD*%
D11*
%TO.C,H4*%
X211455000Y-136525000D03*
D12*
X213855000Y-136525000D03*
X213152056Y-134827944D03*
X209757944Y-134827944D03*
X213152056Y-138222056D03*
X211455000Y-138925000D03*
X209055000Y-136525000D03*
X211455000Y-134125000D03*
X209757944Y-138222056D03*
%TD*%
D13*
%TO.C,J6*%
X175895000Y-57785000D03*
D14*
X175895000Y-59055000D03*
%TD*%
D15*
%TO.C,J2*%
X211455000Y-123190000D03*
D16*
X211455000Y-125730000D03*
%TD*%
D11*
%TO.C,H2*%
X211455000Y-43815000D03*
D12*
X213152056Y-45512056D03*
X211455000Y-46215000D03*
X213152056Y-42117944D03*
X213855000Y-43815000D03*
X209757944Y-42117944D03*
X209757944Y-45512056D03*
X209055000Y-43815000D03*
X211455000Y-41415000D03*
%TD*%
D13*
%TO.C,J8*%
X175895000Y-87630000D03*
D14*
X175895000Y-88900000D03*
%TD*%
D10*
%TO.C,J13*%
X114300000Y-137160000D03*
D17*
X116840000Y-137160000D03*
X119380000Y-137160000D03*
X121920000Y-137160000D03*
X124460000Y-137160000D03*
X127000000Y-137160000D03*
X129540000Y-137160000D03*
X132080000Y-137160000D03*
%TD*%
D13*
%TO.C,J5*%
X175895000Y-43815000D03*
D14*
X175895000Y-45085000D03*
%TD*%
D13*
%TO.C,J9*%
X175895000Y-102235000D03*
D14*
X175895000Y-103505000D03*
%TD*%
D10*
%TO.C,J19*%
X140970000Y-81915000D03*
%TD*%
D18*
%TO.C,J4*%
X208430000Y-115570000D03*
X208430000Y-52070000D03*
D19*
X207010000Y-58890000D03*
D20*
X207010000Y-61660000D03*
X207010000Y-64430000D03*
X207010000Y-67200000D03*
X207010000Y-69970000D03*
X207010000Y-72740000D03*
X207010000Y-75510000D03*
X207010000Y-78280000D03*
X207010000Y-81050000D03*
X207010000Y-83820000D03*
X207010000Y-86590000D03*
X207010000Y-89360000D03*
X207010000Y-92130000D03*
X207010000Y-94900000D03*
X207010000Y-97670000D03*
X207010000Y-100440000D03*
X207010000Y-103210000D03*
X207010000Y-105980000D03*
X207010000Y-108750000D03*
X209850000Y-60275000D03*
X209850000Y-63045000D03*
X209850000Y-65815000D03*
X209850000Y-68585000D03*
X209850000Y-71355000D03*
X209850000Y-74125000D03*
X209850000Y-76895000D03*
X209850000Y-79665000D03*
X209850000Y-82435000D03*
X209850000Y-85205000D03*
X209850000Y-87975000D03*
X209850000Y-90745000D03*
X209850000Y-93515000D03*
X209850000Y-96285000D03*
X209850000Y-99055000D03*
X209850000Y-101825000D03*
X209850000Y-104595000D03*
X209850000Y-107365000D03*
%TD*%
D10*
%TO.C,J16*%
X127635000Y-99695000D03*
D17*
X130175000Y-99695000D03*
X132715000Y-99695000D03*
%TD*%
D13*
%TO.C,J7*%
X175895000Y-72390000D03*
D14*
X175895000Y-73660000D03*
%TD*%
D13*
%TO.C,J10*%
X175895000Y-115570000D03*
D14*
X175895000Y-116840000D03*
%TD*%
D10*
%TO.C,J14*%
X154305000Y-128270000D03*
D17*
X154305000Y-130810000D03*
X154305000Y-133350000D03*
X154305000Y-135890000D03*
X154305000Y-138430000D03*
%TD*%
D19*
%TO.C,A1*%
X142240000Y-113030000D03*
D21*
X139700000Y-113030000D03*
X137160000Y-113030000D03*
X134620000Y-113030000D03*
X132080000Y-113030000D03*
X129540000Y-113030000D03*
X127000000Y-113030000D03*
X124460000Y-113030000D03*
X121920000Y-113030000D03*
X119380000Y-113030000D03*
X116840000Y-113030000D03*
X114300000Y-113030000D03*
X111760000Y-113030000D03*
X109220000Y-113030000D03*
X106680000Y-113030000D03*
X106680000Y-128270000D03*
X109220000Y-128270000D03*
X111760000Y-128270000D03*
X114300000Y-128270000D03*
X116840000Y-128270000D03*
X119380000Y-128270000D03*
X121920000Y-128270000D03*
X124460000Y-128270000D03*
X127000000Y-128270000D03*
X129540000Y-128270000D03*
X132080000Y-128270000D03*
X134620000Y-128270000D03*
X137160000Y-128270000D03*
X139700000Y-128270000D03*
X142240000Y-128270000D03*
%TD*%
D10*
%TO.C,J12*%
X139700000Y-137160000D03*
D17*
X142240000Y-137160000D03*
X144780000Y-137160000D03*
X147320000Y-137160000D03*
X149860000Y-137160000D03*
%TD*%
D11*
%TO.C,H1*%
X107315000Y-43815000D03*
D12*
X105617944Y-42117944D03*
X107315000Y-41415000D03*
X107315000Y-46215000D03*
X109012056Y-42117944D03*
X105617944Y-45512056D03*
X104915000Y-43815000D03*
X109012056Y-45512056D03*
X109715000Y-43815000D03*
%TD*%
D22*
%TO.C,J1*%
X111410000Y-62020000D03*
D23*
X111410000Y-54820000D03*
D24*
X105410000Y-51670000D03*
X105410000Y-65170000D03*
%TD*%
D10*
%TO.C,J20*%
X140970000Y-78105000D03*
%TD*%
%TO.C,J15*%
X167005000Y-138425000D03*
D17*
X167005000Y-135885000D03*
X167005000Y-133345000D03*
X167005000Y-130805000D03*
X167005000Y-128265000D03*
%TD*%
D13*
%TO.C,J11*%
X180975000Y-128905000D03*
D14*
X180975000Y-130175000D03*
%TD*%
D10*
%TO.C,J17*%
X132715000Y-95885000D03*
D17*
X130175000Y-95885000D03*
X127635000Y-95885000D03*
%TD*%
D12*
%TO.C,H3*%
X105617944Y-138222056D03*
X109012056Y-134827944D03*
X107315000Y-134125000D03*
X109012056Y-138222056D03*
D11*
X107315000Y-136525000D03*
D12*
X109715000Y-136525000D03*
X107315000Y-138925000D03*
X105617944Y-134827944D03*
X104915000Y-136525000D03*
%TD*%
D25*
%TO.C,Q8*%
X124460000Y-53340000D03*
D26*
X124460000Y-55880000D03*
X124460000Y-58420000D03*
%TD*%
D10*
%TO.C,J3*%
X208280000Y-130175000D03*
D17*
X210820000Y-130175000D03*
X213360000Y-130175000D03*
%TD*%
D10*
%TO.C,J21*%
X140970000Y-85725000D03*
%TD*%
%TO.C,J22*%
X140970000Y-74295000D03*
%TD*%
D27*
%TO.C,F1*%
X115570000Y-44450000D03*
X138170000Y-44450000D03*
%TD*%
D28*
%TO.C,JP14*%
X182880000Y-107345000D03*
D29*
X182880000Y-106045000D03*
%TD*%
D28*
%TO.C,JP8*%
X182880000Y-78120000D03*
D29*
X182880000Y-76820000D03*
%TD*%
D30*
%TO.C,JP15*%
X180949000Y-101981000D03*
X180949000Y-102870000D03*
X180949000Y-103759000D03*
%TD*%
D28*
%TO.C,JP21*%
X187960000Y-135890000D03*
D29*
X187960000Y-134590000D03*
%TD*%
D31*
%TO.C,JP10*%
X182260000Y-80645000D03*
D32*
X180960000Y-80645000D03*
%TD*%
D28*
%TO.C,JP11*%
X182880000Y-92710000D03*
D29*
X182880000Y-91410000D03*
%TD*%
D31*
%TO.C,JP7*%
X182985000Y-66040000D03*
D32*
X181685000Y-66040000D03*
%TD*%
D31*
%TO.C,JP16*%
X182245000Y-109855000D03*
D32*
X180945000Y-109855000D03*
%TD*%
D31*
%TO.C,JP13*%
X182260000Y-95250000D03*
D32*
X180960000Y-95250000D03*
%TD*%
D31*
%TO.C,JP25*%
X187340000Y-138430000D03*
D32*
X186040000Y-138430000D03*
%TD*%
D30*
%TO.C,JP6*%
X181050000Y-58166000D03*
X181050000Y-59055000D03*
X181050000Y-59944000D03*
%TD*%
%TO.C,JP12*%
X180975000Y-87376000D03*
X180975000Y-88265000D03*
X180975000Y-89154000D03*
%TD*%
D31*
%TO.C,JP4*%
X182895000Y-52070000D03*
D32*
X181595000Y-52070000D03*
%TD*%
D33*
%TO.C,JP20*%
X198120000Y-135860000D03*
D34*
X198120000Y-137160000D03*
D35*
X198120000Y-138460000D03*
%TD*%
D30*
%TO.C,JP18*%
X180949000Y-115951000D03*
X180949000Y-116840000D03*
X180949000Y-117729000D03*
%TD*%
D28*
%TO.C,JP17*%
X182880000Y-121315000D03*
D29*
X182880000Y-120015000D03*
%TD*%
D28*
%TO.C,JP5*%
X182880000Y-63500000D03*
D29*
X182880000Y-62200000D03*
%TD*%
D31*
%TO.C,JP19*%
X182260000Y-123825000D03*
D32*
X180960000Y-123825000D03*
%TD*%
D30*
%TO.C,JP24*%
X186690000Y-128397000D03*
X186690000Y-129286000D03*
X186690000Y-130175000D03*
%TD*%
D36*
%TO.C,JP2*%
X182880000Y-48260000D03*
D37*
X182880000Y-49560000D03*
%TD*%
D32*
%TO.C,JP22*%
X186660000Y-132080000D03*
D31*
X187960000Y-132080000D03*
%TD*%
D30*
%TO.C,JP3*%
X181584000Y-43561000D03*
X181584000Y-44450000D03*
X181584000Y-45339000D03*
%TD*%
D38*
%TO.C,JP23*%
X190470000Y-136525000D03*
D39*
X191770000Y-136525000D03*
%TD*%
D30*
%TO.C,JP9*%
X180975000Y-72771000D03*
X180975000Y-73660000D03*
X180975000Y-74549000D03*
%TD*%
M02*
