%TF.GenerationSoftware,KiCad,Pcbnew,(6.0.0)*%
%TF.CreationDate,2022-09-29T10:08:53+01:00*%
%TF.ProjectId,truss_PCB,74727573-735f-4504-9342-2e6b69636164,rev?*%
%TF.SameCoordinates,Original*%
%TF.FileFunction,Paste,Top*%
%TF.FilePolarity,Positive*%
%FSLAX46Y46*%
G04 Gerber Fmt 4.6, Leading zero omitted, Abs format (unit mm)*
G04 Created by KiCad (PCBNEW (6.0.0)) date 2022-09-29 10:08:53*
%MOMM*%
%LPD*%
G01*
G04 APERTURE LIST*
G04 Aperture macros list*
%AMRoundRect*
0 Rectangle with rounded corners*
0 $1 Rounding radius*
0 $2 $3 $4 $5 $6 $7 $8 $9 X,Y pos of 4 corners*
0 Add a 4 corners polygon primitive as box body*
4,1,4,$2,$3,$4,$5,$6,$7,$8,$9,$2,$3,0*
0 Add four circle primitives for the rounded corners*
1,1,$1+$1,$2,$3*
1,1,$1+$1,$4,$5*
1,1,$1+$1,$6,$7*
1,1,$1+$1,$8,$9*
0 Add four rect primitives between the rounded corners*
20,1,$1+$1,$2,$3,$4,$5,0*
20,1,$1+$1,$4,$5,$6,$7,0*
20,1,$1+$1,$6,$7,$8,$9,0*
20,1,$1+$1,$8,$9,$2,$3,0*%
G04 Aperture macros list end*
%ADD10RoundRect,0.150000X0.650000X0.150000X-0.650000X0.150000X-0.650000X-0.150000X0.650000X-0.150000X0*%
%ADD11RoundRect,0.100000X-0.637500X-0.100000X0.637500X-0.100000X0.637500X0.100000X-0.637500X0.100000X0*%
%ADD12RoundRect,0.100000X-0.100000X0.637500X-0.100000X-0.637500X0.100000X-0.637500X0.100000X0.637500X0*%
%ADD13RoundRect,0.150000X-0.587500X-0.150000X0.587500X-0.150000X0.587500X0.150000X-0.587500X0.150000X0*%
%ADD14RoundRect,0.250000X0.550000X-1.500000X0.550000X1.500000X-0.550000X1.500000X-0.550000X-1.500000X0*%
%ADD15RoundRect,0.250000X-0.350000X-0.450000X0.350000X-0.450000X0.350000X0.450000X-0.350000X0.450000X0*%
%ADD16RoundRect,0.250000X-0.450000X0.325000X-0.450000X-0.325000X0.450000X-0.325000X0.450000X0.325000X0*%
%ADD17RoundRect,0.250000X0.475000X-0.337500X0.475000X0.337500X-0.475000X0.337500X-0.475000X-0.337500X0*%
%ADD18RoundRect,0.250000X-1.500000X-0.550000X1.500000X-0.550000X1.500000X0.550000X-1.500000X0.550000X0*%
%ADD19RoundRect,0.250000X0.350000X0.450000X-0.350000X0.450000X-0.350000X-0.450000X0.350000X-0.450000X0*%
%ADD20R,1.700000X1.300000*%
%ADD21R,3.050000X2.750000*%
%ADD22R,2.200000X1.200000*%
%ADD23RoundRect,0.250000X1.500000X0.550000X-1.500000X0.550000X-1.500000X-0.550000X1.500000X-0.550000X0*%
%ADD24RoundRect,0.250000X0.337500X0.475000X-0.337500X0.475000X-0.337500X-0.475000X0.337500X-0.475000X0*%
%ADD25RoundRect,0.250000X-0.450000X0.350000X-0.450000X-0.350000X0.450000X-0.350000X0.450000X0.350000X0*%
%ADD26RoundRect,0.250000X0.325000X0.450000X-0.325000X0.450000X-0.325000X-0.450000X0.325000X-0.450000X0*%
%ADD27RoundRect,0.250000X-1.000000X1.750000X-1.000000X-1.750000X1.000000X-1.750000X1.000000X1.750000X0*%
%ADD28R,2.000000X1.500000*%
%ADD29R,2.000000X3.800000*%
%ADD30RoundRect,0.250000X1.750000X1.000000X-1.750000X1.000000X-1.750000X-1.000000X1.750000X-1.000000X0*%
%ADD31RoundRect,0.250000X-0.475000X0.337500X-0.475000X-0.337500X0.475000X-0.337500X0.475000X0.337500X0*%
%ADD32R,4.550000X5.250000*%
%ADD33R,4.600000X1.100000*%
%ADD34R,2.500000X1.800000*%
%ADD35R,2.900000X5.400000*%
G04 APERTURE END LIST*
D10*
%TO.C,U2*%
X185570000Y-67310000D03*
X185570000Y-66040000D03*
X185570000Y-64770000D03*
X185570000Y-63500000D03*
X185570000Y-62230000D03*
X185570000Y-60960000D03*
X185570000Y-59690000D03*
X185570000Y-58420000D03*
X179070000Y-58420000D03*
X179070000Y-59690000D03*
X179070000Y-60960000D03*
X179070000Y-62230000D03*
X179070000Y-63500000D03*
X179070000Y-64770000D03*
X179070000Y-66040000D03*
X179070000Y-67310000D03*
%TD*%
%TO.C,U7*%
X190575000Y-139065000D03*
X190575000Y-137795000D03*
X190575000Y-136525000D03*
X190575000Y-135255000D03*
X190575000Y-133985000D03*
X190575000Y-132715000D03*
X190575000Y-131445000D03*
X190575000Y-130175000D03*
X184075000Y-130175000D03*
X184075000Y-131445000D03*
X184075000Y-132715000D03*
X184075000Y-133985000D03*
X184075000Y-135255000D03*
X184075000Y-136525000D03*
X184075000Y-137795000D03*
X184075000Y-139065000D03*
%TD*%
%TO.C,U5*%
X185495000Y-111125000D03*
X185495000Y-109855000D03*
X185495000Y-108585000D03*
X185495000Y-107315000D03*
X185495000Y-106045000D03*
X185495000Y-104775000D03*
X185495000Y-103505000D03*
X185495000Y-102235000D03*
X178995000Y-102235000D03*
X178995000Y-103505000D03*
X178995000Y-104775000D03*
X178995000Y-106045000D03*
X178995000Y-107315000D03*
X178995000Y-108585000D03*
X178995000Y-109855000D03*
X178995000Y-111125000D03*
%TD*%
%TO.C,U4*%
X185495000Y-96520000D03*
X185495000Y-95250000D03*
X185495000Y-93980000D03*
X185495000Y-92710000D03*
X185495000Y-91440000D03*
X185495000Y-90170000D03*
X185495000Y-88900000D03*
X185495000Y-87630000D03*
X178995000Y-87630000D03*
X178995000Y-88900000D03*
X178995000Y-90170000D03*
X178995000Y-91440000D03*
X178995000Y-92710000D03*
X178995000Y-93980000D03*
X178995000Y-95250000D03*
X178995000Y-96520000D03*
%TD*%
%TO.C,U6*%
X185495000Y-125095000D03*
X185495000Y-123825000D03*
X185495000Y-122555000D03*
X185495000Y-121285000D03*
X185495000Y-120015000D03*
X185495000Y-118745000D03*
X185495000Y-117475000D03*
X185495000Y-116205000D03*
X178995000Y-116205000D03*
X178995000Y-117475000D03*
X178995000Y-118745000D03*
X178995000Y-120015000D03*
X178995000Y-121285000D03*
X178995000Y-122555000D03*
X178995000Y-123825000D03*
X178995000Y-125095000D03*
%TD*%
%TO.C,U3*%
X185495000Y-81915000D03*
X185495000Y-80645000D03*
X185495000Y-79375000D03*
X185495000Y-78105000D03*
X185495000Y-76835000D03*
X185495000Y-75565000D03*
X185495000Y-74295000D03*
X185495000Y-73025000D03*
X178995000Y-73025000D03*
X178995000Y-74295000D03*
X178995000Y-75565000D03*
X178995000Y-76835000D03*
X178995000Y-78105000D03*
X178995000Y-79375000D03*
X178995000Y-80645000D03*
X178995000Y-81915000D03*
%TD*%
%TO.C,U1*%
X185495000Y-52705000D03*
X185495000Y-51435000D03*
X185495000Y-50165000D03*
X185495000Y-48895000D03*
X185495000Y-47625000D03*
X185495000Y-46355000D03*
X185495000Y-45085000D03*
X185495000Y-43815000D03*
X178995000Y-43815000D03*
X178995000Y-45085000D03*
X178995000Y-46355000D03*
X178995000Y-47625000D03*
X178995000Y-48895000D03*
X178995000Y-50165000D03*
X178995000Y-51435000D03*
X178995000Y-52705000D03*
%TD*%
D11*
%TO.C,U8*%
X157792500Y-132965000D03*
X157792500Y-133615000D03*
X157792500Y-134265000D03*
X157792500Y-134915000D03*
X157792500Y-135565000D03*
X157792500Y-136215000D03*
X157792500Y-136865000D03*
X157792500Y-137515000D03*
X157792500Y-138165000D03*
X157792500Y-138815000D03*
X163517500Y-138815000D03*
X163517500Y-138165000D03*
X163517500Y-137515000D03*
X163517500Y-136865000D03*
X163517500Y-136215000D03*
X163517500Y-135565000D03*
X163517500Y-134915000D03*
X163517500Y-134265000D03*
X163517500Y-133615000D03*
X163517500Y-132965000D03*
%TD*%
D12*
%TO.C,U9*%
X156595000Y-95562500D03*
X155945000Y-95562500D03*
X155295000Y-95562500D03*
X154645000Y-95562500D03*
X153995000Y-95562500D03*
X153345000Y-95562500D03*
X152695000Y-95562500D03*
X152045000Y-95562500D03*
X151395000Y-95562500D03*
X150745000Y-95562500D03*
X150745000Y-101287500D03*
X151395000Y-101287500D03*
X152045000Y-101287500D03*
X152695000Y-101287500D03*
X153345000Y-101287500D03*
X153995000Y-101287500D03*
X154645000Y-101287500D03*
X155295000Y-101287500D03*
X155945000Y-101287500D03*
X156595000Y-101287500D03*
%TD*%
D13*
%TO.C,Q3*%
X188292500Y-80330000D03*
X188292500Y-82230000D03*
X190167500Y-81280000D03*
%TD*%
D14*
%TO.C,EC9*%
X196850000Y-110490000D03*
X196850000Y-104890000D03*
%TD*%
D15*
%TO.C,R51*%
X148860000Y-133985000D03*
X150860000Y-133985000D03*
%TD*%
D16*
%TO.C,D9*%
X121285000Y-131690000D03*
X121285000Y-133740000D03*
%TD*%
D17*
%TO.C,C5*%
X188595000Y-57785000D03*
X188595000Y-55710000D03*
%TD*%
D18*
%TO.C,EC21*%
X126365000Y-105410000D03*
X131965000Y-105410000D03*
%TD*%
D14*
%TO.C,EC12*%
X170180000Y-120535000D03*
X170180000Y-114935000D03*
%TD*%
D19*
%TO.C,RFB2*%
X123825000Y-86360000D03*
X121825000Y-86360000D03*
%TD*%
D14*
%TO.C,EC5*%
X196215000Y-81280000D03*
X196215000Y-75680000D03*
%TD*%
D20*
%TO.C,D2*%
X118110000Y-59690000D03*
X118110000Y-56190000D03*
%TD*%
D21*
%TO.C,IC1*%
X149650000Y-49910000D03*
X149650000Y-52960000D03*
X153000000Y-52960000D03*
X153000000Y-49910000D03*
D22*
X145025000Y-49155000D03*
X145025000Y-53715000D03*
%TD*%
D14*
%TO.C,EC3*%
X196215000Y-66560000D03*
X196215000Y-60960000D03*
%TD*%
%TO.C,EC11*%
X196850000Y-123450000D03*
X196850000Y-117850000D03*
%TD*%
D13*
%TO.C,Q2*%
X188292500Y-65090000D03*
X188292500Y-66990000D03*
X190167500Y-66040000D03*
%TD*%
D14*
%TO.C,EC4*%
X170180000Y-62490000D03*
X170180000Y-56890000D03*
%TD*%
D15*
%TO.C,R15*%
X191135000Y-70485000D03*
X193135000Y-70485000D03*
%TD*%
D19*
%TO.C,R41*%
X148320000Y-70485000D03*
X146320000Y-70485000D03*
%TD*%
D23*
%TO.C,EC19*%
X110490000Y-106940000D03*
X104890000Y-106940000D03*
%TD*%
D17*
%TO.C,C17*%
X187960000Y-116205000D03*
X187960000Y-114130000D03*
%TD*%
D24*
%TO.C,C21*%
X180742500Y-137795000D03*
X178667500Y-137795000D03*
%TD*%
D19*
%TO.C,R18*%
X190595000Y-90170000D03*
X188595000Y-90170000D03*
%TD*%
D14*
%TO.C,EC10*%
X170180000Y-106305000D03*
X170180000Y-100705000D03*
%TD*%
D19*
%TO.C,R1*%
X205105000Y-121285000D03*
X203105000Y-121285000D03*
%TD*%
D25*
%TO.C,R11*%
X175895000Y-62230000D03*
X175895000Y-64230000D03*
%TD*%
D17*
%TO.C,C26*%
X159385000Y-99695000D03*
X159385000Y-97620000D03*
%TD*%
D24*
%TO.C,C4*%
X182880000Y-55880000D03*
X180805000Y-55880000D03*
%TD*%
D19*
%TO.C,R43*%
X148050000Y-78105000D03*
X146050000Y-78105000D03*
%TD*%
D18*
%TO.C,EC17*%
X145840000Y-44070000D03*
X151440000Y-44070000D03*
%TD*%
D24*
%TO.C,C10*%
X182415000Y-85090000D03*
X180340000Y-85090000D03*
%TD*%
D26*
%TO.C,D3*%
X152155000Y-85725000D03*
X150105000Y-85725000D03*
%TD*%
D25*
%TO.C,R21*%
X175895000Y-91710000D03*
X175895000Y-93710000D03*
%TD*%
D19*
%TO.C,R13*%
X190500000Y-75565000D03*
X188500000Y-75565000D03*
%TD*%
D15*
%TO.C,R30*%
X190405000Y-113665000D03*
X192405000Y-113665000D03*
%TD*%
D27*
%TO.C,EC28*%
X134620000Y-56770000D03*
X134620000Y-64770000D03*
%TD*%
D25*
%TO.C,R37*%
X141605000Y-131445000D03*
X141605000Y-133445000D03*
%TD*%
D15*
%TO.C,R49*%
X148863266Y-128905000D03*
X150863266Y-128905000D03*
%TD*%
D13*
%TO.C,Q4*%
X188774667Y-94855019D03*
X188774667Y-96755019D03*
X190649667Y-95805019D03*
%TD*%
D15*
%TO.C,R29*%
X190405000Y-115570000D03*
X192405000Y-115570000D03*
%TD*%
%TO.C,R19*%
X191135000Y-87630000D03*
X193135000Y-87630000D03*
%TD*%
%TO.C,R24*%
X191675000Y-102235000D03*
X193675000Y-102235000D03*
%TD*%
D14*
%TO.C,EC13*%
X201930000Y-137795000D03*
X201930000Y-132195000D03*
%TD*%
D24*
%TO.C,C19*%
X187495000Y-127635000D03*
X185420000Y-127635000D03*
%TD*%
D15*
%TO.C,R47*%
X148854239Y-123825000D03*
X150854239Y-123825000D03*
%TD*%
D14*
%TO.C,EC7*%
X196215000Y-95770000D03*
X196215000Y-90170000D03*
%TD*%
D15*
%TO.C,R12*%
X188500000Y-78105000D03*
X190500000Y-78105000D03*
%TD*%
D14*
%TO.C,EC1*%
X196215000Y-52070000D03*
X196215000Y-46470000D03*
%TD*%
D15*
%TO.C,R9*%
X191770000Y-57785000D03*
X193770000Y-57785000D03*
%TD*%
D26*
%TO.C,D6*%
X152155000Y-74295000D03*
X150105000Y-74295000D03*
%TD*%
D24*
%TO.C,C9*%
X175895000Y-81280000D03*
X173820000Y-81280000D03*
%TD*%
D25*
%TO.C,R46*%
X127635000Y-122460000D03*
X127635000Y-124460000D03*
%TD*%
D19*
%TO.C,R3*%
X190595000Y-46355000D03*
X188595000Y-46355000D03*
%TD*%
D17*
%TO.C,C11*%
X188595000Y-87165000D03*
X188595000Y-85090000D03*
%TD*%
D15*
%TO.C,R35*%
X196215000Y-127635000D03*
X198215000Y-127635000D03*
%TD*%
D13*
%TO.C,Q1*%
X188625000Y-51120000D03*
X188625000Y-53020000D03*
X190500000Y-52070000D03*
%TD*%
D19*
%TO.C,R8*%
X190595000Y-60325000D03*
X188595000Y-60325000D03*
%TD*%
D23*
%TO.C,EC22*%
X110750000Y-98425000D03*
X105150000Y-98425000D03*
%TD*%
D26*
%TO.C,D7*%
X152155000Y-78105000D03*
X150105000Y-78105000D03*
%TD*%
D13*
%TO.C,Q6*%
X188927500Y-123510000D03*
X188927500Y-125410000D03*
X190802500Y-124460000D03*
%TD*%
D28*
%TO.C,U13*%
X114935000Y-104380000D03*
D29*
X121235000Y-106680000D03*
D28*
X114935000Y-106680000D03*
X114935000Y-108980000D03*
%TD*%
D18*
%TO.C,EC20*%
X145580000Y-59310000D03*
X151180000Y-59310000D03*
%TD*%
D19*
%TO.C,R28*%
X190595000Y-118745000D03*
X188595000Y-118745000D03*
%TD*%
D15*
%TO.C,R48*%
X148866364Y-126365000D03*
X150866364Y-126365000D03*
%TD*%
D19*
%TO.C,R23*%
X190500000Y-104775000D03*
X188500000Y-104775000D03*
%TD*%
D15*
%TO.C,R14*%
X191135000Y-73025000D03*
X193135000Y-73025000D03*
%TD*%
D17*
%TO.C,C8*%
X188595000Y-73427500D03*
X188595000Y-71352500D03*
%TD*%
D24*
%TO.C,C1*%
X182647500Y-41275000D03*
X180572500Y-41275000D03*
%TD*%
D15*
%TO.C,R22*%
X188500000Y-107315000D03*
X190500000Y-107315000D03*
%TD*%
D30*
%TO.C,EC15*%
X114045000Y-88900000D03*
X106045000Y-88900000D03*
%TD*%
D16*
%TO.C,D10*%
X124460000Y-131722992D03*
X124460000Y-133772992D03*
%TD*%
D24*
%TO.C,C15*%
X176530000Y-111125000D03*
X174455000Y-111125000D03*
%TD*%
D31*
%TO.C,Cff1*%
X118745000Y-83820000D03*
X118745000Y-85895000D03*
%TD*%
D15*
%TO.C,R25*%
X191675000Y-99695000D03*
X193675000Y-99695000D03*
%TD*%
D17*
%TO.C,C2*%
X189230000Y-43582500D03*
X189230000Y-41507500D03*
%TD*%
D15*
%TO.C,R2*%
X188595000Y-48895000D03*
X190595000Y-48895000D03*
%TD*%
%TO.C,R10*%
X191770000Y-55880000D03*
X193770000Y-55880000D03*
%TD*%
D17*
%TO.C,C23*%
X131445000Y-133752500D03*
X131445000Y-131677500D03*
%TD*%
D15*
%TO.C,R32*%
X193310000Y-135255000D03*
X195310000Y-135255000D03*
%TD*%
D24*
%TO.C,C6*%
X176065000Y-66675000D03*
X173990000Y-66675000D03*
%TD*%
D13*
%TO.C,Q5*%
X188673500Y-109159000D03*
X188673500Y-111059000D03*
X190548500Y-110109000D03*
%TD*%
D15*
%TO.C,R17*%
X188595000Y-92710000D03*
X190595000Y-92710000D03*
%TD*%
D32*
%TO.C,U11*%
X129540000Y-77705000D03*
X129540000Y-72155000D03*
X134390000Y-77705000D03*
X134390000Y-72155000D03*
D33*
X122815000Y-71530000D03*
X122815000Y-73230000D03*
X122815000Y-74930000D03*
X122815000Y-76630000D03*
X122815000Y-78330000D03*
%TD*%
D13*
%TO.C,Q7*%
X193372500Y-137480000D03*
X193372500Y-139380000D03*
X195247500Y-138430000D03*
%TD*%
D25*
%TO.C,R36*%
X181610000Y-133350000D03*
X181610000Y-135350000D03*
%TD*%
D17*
%TO.C,C14*%
X189230000Y-102002500D03*
X189230000Y-99927500D03*
%TD*%
D24*
%TO.C,C18*%
X176530000Y-125095000D03*
X174455000Y-125095000D03*
%TD*%
D16*
%TO.C,D1*%
X138430000Y-131445000D03*
X138430000Y-133495000D03*
%TD*%
D15*
%TO.C,R27*%
X188595000Y-121285000D03*
X190595000Y-121285000D03*
%TD*%
D25*
%TO.C,R6*%
X175895000Y-47625000D03*
X175895000Y-49625000D03*
%TD*%
D24*
%TO.C,C13*%
X182415000Y-99695000D03*
X180340000Y-99695000D03*
%TD*%
D26*
%TO.C,D5*%
X152155000Y-81915000D03*
X150105000Y-81915000D03*
%TD*%
D19*
%TO.C,R42*%
X147955000Y-74295000D03*
X145955000Y-74295000D03*
%TD*%
D25*
%TO.C,R45*%
X124460000Y-122460000D03*
X124460000Y-124460000D03*
%TD*%
D28*
%TO.C,U12*%
X123800000Y-99830000D03*
D29*
X117500000Y-97530000D03*
D28*
X123800000Y-97530000D03*
X123800000Y-95230000D03*
%TD*%
D15*
%TO.C,R7*%
X188595000Y-62865000D03*
X190595000Y-62865000D03*
%TD*%
%TO.C,R5*%
X191770000Y-41275000D03*
X193770000Y-41275000D03*
%TD*%
D26*
%TO.C,D8*%
X152294977Y-70522735D03*
X150244977Y-70522735D03*
%TD*%
D24*
%TO.C,C12*%
X176297500Y-96520000D03*
X174222500Y-96520000D03*
%TD*%
D17*
%TO.C,C20*%
X193040000Y-129710000D03*
X193040000Y-127635000D03*
%TD*%
D24*
%TO.C,C16*%
X182012500Y-114173000D03*
X179937500Y-114173000D03*
%TD*%
D14*
%TO.C,EC2*%
X170180000Y-47885000D03*
X170180000Y-42285000D03*
%TD*%
D25*
%TO.C,R44*%
X121285000Y-122460000D03*
X121285000Y-124460000D03*
%TD*%
D17*
%TO.C,C25*%
X158115000Y-130810000D03*
X158115000Y-128735000D03*
%TD*%
%TO.C,C27*%
X163195000Y-130810000D03*
X163195000Y-128735000D03*
%TD*%
D19*
%TO.C,R33*%
X195310000Y-132715000D03*
X193310000Y-132715000D03*
%TD*%
D15*
%TO.C,R34*%
X196215000Y-130175000D03*
X198215000Y-130175000D03*
%TD*%
D17*
%TO.C,C22*%
X116205000Y-133739018D03*
X116205000Y-131664018D03*
%TD*%
D14*
%TO.C,EC6*%
X170180000Y-77355000D03*
X170180000Y-71755000D03*
%TD*%
D16*
%TO.C,D11*%
X127635000Y-131722992D03*
X127635000Y-133772992D03*
%TD*%
D18*
%TO.C,EC18*%
X127115000Y-90170000D03*
X132715000Y-90170000D03*
%TD*%
D25*
%TO.C,R31*%
X175895000Y-120920000D03*
X175895000Y-122920000D03*
%TD*%
D14*
%TO.C,EC14*%
X175260000Y-135515000D03*
X175260000Y-129915000D03*
%TD*%
D17*
%TO.C,C24*%
X156210000Y-93345000D03*
X156210000Y-91270000D03*
%TD*%
D34*
%TO.C,D4*%
X120650000Y-66675000D03*
X116650000Y-66675000D03*
%TD*%
D35*
%TO.C,L1*%
X115440000Y-76200000D03*
X105540000Y-76200000D03*
%TD*%
D14*
%TO.C,EC8*%
X170180000Y-91700000D03*
X170180000Y-86100000D03*
%TD*%
D25*
%TO.C,R16*%
X175895000Y-76740000D03*
X175895000Y-78740000D03*
%TD*%
%TO.C,R26*%
X175895000Y-106680000D03*
X175895000Y-108680000D03*
%TD*%
D15*
%TO.C,R4*%
X191770000Y-43815000D03*
X193770000Y-43815000D03*
%TD*%
%TO.C,R50*%
X148860000Y-131445000D03*
X150860000Y-131445000D03*
%TD*%
D24*
%TO.C,C7*%
X183282500Y-70485000D03*
X181207500Y-70485000D03*
%TD*%
D15*
%TO.C,R38*%
X116840000Y-52070000D03*
X118840000Y-52070000D03*
%TD*%
%TO.C,RFB1*%
X121825000Y-82550000D03*
X123825000Y-82550000D03*
%TD*%
D24*
%TO.C,C3*%
X176530000Y-52070000D03*
X174455000Y-52070000D03*
%TD*%
D15*
%TO.C,R20*%
X191135000Y-85090000D03*
X193135000Y-85090000D03*
%TD*%
D19*
%TO.C,R39*%
X148145000Y-85725000D03*
X146145000Y-85725000D03*
%TD*%
%TO.C,R40*%
X148048711Y-81915000D03*
X146048711Y-81915000D03*
%TD*%
M02*
