M48
; DRILL file {KiCad (6.0.0)} date Thu Sep 29 10:08:57 2022
; FORMAT={-:-/ absolute / metric / decimal}
; #@! TF.CreationDate,2022-09-29T10:08:57+01:00
; #@! TF.GenerationSoftware,Kicad,Pcbnew,(6.0.0)
; #@! TF.FileFunction,Plated,1,2,PTH
FMAT,2
METRIC
; #@! TA.AperFunction,Plated,PTH,ViaDrill
T1C0.300
; #@! TA.AperFunction,Plated,PTH,ViaDrill
T2C0.350
; #@! TA.AperFunction,Plated,PTH,ViaDrill
T3C0.400
; #@! TA.AperFunction,Plated,PTH,ComponentDrill
T4C0.500
; #@! TA.AperFunction,Plated,PTH,ComponentDrill
T5C0.600
; #@! TA.AperFunction,Plated,PTH,ComponentDrill
T6C0.650
; #@! TA.AperFunction,Plated,PTH,ComponentDrill
T7C1.000
; #@! TA.AperFunction,Plated,PTH,ComponentDrill
T8C1.100
; #@! TA.AperFunction,Plated,PTH,ComponentDrill
T9C1.190
; #@! TA.AperFunction,Plated,PTH,ComponentDrill
T10C1.500
; #@! TA.AperFunction,Plated,PTH,ComponentDrill
T11C2.700
; #@! TA.AperFunction,Plated,PTH,ComponentDrill
T12C3.200
%
G90
G05
T1
X105.15Y-101.225
X105.15Y-103.765
X105.665Y-91.82
X105.665Y-93.725
X105.665Y-95.63
X107.185Y-104.645
X107.823Y-125.476
X109.855Y-123.825
X109.935Y-104.06
X112.475Y-104.06
X113.595Y-64.205
X113.703Y-59.727
X114.865Y-65.475
X114.935Y-111.125
X114.972Y-58.457
X115.57Y-53.34
X115.57Y-55.245
X115.57Y-57.15
X122.65Y-122.46
X123.507Y-80.328
X125.73Y-74.93
X126.365Y-78.74
X127.235Y-121.285
X128.213Y-101.657
X128.262Y-117.475
X128.908Y-118.099
X129.54Y-107.315
X129.54Y-118.745
X129.8Y-103.245
X130.175Y-119.38
X130.175Y-139.065
X131.965Y-92.19
X131.965Y-94.73
X131.965Y-97.905
X131.965Y-102.35
X132.718Y-117.472
X133.517Y-120.004
X134.109Y-117.599
X134.62Y-118.745
X134.848Y-120.015
X135.89Y-119.38
X137.795Y-114.606
X137.795Y-115.405
X137.795Y-116.205
X139.7Y-120.65
X139.7Y-123.825
X140.97Y-114.606
X140.97Y-115.405
X140.97Y-116.205
X140.97Y-120.65
X140.97Y-123.825
X142.24Y-120.65
X142.24Y-123.825
X145.034Y-103.759
X146.431Y-103.886
X148.844Y-99.822
X148.844Y-103.124
X148.854Y-125.095
X148.863Y-130.175
X148.866Y-127.635
X148.87Y-132.737
X149.218Y-104.775
X150.241Y-103.632
X150.368Y-99.441
X150.619Y-105.286
X151.13Y-65.405
X151.18Y-61.545
X151.18Y-63.5
X151.325Y-55.05
X151.325Y-56.955
X151.44Y-45.41
X151.44Y-47.315
X151.765Y-116.84
X151.889Y-105.286
X152.146Y-99.441
X152.155Y-67.555
X152.155Y-68.825
X152.155Y-72.0
X152.155Y-75.81
X152.155Y-80.255
X152.155Y-83.43
X153.035Y-103.505
X153.543Y-99.441
X153.67Y-102.616
X154.305Y-117.475
X154.686Y-99.441
X154.919Y-103.136
X154.94Y-105.41
X154.94Y-125.744
X155.956Y-99.441
X156.199Y-113.019
X156.845Y-104.14
X157.287Y-113.019
X157.353Y-101.981
X158.115Y-103.505
X158.496Y-68.707
X158.75Y-62.23
X159.131Y-101.473
X159.639Y-63.119
X159.639Y-65.405
X159.639Y-67.818
X160.02Y-116.84
X160.02Y-122.555
X160.655Y-96.52
X161.29Y-118.11
X161.544Y-101.219
X161.675Y-102.008
X162.56Y-116.84
X162.941Y-103.251
X163.83Y-118.11
X164.877Y-107.919
X165.735Y-100.33
X166.878Y-99.441
X167.64Y-124.46
X170.403Y-127.0
X170.434Y-109.728
X170.68Y-59.69
X170.815Y-80.01
X171.45Y-112.395
X171.935Y-116.107
X172.022Y-115.312
X172.085Y-111.76
X173.99Y-59.69
X173.99Y-112.395
X174.115Y-115.949
X174.118Y-115.063
X174.625Y-113.03
X174.644Y-107.919
X175.895Y-65.405
X177.165Y-76.835
X177.165Y-118.745
X177.8Y-127.0
X179.186Y-115.546
X179.581Y-86.484
X179.705Y-57.15
X179.954Y-101.351
X180.34Y-43.18
X180.34Y-50.8
X180.34Y-66.04
X180.34Y-71.755
X180.34Y-96.52
X180.34Y-104.775
X180.34Y-108.588
X180.34Y-118.745
X180.975Y-60.96
X180.975Y-75.565
X180.975Y-90.17
X180.975Y-121.92
X181.61Y-46.355
X181.61Y-79.375
X182.742Y-136.663
X182.88Y-79.375
X183.515Y-46.99
X184.15Y-64.77
X184.15Y-93.98
X184.15Y-109.22
X184.15Y-123.19
X185.42Y-129.54
X185.812Y-130.644
X188.595Y-137.16
X189.23Y-113.538
X189.23Y-133.35
X189.459Y-112.758
X199.39Y-127.635
X199.771Y-109.728
X199.898Y-108.331
X200.406Y-107.188
X200.66Y-111.163
X200.66Y-118.745
X200.66Y-127.0
X201.295Y-121.285
X203.061Y-98.952
X203.094Y-79.269
X203.642Y-99.502
X203.65Y-97.48
X203.835Y-86.995
X204.271Y-103.179
X204.412Y-104.01
X204.47Y-93.345
X204.47Y-109.22
X205.105Y-78.105
X207.645Y-126.365
X208.295Y-128.285
X210.82Y-105.664
T2
X107.95Y-111.125
X107.95Y-113.919
X127.0Y-107.315
X128.905Y-106.68
T3
X105.41Y-80.645
X114.327Y-126.781
X119.38Y-122.555
X120.65Y-115.951
X128.905Y-85.725
X130.682Y-108.034
X132.715Y-130.175
X134.62Y-86.36
X144.78Y-68.58
X144.78Y-72.39
X147.955Y-101.6
X148.59Y-80.01
X154.305Y-80.01
X157.48Y-127.635
X158.115Y-91.44
X159.385Y-95.25
X160.147Y-80.137
X161.925Y-138.43
X162.306Y-80.01
X163.195Y-127.0
X168.275Y-55.245
X168.275Y-113.119
X170.18Y-68.961
X172.085Y-77.47
X172.085Y-84.455
X172.085Y-91.44
X172.085Y-125.095
X172.085Y-127.635
X172.355Y-120.92
X172.46Y-106.305
X172.72Y-42.545
X172.72Y-82.55
X172.72Y-97.79
X172.72Y-102.87
X172.932Y-118.197
X173.355Y-47.625
X173.355Y-64.77
X173.355Y-94.615
X173.355Y-123.825
X173.355Y-128.27
X173.99Y-69.215
X173.99Y-109.855
X174.625Y-53.975
X174.625Y-91.44
X175.26Y-75.706
X177.165Y-47.625
X177.785Y-78.753
X177.785Y-107.963
X177.785Y-122.555
X177.8Y-67.31
X178.435Y-114.389
X178.435Y-135.89
X179.07Y-41.275
X179.07Y-85.09
X179.07Y-99.695
X179.705Y-70.485
X180.34Y-49.53
X180.34Y-64.135
X180.34Y-93.345
X181.61Y-57.15
X183.515Y-60.325
X186.055Y-136.525
X187.3Y-75.565
X187.3Y-104.775
X187.325Y-46.99
X187.325Y-90.17
X187.325Y-118.745
X187.96Y-129.54
X189.23Y-138.43
X189.865Y-76.835
X190.5Y-64.77
X190.5Y-91.469
X190.5Y-120.044
X191.77Y-48.895
X191.77Y-89.535
X191.77Y-106.045
X191.785Y-133.363
X192.405Y-46.99
X192.405Y-118.11
X192.405Y-138.43
X193.04Y-59.69
X193.04Y-75.565
X194.944Y-134.014
X195.58Y-43.815
X196.85Y-132.715
X198.12Y-88.265
X198.755Y-115.57
X199.9Y-103.24
X200.025Y-130.81
X200.025Y-137.795
X200.774Y-135.89
X203.2Y-73.66
X203.835Y-66.675
X205.105Y-136.525
T4
X104.915Y-43.815
X104.915Y-136.525
X105.618Y-42.118
X105.618Y-45.512
X105.618Y-134.828
X105.618Y-138.222
X107.315Y-41.415
X107.315Y-46.215
X107.315Y-134.125
X107.315Y-138.925
X109.012Y-42.118
X109.012Y-45.512
X109.012Y-134.828
X109.012Y-138.222
X109.715Y-43.815
X109.715Y-136.525
X209.055Y-43.815
X209.055Y-136.525
X209.758Y-42.118
X209.758Y-45.512
X209.758Y-134.828
X209.758Y-138.222
X211.455Y-41.415
X211.455Y-46.215
X211.455Y-134.125
X211.455Y-138.925
X213.152Y-42.118
X213.152Y-45.512
X213.152Y-134.828
X213.152Y-138.222
X213.855Y-43.815
X213.855Y-136.525
T6
X175.895Y-43.815
X175.895Y-45.085
X175.895Y-57.785
X175.895Y-59.055
X175.895Y-72.39
X175.895Y-73.66
X175.895Y-87.63
X175.895Y-88.9
X175.895Y-102.235
X175.895Y-103.505
X175.895Y-115.57
X175.895Y-116.84
X180.975Y-128.905
X180.975Y-130.175
T7
X106.68Y-113.03
X106.68Y-128.27
X109.22Y-113.03
X109.22Y-128.27
X111.76Y-113.03
X111.76Y-128.27
X114.3Y-113.03
X114.3Y-128.27
X114.3Y-137.16
X116.84Y-113.03
X116.84Y-128.27
X116.84Y-137.16
X119.38Y-113.03
X119.38Y-128.27
X119.38Y-137.16
X121.92Y-113.03
X121.92Y-128.27
X121.92Y-137.16
X124.46Y-113.03
X124.46Y-128.27
X124.46Y-137.16
X127.0Y-113.03
X127.0Y-128.27
X127.0Y-137.16
X127.635Y-95.885
X127.635Y-99.695
X129.54Y-113.03
X129.54Y-128.27
X129.54Y-137.16
X130.175Y-95.885
X130.175Y-99.695
X132.08Y-113.03
X132.08Y-128.27
X132.08Y-137.16
X132.715Y-95.885
X132.715Y-99.695
X134.62Y-113.03
X134.62Y-128.27
X137.16Y-113.03
X137.16Y-128.27
X139.7Y-113.03
X139.7Y-128.27
X139.7Y-137.16
X140.97Y-70.485
X140.97Y-74.295
X140.97Y-78.105
X140.97Y-81.915
X140.97Y-85.725
X142.24Y-113.03
X142.24Y-128.27
X142.24Y-137.16
X144.78Y-137.16
X147.32Y-137.16
X149.86Y-137.16
X154.305Y-128.27
X154.305Y-130.81
X154.305Y-133.35
X154.305Y-135.89
X154.305Y-138.43
X167.005Y-128.265
X167.005Y-130.805
X167.005Y-133.345
X167.005Y-135.885
X167.005Y-138.425
X207.01Y-58.89
X207.01Y-61.66
X207.01Y-64.43
X207.01Y-67.2
X207.01Y-69.97
X207.01Y-72.74
X207.01Y-75.51
X207.01Y-78.28
X207.01Y-81.05
X207.01Y-83.82
X207.01Y-86.59
X207.01Y-89.36
X207.01Y-92.13
X207.01Y-94.9
X207.01Y-97.67
X207.01Y-100.44
X207.01Y-103.21
X207.01Y-105.98
X207.01Y-108.75
X208.28Y-130.175
X209.85Y-60.275
X209.85Y-63.045
X209.85Y-65.815
X209.85Y-68.585
X209.85Y-71.355
X209.85Y-74.125
X209.85Y-76.895
X209.85Y-79.665
X209.85Y-82.435
X209.85Y-85.205
X209.85Y-87.975
X209.85Y-90.745
X209.85Y-93.515
X209.85Y-96.285
X209.85Y-99.055
X209.85Y-101.825
X209.85Y-104.595
X209.85Y-107.365
X210.82Y-130.175
X213.36Y-130.175
T8
X124.46Y-53.34
X124.46Y-55.88
X124.46Y-58.42
T9
X211.455Y-123.19
X211.455Y-125.73
T10
X115.57Y-44.45
X138.17Y-44.45
T11
X111.41Y-54.82
X111.41Y-62.02
T12
X107.315Y-43.815
X107.315Y-136.525
X208.43Y-52.07
X208.43Y-115.57
X211.455Y-43.815
X211.455Y-136.525
T5
G00X104.86Y-51.67
M15
G01X105.96Y-51.67
M16
G05
G00X104.86Y-65.17
M15
G01X105.96Y-65.17
M16
G05
T0
M30
