%TF.GenerationSoftware,KiCad,Pcbnew,(6.0.0)*%
%TF.CreationDate,2022-09-29T10:08:53+01:00*%
%TF.ProjectId,truss_PCB,74727573-735f-4504-9342-2e6b69636164,rev?*%
%TF.SameCoordinates,Original*%
%TF.FileFunction,Copper,L1,Top*%
%TF.FilePolarity,Positive*%
%FSLAX46Y46*%
G04 Gerber Fmt 4.6, Leading zero omitted, Abs format (unit mm)*
G04 Created by KiCad (PCBNEW (6.0.0)) date 2022-09-29 10:08:53*
%MOMM*%
%LPD*%
G01*
G04 APERTURE LIST*
G04 Aperture macros list*
%AMRoundRect*
0 Rectangle with rounded corners*
0 $1 Rounding radius*
0 $2 $3 $4 $5 $6 $7 $8 $9 X,Y pos of 4 corners*
0 Add a 4 corners polygon primitive as box body*
4,1,4,$2,$3,$4,$5,$6,$7,$8,$9,$2,$3,0*
0 Add four circle primitives for the rounded corners*
1,1,$1+$1,$2,$3*
1,1,$1+$1,$4,$5*
1,1,$1+$1,$6,$7*
1,1,$1+$1,$8,$9*
0 Add four rect primitives between the rounded corners*
20,1,$1+$1,$2,$3,$4,$5,0*
20,1,$1+$1,$4,$5,$6,$7,0*
20,1,$1+$1,$6,$7,$8,$9,0*
20,1,$1+$1,$8,$9,$2,$3,0*%
%AMFreePoly0*
4,1,22,0.500000,-0.750000,0.000000,-0.750000,0.000000,-0.745033,-0.079941,-0.743568,-0.215256,-0.701293,-0.333266,-0.622738,-0.424486,-0.514219,-0.481581,-0.384460,-0.499164,-0.250000,-0.500000,-0.250000,-0.500000,0.250000,-0.499164,0.250000,-0.499963,0.256109,-0.478152,0.396186,-0.417904,0.524511,-0.324060,0.630769,-0.204165,0.706417,-0.067858,0.745374,0.000000,0.744959,0.000000,0.750000,
0.500000,0.750000,0.500000,-0.750000,0.500000,-0.750000,$1*%
%AMFreePoly1*
4,1,20,0.000000,0.744959,0.073905,0.744508,0.209726,0.703889,0.328688,0.626782,0.421226,0.519385,0.479903,0.390333,0.500000,0.250000,0.500000,-0.250000,0.499851,-0.262216,0.476331,-0.402017,0.414519,-0.529596,0.319384,-0.634700,0.198574,-0.708877,0.061801,-0.746166,0.000000,-0.745033,0.000000,-0.750000,-0.500000,-0.750000,-0.500000,0.750000,0.000000,0.750000,0.000000,0.744959,
0.000000,0.744959,$1*%
G04 Aperture macros list end*
%TA.AperFunction,SMDPad,CuDef*%
%ADD10RoundRect,0.150000X0.650000X0.150000X-0.650000X0.150000X-0.650000X-0.150000X0.650000X-0.150000X0*%
%TD*%
%TA.AperFunction,SMDPad,CuDef*%
%ADD11RoundRect,0.100000X-0.637500X-0.100000X0.637500X-0.100000X0.637500X0.100000X-0.637500X0.100000X0*%
%TD*%
%TA.AperFunction,SMDPad,CuDef*%
%ADD12RoundRect,0.100000X-0.100000X0.637500X-0.100000X-0.637500X0.100000X-0.637500X0.100000X0.637500X0*%
%TD*%
%TA.AperFunction,SMDPad,CuDef*%
%ADD13RoundRect,0.150000X-0.587500X-0.150000X0.587500X-0.150000X0.587500X0.150000X-0.587500X0.150000X0*%
%TD*%
%TA.AperFunction,SMDPad,CuDef*%
%ADD14RoundRect,0.250000X0.550000X-1.500000X0.550000X1.500000X-0.550000X1.500000X-0.550000X-1.500000X0*%
%TD*%
%TA.AperFunction,SMDPad,CuDef*%
%ADD15FreePoly0,180.000000*%
%TD*%
%TA.AperFunction,SMDPad,CuDef*%
%ADD16FreePoly1,180.000000*%
%TD*%
%TA.AperFunction,SMDPad,CuDef*%
%ADD17RoundRect,0.250000X-0.350000X-0.450000X0.350000X-0.450000X0.350000X0.450000X-0.350000X0.450000X0*%
%TD*%
%TA.AperFunction,SMDPad,CuDef*%
%ADD18FreePoly0,0.000000*%
%TD*%
%TA.AperFunction,SMDPad,CuDef*%
%ADD19FreePoly1,0.000000*%
%TD*%
%TA.AperFunction,SMDPad,CuDef*%
%ADD20FreePoly0,270.000000*%
%TD*%
%TA.AperFunction,SMDPad,CuDef*%
%ADD21FreePoly1,270.000000*%
%TD*%
%TA.AperFunction,SMDPad,CuDef*%
%ADD22RoundRect,0.250000X-0.450000X0.325000X-0.450000X-0.325000X0.450000X-0.325000X0.450000X0.325000X0*%
%TD*%
%TA.AperFunction,SMDPad,CuDef*%
%ADD23RoundRect,0.250000X0.475000X-0.337500X0.475000X0.337500X-0.475000X0.337500X-0.475000X-0.337500X0*%
%TD*%
%TA.AperFunction,ComponentPad*%
%ADD24R,1.700000X1.700000*%
%TD*%
%TA.AperFunction,SMDPad,CuDef*%
%ADD25RoundRect,0.250000X-1.500000X-0.550000X1.500000X-0.550000X1.500000X0.550000X-1.500000X0.550000X0*%
%TD*%
%TA.AperFunction,SMDPad,CuDef*%
%ADD26RoundRect,0.250000X0.350000X0.450000X-0.350000X0.450000X-0.350000X-0.450000X0.350000X-0.450000X0*%
%TD*%
%TA.AperFunction,SMDPad,CuDef*%
%ADD27R,1.700000X1.300000*%
%TD*%
%TA.AperFunction,SMDPad,CuDef*%
%ADD28R,2.200000X1.200000*%
%TD*%
%TA.AperFunction,SMDPad,CuDef*%
%ADD29R,6.400000X5.800000*%
%TD*%
%TA.AperFunction,ComponentPad*%
%ADD30C,6.400000*%
%TD*%
%TA.AperFunction,ComponentPad*%
%ADD31C,0.800000*%
%TD*%
%TA.AperFunction,ComponentPad*%
%ADD32R,1.000000X1.000000*%
%TD*%
%TA.AperFunction,ComponentPad*%
%ADD33O,1.000000X1.000000*%
%TD*%
%TA.AperFunction,SMDPad,CuDef*%
%ADD34RoundRect,0.250000X1.500000X0.550000X-1.500000X0.550000X-1.500000X-0.550000X1.500000X-0.550000X0*%
%TD*%
%TA.AperFunction,ComponentPad*%
%ADD35RoundRect,0.250000X-0.845000X0.620000X-0.845000X-0.620000X0.845000X-0.620000X0.845000X0.620000X0*%
%TD*%
%TA.AperFunction,ComponentPad*%
%ADD36O,2.190000X1.740000*%
%TD*%
%TA.AperFunction,SMDPad,CuDef*%
%ADD37RoundRect,0.250000X0.337500X0.475000X-0.337500X0.475000X-0.337500X-0.475000X0.337500X-0.475000X0*%
%TD*%
%TA.AperFunction,SMDPad,CuDef*%
%ADD38RoundRect,0.250000X-0.450000X0.350000X-0.450000X-0.350000X0.450000X-0.350000X0.450000X0.350000X0*%
%TD*%
%TA.AperFunction,ComponentPad*%
%ADD39O,1.700000X1.700000*%
%TD*%
%TA.AperFunction,SMDPad,CuDef*%
%ADD40RoundRect,0.250000X0.325000X0.450000X-0.325000X0.450000X-0.325000X-0.450000X0.325000X-0.450000X0*%
%TD*%
%TA.AperFunction,SMDPad,CuDef*%
%ADD41RoundRect,0.250000X-1.000000X1.750000X-1.000000X-1.750000X1.000000X-1.750000X1.000000X1.750000X0*%
%TD*%
%TA.AperFunction,ComponentPad*%
%ADD42C,4.000000*%
%TD*%
%TA.AperFunction,ComponentPad*%
%ADD43R,1.600000X1.600000*%
%TD*%
%TA.AperFunction,ComponentPad*%
%ADD44C,1.600000*%
%TD*%
%TA.AperFunction,ComponentPad*%
%ADD45O,1.600000X1.600000*%
%TD*%
%TA.AperFunction,SMDPad,CuDef*%
%ADD46R,2.000000X1.500000*%
%TD*%
%TA.AperFunction,SMDPad,CuDef*%
%ADD47R,2.000000X3.800000*%
%TD*%
%TA.AperFunction,SMDPad,CuDef*%
%ADD48RoundRect,0.250000X1.750000X1.000000X-1.750000X1.000000X-1.750000X-1.000000X1.750000X-1.000000X0*%
%TD*%
%TA.AperFunction,SMDPad,CuDef*%
%ADD49RoundRect,0.250000X-0.475000X0.337500X-0.475000X-0.337500X0.475000X-0.337500X0.475000X0.337500X0*%
%TD*%
%TA.AperFunction,SMDPad,CuDef*%
%ADD50RoundRect,0.250000X-1.750000X0.250000X-1.750000X-0.250000X1.750000X-0.250000X1.750000X0.250000X0*%
%TD*%
%TA.AperFunction,ComponentPad*%
%ADD51C,3.716000*%
%TD*%
%TA.AperFunction,ComponentPad*%
%ADD52R,3.716000X3.716000*%
%TD*%
%TA.AperFunction,ComponentPad*%
%ADD53O,2.400000X1.200000*%
%TD*%
%TA.AperFunction,SMDPad,CuDef*%
%ADD54R,4.600000X1.100000*%
%TD*%
%TA.AperFunction,SMDPad,CuDef*%
%ADD55R,9.400000X10.800000*%
%TD*%
%TA.AperFunction,ComponentPad*%
%ADD56R,2.000000X1.905000*%
%TD*%
%TA.AperFunction,ComponentPad*%
%ADD57O,2.000000X1.905000*%
%TD*%
%TA.AperFunction,SMDPad,CuDef*%
%ADD58R,2.500000X1.800000*%
%TD*%
%TA.AperFunction,SMDPad,CuDef*%
%ADD59R,2.900000X5.400000*%
%TD*%
%TA.AperFunction,ComponentPad*%
%ADD60C,3.000000*%
%TD*%
%TA.AperFunction,ViaPad*%
%ADD61C,0.600000*%
%TD*%
%TA.AperFunction,ViaPad*%
%ADD62C,0.800000*%
%TD*%
%TA.AperFunction,ViaPad*%
%ADD63C,0.700000*%
%TD*%
%TA.AperFunction,Conductor*%
%ADD64C,0.250000*%
%TD*%
%TA.AperFunction,Conductor*%
%ADD65C,0.300000*%
%TD*%
%TA.AperFunction,Conductor*%
%ADD66C,2.000000*%
%TD*%
%TA.AperFunction,Conductor*%
%ADD67C,1.000000*%
%TD*%
%TA.AperFunction,Conductor*%
%ADD68C,0.200000*%
%TD*%
G04 APERTURE END LIST*
%TO.C,N3*%
G36*
X106650600Y-109982000D02*
G01*
X102645400Y-109982000D01*
X102645400Y-108982000D01*
X106650600Y-108982000D01*
X106650600Y-109982000D01*
G37*
%TD*%
D10*
%TO.P,U2,1,Vdd*%
%TO.N,5VDC*%
X185570000Y-67310000D03*
%TO.P,U2,2,Base*%
%TO.N,Net-(Q2-Pad1)*%
X185570000Y-66040000D03*
%TO.P,U2,3,AVdd*%
%TO.N,Net-(JP5-Pad1)*%
X185570000Y-64770000D03*
%TO.P,U2,4,VFB*%
%TO.N,Net-(R7-Pad1)*%
X185570000Y-63500000D03*
%TO.P,U2,5,AGND*%
%TO.N,GNDA*%
X185570000Y-62230000D03*
%TO.P,U2,6,VBG*%
%TO.N,Net-(C4-Pad1)*%
X185570000Y-60960000D03*
%TO.P,U2,7,INA-*%
%TO.N,Net-(C5-Pad1)*%
X185570000Y-59690000D03*
%TO.P,U2,8,INA+*%
%TO.N,Net-(C5-Pad2)*%
X185570000Y-58420000D03*
%TO.P,U2,9,INB-*%
%TO.N,Net-(J6-Pad1)*%
X179070000Y-58420000D03*
%TO.P,U2,10,INB+*%
%TO.N,Net-(J6-Pad2)*%
X179070000Y-59690000D03*
%TO.P,U2,11,PD_SCK*%
%TO.N,SCK*%
X179070000Y-60960000D03*
%TO.P,U2,12,Dout*%
%TO.N,/BridgeDriver1/D_OUT*%
X179070000Y-62230000D03*
%TO.P,U2,13,XO*%
%TO.N,unconnected-(U2-Pad13)*%
X179070000Y-63500000D03*
%TO.P,U2,14,XI*%
%TO.N,GNDA*%
X179070000Y-64770000D03*
%TO.P,U2,15,Rate*%
%TO.N,Net-(JP7-Pad2)*%
X179070000Y-66040000D03*
%TO.P,U2,16,DVdd*%
%TO.N,5VDC*%
X179070000Y-67310000D03*
%TD*%
%TO.P,U7,1,Vdd*%
%TO.N,5VDC*%
X190575000Y-139065000D03*
%TO.P,U7,2,Base*%
%TO.N,Net-(JP23-Pad1)*%
X190575000Y-137795000D03*
%TO.P,U7,3,AVdd*%
%TO.N,Net-(JP21-Pad1)*%
X190575000Y-136525000D03*
%TO.P,U7,4,VFB*%
%TO.N,Net-(JP22-Pad1)*%
X190575000Y-135255000D03*
%TO.P,U7,5,AGND*%
%TO.N,GNDA*%
X190575000Y-133985000D03*
%TO.P,U7,6,VBG*%
%TO.N,Net-(C19-Pad1)*%
X190575000Y-132715000D03*
%TO.P,U7,7,INA-*%
%TO.N,Net-(C20-Pad1)*%
X190575000Y-131445000D03*
%TO.P,U7,8,INA+*%
%TO.N,Net-(C20-Pad2)*%
X190575000Y-130175000D03*
%TO.P,U7,9,INB-*%
%TO.N,Net-(J11-Pad1)*%
X184075000Y-130175000D03*
%TO.P,U7,10,INB+*%
%TO.N,Net-(J11-Pad2)*%
X184075000Y-131445000D03*
%TO.P,U7,11,PD_SCK*%
%TO.N,SCK*%
X184075000Y-132715000D03*
%TO.P,U7,12,Dout*%
%TO.N,/LoadCell/D_OUT*%
X184075000Y-133985000D03*
%TO.P,U7,13,XO*%
%TO.N,unconnected-(U7-Pad13)*%
X184075000Y-135255000D03*
%TO.P,U7,14,XI*%
%TO.N,GNDA*%
X184075000Y-136525000D03*
%TO.P,U7,15,Rate*%
%TO.N,Net-(JP25-Pad2)*%
X184075000Y-137795000D03*
%TO.P,U7,16,DVdd*%
%TO.N,5VDC*%
X184075000Y-139065000D03*
%TD*%
%TO.P,U5,1,Vdd*%
%TO.N,5VDC*%
X185495000Y-111125000D03*
%TO.P,U5,2,Base*%
%TO.N,Net-(Q5-Pad1)*%
X185495000Y-109855000D03*
%TO.P,U5,3,AVdd*%
%TO.N,Net-(JP14-Pad1)*%
X185495000Y-108585000D03*
%TO.P,U5,4,VFB*%
%TO.N,Net-(R22-Pad1)*%
X185495000Y-107315000D03*
%TO.P,U5,5,AGND*%
%TO.N,GNDA*%
X185495000Y-106045000D03*
%TO.P,U5,6,VBG*%
%TO.N,Net-(C13-Pad1)*%
X185495000Y-104775000D03*
%TO.P,U5,7,INA-*%
%TO.N,Net-(C14-Pad1)*%
X185495000Y-103505000D03*
%TO.P,U5,8,INA+*%
%TO.N,Net-(C14-Pad2)*%
X185495000Y-102235000D03*
%TO.P,U5,9,INB-*%
%TO.N,Net-(J9-Pad1)*%
X178995000Y-102235000D03*
%TO.P,U5,10,INB+*%
%TO.N,Net-(J9-Pad2)*%
X178995000Y-103505000D03*
%TO.P,U5,11,PD_SCK*%
%TO.N,SCK*%
X178995000Y-104775000D03*
%TO.P,U5,12,Dout*%
%TO.N,/BridgeDriver4/D_OUT*%
X178995000Y-106045000D03*
%TO.P,U5,13,XO*%
%TO.N,unconnected-(U5-Pad13)*%
X178995000Y-107315000D03*
%TO.P,U5,14,XI*%
%TO.N,GNDA*%
X178995000Y-108585000D03*
%TO.P,U5,15,Rate*%
%TO.N,Net-(JP16-Pad2)*%
X178995000Y-109855000D03*
%TO.P,U5,16,DVdd*%
%TO.N,5VDC*%
X178995000Y-111125000D03*
%TD*%
%TO.P,U4,1,Vdd*%
%TO.N,5VDC*%
X185495000Y-96520000D03*
%TO.P,U4,2,Base*%
%TO.N,Net-(Q4-Pad1)*%
X185495000Y-95250000D03*
%TO.P,U4,3,AVdd*%
%TO.N,Net-(JP11-Pad1)*%
X185495000Y-93980000D03*
%TO.P,U4,4,VFB*%
%TO.N,Net-(R17-Pad1)*%
X185495000Y-92710000D03*
%TO.P,U4,5,AGND*%
%TO.N,GNDA*%
X185495000Y-91440000D03*
%TO.P,U4,6,VBG*%
%TO.N,Net-(C10-Pad1)*%
X185495000Y-90170000D03*
%TO.P,U4,7,INA-*%
%TO.N,Net-(C11-Pad1)*%
X185495000Y-88900000D03*
%TO.P,U4,8,INA+*%
%TO.N,Net-(C11-Pad2)*%
X185495000Y-87630000D03*
%TO.P,U4,9,INB-*%
%TO.N,Net-(J8-Pad1)*%
X178995000Y-87630000D03*
%TO.P,U4,10,INB+*%
%TO.N,Net-(J8-Pad2)*%
X178995000Y-88900000D03*
%TO.P,U4,11,PD_SCK*%
%TO.N,SCK*%
X178995000Y-90170000D03*
%TO.P,U4,12,Dout*%
%TO.N,/BridgeDriver3/D_OUT*%
X178995000Y-91440000D03*
%TO.P,U4,13,XO*%
%TO.N,unconnected-(U4-Pad13)*%
X178995000Y-92710000D03*
%TO.P,U4,14,XI*%
%TO.N,GNDA*%
X178995000Y-93980000D03*
%TO.P,U4,15,Rate*%
%TO.N,Net-(JP13-Pad2)*%
X178995000Y-95250000D03*
%TO.P,U4,16,DVdd*%
%TO.N,5VDC*%
X178995000Y-96520000D03*
%TD*%
%TO.P,U6,1,Vdd*%
%TO.N,5VDC*%
X185495000Y-125095000D03*
%TO.P,U6,2,Base*%
%TO.N,Net-(Q6-Pad1)*%
X185495000Y-123825000D03*
%TO.P,U6,3,AVdd*%
%TO.N,Net-(JP17-Pad1)*%
X185495000Y-122555000D03*
%TO.P,U6,4,VFB*%
%TO.N,Net-(R27-Pad1)*%
X185495000Y-121285000D03*
%TO.P,U6,5,AGND*%
%TO.N,GNDA*%
X185495000Y-120015000D03*
%TO.P,U6,6,VBG*%
%TO.N,Net-(C16-Pad1)*%
X185495000Y-118745000D03*
%TO.P,U6,7,INA-*%
%TO.N,Net-(C17-Pad1)*%
X185495000Y-117475000D03*
%TO.P,U6,8,INA+*%
%TO.N,Net-(C17-Pad2)*%
X185495000Y-116205000D03*
%TO.P,U6,9,INB-*%
%TO.N,Net-(J10-Pad1)*%
X178995000Y-116205000D03*
%TO.P,U6,10,INB+*%
%TO.N,Net-(J10-Pad2)*%
X178995000Y-117475000D03*
%TO.P,U6,11,PD_SCK*%
%TO.N,SCK*%
X178995000Y-118745000D03*
%TO.P,U6,12,Dout*%
%TO.N,/BridgeDriver5/D_OUT*%
X178995000Y-120015000D03*
%TO.P,U6,13,XO*%
%TO.N,unconnected-(U6-Pad13)*%
X178995000Y-121285000D03*
%TO.P,U6,14,XI*%
%TO.N,GNDA*%
X178995000Y-122555000D03*
%TO.P,U6,15,Rate*%
%TO.N,Net-(JP19-Pad2)*%
X178995000Y-123825000D03*
%TO.P,U6,16,DVdd*%
%TO.N,5VDC*%
X178995000Y-125095000D03*
%TD*%
%TO.P,U3,1,Vdd*%
%TO.N,5VDC*%
X185495000Y-81915000D03*
%TO.P,U3,2,Base*%
%TO.N,Net-(Q3-Pad1)*%
X185495000Y-80645000D03*
%TO.P,U3,3,AVdd*%
%TO.N,Net-(JP8-Pad1)*%
X185495000Y-79375000D03*
%TO.P,U3,4,VFB*%
%TO.N,Net-(R12-Pad1)*%
X185495000Y-78105000D03*
%TO.P,U3,5,AGND*%
%TO.N,GNDA*%
X185495000Y-76835000D03*
%TO.P,U3,6,VBG*%
%TO.N,Net-(C7-Pad1)*%
X185495000Y-75565000D03*
%TO.P,U3,7,INA-*%
%TO.N,Net-(C8-Pad1)*%
X185495000Y-74295000D03*
%TO.P,U3,8,INA+*%
%TO.N,Net-(C8-Pad2)*%
X185495000Y-73025000D03*
%TO.P,U3,9,INB-*%
%TO.N,Net-(J7-Pad1)*%
X178995000Y-73025000D03*
%TO.P,U3,10,INB+*%
%TO.N,Net-(J7-Pad2)*%
X178995000Y-74295000D03*
%TO.P,U3,11,PD_SCK*%
%TO.N,SCK*%
X178995000Y-75565000D03*
%TO.P,U3,12,Dout*%
%TO.N,/BridgeDriver2/D_OUT*%
X178995000Y-76835000D03*
%TO.P,U3,13,XO*%
%TO.N,unconnected-(U3-Pad13)*%
X178995000Y-78105000D03*
%TO.P,U3,14,XI*%
%TO.N,GNDA*%
X178995000Y-79375000D03*
%TO.P,U3,15,Rate*%
%TO.N,Net-(JP10-Pad2)*%
X178995000Y-80645000D03*
%TO.P,U3,16,DVdd*%
%TO.N,5VDC*%
X178995000Y-81915000D03*
%TD*%
%TO.P,U1,1,Vdd*%
%TO.N,5VDC*%
X185495000Y-52705000D03*
%TO.P,U1,2,Base*%
%TO.N,Net-(Q1-Pad1)*%
X185495000Y-51435000D03*
%TO.P,U1,3,AVdd*%
%TO.N,Net-(JP2-Pad1)*%
X185495000Y-50165000D03*
%TO.P,U1,4,VFB*%
%TO.N,Net-(R2-Pad1)*%
X185495000Y-48895000D03*
%TO.P,U1,5,AGND*%
%TO.N,GNDA*%
X185495000Y-47625000D03*
%TO.P,U1,6,VBG*%
%TO.N,Net-(C1-Pad1)*%
X185495000Y-46355000D03*
%TO.P,U1,7,INA-*%
%TO.N,Net-(C2-Pad1)*%
X185495000Y-45085000D03*
%TO.P,U1,8,INA+*%
%TO.N,Net-(C2-Pad2)*%
X185495000Y-43815000D03*
%TO.P,U1,9,INB-*%
%TO.N,Net-(J5-Pad1)*%
X178995000Y-43815000D03*
%TO.P,U1,10,INB+*%
%TO.N,Net-(J5-Pad2)*%
X178995000Y-45085000D03*
%TO.P,U1,11,PD_SCK*%
%TO.N,SCK*%
X178995000Y-46355000D03*
%TO.P,U1,12,Dout*%
%TO.N,/BridgeDriver0/D_OUT*%
X178995000Y-47625000D03*
%TO.P,U1,13,XO*%
%TO.N,unconnected-(U1-Pad13)*%
X178995000Y-48895000D03*
%TO.P,U1,14,XI*%
%TO.N,GNDA*%
X178995000Y-50165000D03*
%TO.P,U1,15,Rate*%
%TO.N,Net-(JP4-Pad2)*%
X178995000Y-51435000D03*
%TO.P,U1,16,DVdd*%
%TO.N,5VDC*%
X178995000Y-52705000D03*
%TD*%
D11*
%TO.P,U8,1,A1*%
%TO.N,/MCU/SERVO_PWM_PIN*%
X157792500Y-132965000D03*
%TO.P,U8,2,VCCA*%
%TO.N,3V3DC*%
X157792500Y-133615000D03*
%TO.P,U8,3,A2*%
%TO.N,/MCU/SCK*%
X157792500Y-134265000D03*
%TO.P,U8,4,A3*%
%TO.N,/MCU/LIMIT_SWITCH*%
X157792500Y-134915000D03*
%TO.P,U8,5,A4*%
%TO.N,Net-(J14-Pad1)*%
X157792500Y-135565000D03*
%TO.P,U8,6,A5*%
%TO.N,Net-(J14-Pad2)*%
X157792500Y-136215000D03*
%TO.P,U8,7,A6*%
%TO.N,Net-(J14-Pad3)*%
X157792500Y-136865000D03*
%TO.P,U8,8,A7*%
%TO.N,Net-(J14-Pad4)*%
X157792500Y-137515000D03*
%TO.P,U8,9,A8*%
%TO.N,Net-(J14-Pad5)*%
X157792500Y-138165000D03*
%TO.P,U8,10,OE*%
%TO.N,/MCU/OUTPUT_ENABLE*%
X157792500Y-138815000D03*
%TO.P,U8,11,GND*%
%TO.N,GNDA*%
X163517500Y-138815000D03*
%TO.P,U8,12,B8*%
%TO.N,Net-(J15-Pad1)*%
X163517500Y-138165000D03*
%TO.P,U8,13,B7*%
%TO.N,Net-(J15-Pad2)*%
X163517500Y-137515000D03*
%TO.P,U8,14,B6*%
%TO.N,Net-(J15-Pad3)*%
X163517500Y-136865000D03*
%TO.P,U8,15,B5*%
%TO.N,Net-(J15-Pad4)*%
X163517500Y-136215000D03*
%TO.P,U8,16,B4*%
%TO.N,Net-(J15-Pad5)*%
X163517500Y-135565000D03*
%TO.P,U8,17,B3*%
%TO.N,/LIMIT_SWITCH*%
X163517500Y-134915000D03*
%TO.P,U8,18,B2*%
%TO.N,SCK*%
X163517500Y-134265000D03*
%TO.P,U8,19,VCCB*%
%TO.N,5VDC*%
X163517500Y-133615000D03*
%TO.P,U8,20,B1*%
%TO.N,/SERVO_PWM*%
X163517500Y-132965000D03*
%TD*%
D12*
%TO.P,U9,1,A1*%
%TO.N,/MCU/DT0*%
X156595000Y-95562500D03*
%TO.P,U9,2,VCCA*%
%TO.N,3V3DC*%
X155945000Y-95562500D03*
%TO.P,U9,3,A2*%
%TO.N,/MCU/DT1*%
X155295000Y-95562500D03*
%TO.P,U9,4,A3*%
%TO.N,/MCU/DT2*%
X154645000Y-95562500D03*
%TO.P,U9,5,A4*%
%TO.N,/MCU/DT3*%
X153995000Y-95562500D03*
%TO.P,U9,6,A5*%
%TO.N,/MCU/DT4*%
X153345000Y-95562500D03*
%TO.P,U9,7,A6*%
%TO.N,/MCU/DT5*%
X152695000Y-95562500D03*
%TO.P,U9,8,A7*%
%TO.N,/MCU/DT6*%
X152045000Y-95562500D03*
%TO.P,U9,9,A8*%
%TO.N,/MCU/DT7*%
X151395000Y-95562500D03*
%TO.P,U9,10,OE*%
%TO.N,/MCU/OUTPUT_ENABLE*%
X150745000Y-95562500D03*
%TO.P,U9,11,GND*%
%TO.N,GNDA*%
X150745000Y-101287500D03*
%TO.P,U9,12,B8*%
%TO.N,/MCU/DATA_7*%
X151395000Y-101287500D03*
%TO.P,U9,13,B7*%
%TO.N,/LoadCell/D_OUT*%
X152045000Y-101287500D03*
%TO.P,U9,14,B6*%
%TO.N,/BridgeDriver5/D_OUT*%
X152695000Y-101287500D03*
%TO.P,U9,15,B5*%
%TO.N,/BridgeDriver4/D_OUT*%
X153345000Y-101287500D03*
%TO.P,U9,16,B4*%
%TO.N,/BridgeDriver3/D_OUT*%
X153995000Y-101287500D03*
%TO.P,U9,17,B3*%
%TO.N,/BridgeDriver2/D_OUT*%
X154645000Y-101287500D03*
%TO.P,U9,18,B2*%
%TO.N,/BridgeDriver1/D_OUT*%
X155295000Y-101287500D03*
%TO.P,U9,19,VCCB*%
%TO.N,5VDC*%
X155945000Y-101287500D03*
%TO.P,U9,20,B1*%
%TO.N,/BridgeDriver0/D_OUT*%
X156595000Y-101287500D03*
%TD*%
D13*
%TO.P,Q3,1,B*%
%TO.N,Net-(Q3-Pad1)*%
X188292500Y-80330000D03*
%TO.P,Q3,2,E*%
%TO.N,5VDC*%
X188292500Y-82230000D03*
%TO.P,Q3,3,C*%
%TO.N,/BridgeDriver2/V_LC*%
X190167500Y-81280000D03*
%TD*%
D14*
%TO.P,EC9,1*%
%TO.N,/BridgeDriver4/V_LC*%
X196850000Y-110490000D03*
%TO.P,EC9,2*%
%TO.N,GNDA*%
X196850000Y-104890000D03*
%TD*%
D15*
%TO.P,JP38,1,A*%
%TO.N,/LIMIT_SWITCH*%
X156860000Y-118745000D03*
D16*
%TO.P,JP38,2,B*%
%TO.N,/MCU/LIMIT_SWITCH*%
X155560000Y-118745000D03*
%TD*%
D17*
%TO.P,R51,1*%
%TO.N,GNDA*%
X148860000Y-133985000D03*
%TO.P,R51,2*%
%TO.N,Net-(J14-Pad5)*%
X150860000Y-133985000D03*
%TD*%
D18*
%TO.P,JP1,1,A*%
%TO.N,/PWM*%
X203170000Y-124460000D03*
D19*
%TO.P,JP1,2,B*%
%TO.N,/SERVO_PWM*%
X204470000Y-124460000D03*
%TD*%
D20*
%TO.P,JP30,1,A*%
%TO.N,/BridgeDriver0/D_OUT*%
X163195000Y-106710000D03*
D21*
%TO.P,JP30,2,B*%
%TO.N,/MCU/DT0*%
X163195000Y-108010000D03*
%TD*%
D22*
%TO.P,D9,1,K*%
%TO.N,Net-(D9-Pad1)*%
X121285000Y-131690000D03*
%TO.P,D9,2,A*%
%TO.N,/MCU/LED_2*%
X121285000Y-133740000D03*
%TD*%
D23*
%TO.P,C5,1*%
%TO.N,Net-(C5-Pad1)*%
X188595000Y-57785000D03*
%TO.P,C5,2*%
%TO.N,Net-(C5-Pad2)*%
X188595000Y-55710000D03*
%TD*%
D24*
%TO.P,J18,1,Pin_1*%
%TO.N,/Power Distribution/12V_BUS*%
X140970000Y-70485000D03*
%TD*%
D25*
%TO.P,EC21,1*%
%TO.N,5VDC*%
X126365000Y-105410000D03*
%TO.P,EC21,2*%
%TO.N,GNDPWR*%
X131965000Y-105410000D03*
%TD*%
D14*
%TO.P,EC12,1*%
%TO.N,5VDC*%
X170180000Y-120535000D03*
%TO.P,EC12,2*%
%TO.N,GNDA*%
X170180000Y-114935000D03*
%TD*%
D26*
%TO.P,RFB2,1*%
%TO.N,/SERVO_POWER*%
X123825000Y-86360000D03*
%TO.P,RFB2,2*%
%TO.N,/Power Distribution/FB*%
X121825000Y-86360000D03*
%TD*%
D14*
%TO.P,EC5,1*%
%TO.N,/BridgeDriver2/V_LC*%
X196215000Y-81280000D03*
%TO.P,EC5,2*%
%TO.N,GNDA*%
X196215000Y-75680000D03*
%TD*%
D27*
%TO.P,D2,1,K*%
%TO.N,/Power Distribution/12V_BUS*%
X118110000Y-59690000D03*
%TO.P,D2,2,A*%
%TO.N,/Power Distribution/12V_00*%
X118110000Y-56190000D03*
%TD*%
D28*
%TO.P,IC1,1,VCC*%
%TO.N,/Power Distribution/12V_BUS*%
X145025000Y-49155000D03*
D29*
%TO.P,IC1,2,GND*%
%TO.N,GNDPWR*%
X151325000Y-51435000D03*
D28*
%TO.P,IC1,3,OUT*%
%TO.N,/10V_DC*%
X145025000Y-53715000D03*
%TD*%
D14*
%TO.P,EC3,1*%
%TO.N,/BridgeDriver1/V_LC*%
X196215000Y-66560000D03*
%TO.P,EC3,2*%
%TO.N,GNDA*%
X196215000Y-60960000D03*
%TD*%
%TO.P,EC11,1*%
%TO.N,/BridgeDriver5/V_LC*%
X196850000Y-123450000D03*
%TO.P,EC11,2*%
%TO.N,GNDA*%
X196850000Y-117850000D03*
%TD*%
D13*
%TO.P,Q2,1,B*%
%TO.N,Net-(Q2-Pad1)*%
X188292500Y-65090000D03*
%TO.P,Q2,2,E*%
%TO.N,5VDC*%
X188292500Y-66990000D03*
%TO.P,Q2,3,C*%
%TO.N,/BridgeDriver1/V_LC*%
X190167500Y-66040000D03*
%TD*%
D30*
%TO.P,H4,1*%
%TO.N,N/C*%
X211455000Y-136525000D03*
D31*
X213855000Y-136525000D03*
X213152056Y-134827944D03*
X209757944Y-134827944D03*
X213152056Y-138222056D03*
X211455000Y-138925000D03*
X209055000Y-136525000D03*
X211455000Y-134125000D03*
X209757944Y-138222056D03*
%TD*%
D14*
%TO.P,EC4,1*%
%TO.N,5VDC*%
X170180000Y-62490000D03*
%TO.P,EC4,2*%
%TO.N,GNDA*%
X170180000Y-56890000D03*
%TD*%
D17*
%TO.P,R15,1*%
%TO.N,Net-(C8-Pad2)*%
X191135000Y-70485000D03*
%TO.P,R15,2*%
%TO.N,/BridgeDriver2/LC+*%
X193135000Y-70485000D03*
%TD*%
D26*
%TO.P,R41,1*%
%TO.N,Net-(D8-Pad2)*%
X148320000Y-70485000D03*
%TO.P,R41,2*%
%TO.N,/Power Distribution/12V_BUS*%
X146320000Y-70485000D03*
%TD*%
D32*
%TO.P,J6,1,Pin_1*%
%TO.N,Net-(J6-Pad1)*%
X175895000Y-57785000D03*
D33*
%TO.P,J6,2,Pin_2*%
%TO.N,Net-(J6-Pad2)*%
X175895000Y-59055000D03*
%TD*%
D34*
%TO.P,EC19,1*%
%TO.N,/Power Distribution/12V_BUS*%
X110490000Y-106940000D03*
%TO.P,EC19,2*%
%TO.N,GNDPWR*%
X104890000Y-106940000D03*
%TD*%
D35*
%TO.P,J2,1,Pin_1*%
%TO.N,GNDA*%
X211455000Y-123190000D03*
D36*
%TO.P,J2,2,Pin_2*%
%TO.N,/LIMIT_SWITCH*%
X211455000Y-125730000D03*
%TD*%
D23*
%TO.P,C17,1*%
%TO.N,Net-(C17-Pad1)*%
X187960000Y-116205000D03*
%TO.P,C17,2*%
%TO.N,Net-(C17-Pad2)*%
X187960000Y-114130000D03*
%TD*%
D37*
%TO.P,C21,1*%
%TO.N,5VDC*%
X180742500Y-137795000D03*
%TO.P,C21,2*%
%TO.N,GNDA*%
X178667500Y-137795000D03*
%TD*%
D26*
%TO.P,R18,1*%
%TO.N,GNDA*%
X190595000Y-90170000D03*
%TO.P,R18,2*%
%TO.N,Net-(R17-Pad1)*%
X188595000Y-90170000D03*
%TD*%
D14*
%TO.P,EC10,1*%
%TO.N,5VDC*%
X170180000Y-106305000D03*
%TO.P,EC10,2*%
%TO.N,GNDA*%
X170180000Y-100705000D03*
%TD*%
D26*
%TO.P,R1,1*%
%TO.N,/LIMIT_SWITCH*%
X205105000Y-121285000D03*
%TO.P,R1,2*%
%TO.N,5VDC*%
X203105000Y-121285000D03*
%TD*%
D38*
%TO.P,R11,1*%
%TO.N,5VDC*%
X175895000Y-62230000D03*
%TO.P,R11,2*%
%TO.N,Net-(JP7-Pad2)*%
X175895000Y-64230000D03*
%TD*%
D30*
%TO.P,H2,1*%
%TO.N,N/C*%
X211455000Y-43815000D03*
D31*
X213152056Y-45512056D03*
X211455000Y-46215000D03*
X213152056Y-42117944D03*
X213855000Y-43815000D03*
X209757944Y-42117944D03*
X209757944Y-45512056D03*
X209055000Y-43815000D03*
X211455000Y-41415000D03*
%TD*%
D32*
%TO.P,J8,1,Pin_1*%
%TO.N,Net-(J8-Pad1)*%
X175895000Y-87630000D03*
D33*
%TO.P,J8,2,Pin_2*%
%TO.N,Net-(J8-Pad2)*%
X175895000Y-88900000D03*
%TD*%
D23*
%TO.P,C26,1*%
%TO.N,5VDC*%
X159385000Y-99695000D03*
%TO.P,C26,2*%
%TO.N,GNDA*%
X159385000Y-97620000D03*
%TD*%
D24*
%TO.P,J13,1,Pin_1*%
%TO.N,Net-(A1-Pad19)*%
X114300000Y-137160000D03*
D39*
%TO.P,J13,2,Pin_2*%
%TO.N,Net-(A1-Pad21)*%
X116840000Y-137160000D03*
%TO.P,J13,3,Pin_3*%
%TO.N,Net-(A1-Pad22)*%
X119380000Y-137160000D03*
%TO.P,J13,4,Pin_4*%
%TO.N,Net-(A1-Pad23)*%
X121920000Y-137160000D03*
%TO.P,J13,5,Pin_5*%
%TO.N,/MCU/LED_2*%
X124460000Y-137160000D03*
%TO.P,J13,6,Pin_6*%
%TO.N,/MCU/LED_3*%
X127000000Y-137160000D03*
%TO.P,J13,7,Pin_7*%
%TO.N,/MCU/LED_4*%
X129540000Y-137160000D03*
%TO.P,J13,8,Pin_8*%
%TO.N,/MCU/SPARE_0*%
X132080000Y-137160000D03*
%TD*%
D32*
%TO.P,J5,1,Pin_1*%
%TO.N,Net-(J5-Pad1)*%
X175895000Y-43815000D03*
D33*
%TO.P,J5,2,Pin_2*%
%TO.N,Net-(J5-Pad2)*%
X175895000Y-45085000D03*
%TD*%
D37*
%TO.P,C4,1*%
%TO.N,Net-(C4-Pad1)*%
X182880000Y-55880000D03*
%TO.P,C4,2*%
%TO.N,GNDA*%
X180805000Y-55880000D03*
%TD*%
D26*
%TO.P,R43,1*%
%TO.N,Net-(D7-Pad2)*%
X148050000Y-78105000D03*
%TO.P,R43,2*%
%TO.N,5VDC*%
X146050000Y-78105000D03*
%TD*%
D32*
%TO.P,J9,1,Pin_1*%
%TO.N,Net-(J9-Pad1)*%
X175895000Y-102235000D03*
D33*
%TO.P,J9,2,Pin_2*%
%TO.N,Net-(J9-Pad2)*%
X175895000Y-103505000D03*
%TD*%
D20*
%TO.P,JP31,1,A*%
%TO.N,/BridgeDriver1/D_OUT*%
X160655000Y-106680000D03*
D21*
%TO.P,JP31,2,B*%
%TO.N,/MCU/DT1*%
X160655000Y-107980000D03*
%TD*%
D25*
%TO.P,EC17,1*%
%TO.N,/Power Distribution/12V_BUS*%
X145840000Y-44070000D03*
%TO.P,EC17,2*%
%TO.N,GNDPWR*%
X151440000Y-44070000D03*
%TD*%
D37*
%TO.P,C10,1*%
%TO.N,Net-(C10-Pad1)*%
X182415000Y-85090000D03*
%TO.P,C10,2*%
%TO.N,GNDA*%
X180340000Y-85090000D03*
%TD*%
D40*
%TO.P,D3,1,K*%
%TO.N,GNDPWR*%
X152155000Y-85725000D03*
%TO.P,D3,2,A*%
%TO.N,Net-(D3-Pad2)*%
X150105000Y-85725000D03*
%TD*%
D38*
%TO.P,R21,1*%
%TO.N,5VDC*%
X175895000Y-91710000D03*
%TO.P,R21,2*%
%TO.N,Net-(JP13-Pad2)*%
X175895000Y-93710000D03*
%TD*%
D24*
%TO.P,J19,1,Pin_1*%
%TO.N,/SERVO_POWER*%
X140970000Y-81915000D03*
%TD*%
D20*
%TO.P,JP32,1,A*%
%TO.N,/BridgeDriver2/D_OUT*%
X158115000Y-106680000D03*
D21*
%TO.P,JP32,2,B*%
%TO.N,/MCU/DT2*%
X158115000Y-107980000D03*
%TD*%
D26*
%TO.P,R13,1*%
%TO.N,GNDA*%
X190500000Y-75565000D03*
%TO.P,R13,2*%
%TO.N,Net-(R12-Pad1)*%
X188500000Y-75565000D03*
%TD*%
D17*
%TO.P,R30,1*%
%TO.N,Net-(C17-Pad2)*%
X190405000Y-113665000D03*
%TO.P,R30,2*%
%TO.N,/BridgeDriver5/LC+*%
X192405000Y-113665000D03*
%TD*%
D41*
%TO.P,EC28,1*%
%TO.N,/Power Distribution/12V_BUS*%
X134620000Y-56770000D03*
%TO.P,EC28,2*%
%TO.N,GNDPWR*%
X134620000Y-64770000D03*
%TD*%
D38*
%TO.P,R37,1*%
%TO.N,GNDA*%
X141605000Y-131445000D03*
%TO.P,R37,2*%
%TO.N,Net-(D1-Pad1)*%
X141605000Y-133445000D03*
%TD*%
D42*
%TO.P,J4,0,PAD*%
%TO.N,GNDA*%
X208430000Y-115570000D03*
X208430000Y-52070000D03*
D43*
%TO.P,J4,1,1*%
%TO.N,/BridgeDriver0/V_LC*%
X207010000Y-58890000D03*
D44*
%TO.P,J4,2,2*%
%TO.N,/BridgeDriver0/LC-*%
X207010000Y-61660000D03*
%TO.P,J4,3,3*%
%TO.N,/BridgeDriver1/V_LC*%
X207010000Y-64430000D03*
%TO.P,J4,4,4*%
%TO.N,/BridgeDriver1/LC-*%
X207010000Y-67200000D03*
%TO.P,J4,5,5*%
%TO.N,/BridgeDriver2/V_LC*%
X207010000Y-69970000D03*
%TO.P,J4,6,6*%
%TO.N,/BridgeDriver2/LC-*%
X207010000Y-72740000D03*
%TO.P,J4,7,7*%
%TO.N,/BridgeDriver3/V_LC*%
X207010000Y-75510000D03*
%TO.P,J4,8,8*%
%TO.N,/BridgeDriver3/LC-*%
X207010000Y-78280000D03*
%TO.P,J4,9,9*%
%TO.N,/BridgeDriver4/V_LC*%
X207010000Y-81050000D03*
%TO.P,J4,10,10*%
%TO.N,/BridgeDriver4/LC-*%
X207010000Y-83820000D03*
%TO.P,J4,11,11*%
%TO.N,/BridgeDriver5/V_LC*%
X207010000Y-86590000D03*
%TO.P,J4,12,12*%
%TO.N,/BridgeDriver5/LC-*%
X207010000Y-89360000D03*
%TO.P,J4,13,13*%
%TO.N,/LoadCell/V_LC*%
X207010000Y-92130000D03*
%TO.P,J4,14,14*%
%TO.N,/LoadCell/LC-*%
X207010000Y-94900000D03*
%TO.P,J4,15,15*%
%TO.N,/MCU/SPARE_0*%
X207010000Y-97670000D03*
%TO.P,J4,16,16*%
%TO.N,/MCU/LED_3*%
X207010000Y-100440000D03*
%TO.P,J4,17,17*%
%TO.N,/LIMIT_SWITCH*%
X207010000Y-103210000D03*
%TO.P,J4,18,18*%
%TO.N,/PWM*%
X207010000Y-105980000D03*
%TO.P,J4,19,19*%
%TO.N,/SERVO_GND*%
X207010000Y-108750000D03*
%TO.P,J4,20,20*%
%TO.N,GNDA*%
X209850000Y-60275000D03*
%TO.P,J4,21,21*%
%TO.N,/BridgeDriver0/LC+*%
X209850000Y-63045000D03*
%TO.P,J4,22,22*%
%TO.N,GNDA*%
X209850000Y-65815000D03*
%TO.P,J4,23,23*%
%TO.N,/BridgeDriver1/LC+*%
X209850000Y-68585000D03*
%TO.P,J4,24,24*%
%TO.N,GNDA*%
X209850000Y-71355000D03*
%TO.P,J4,25,25*%
%TO.N,/BridgeDriver2/LC+*%
X209850000Y-74125000D03*
%TO.P,J4,26,26*%
%TO.N,GNDA*%
X209850000Y-76895000D03*
%TO.P,J4,27,27*%
%TO.N,/BridgeDriver3/LC+*%
X209850000Y-79665000D03*
%TO.P,J4,28,28*%
%TO.N,GNDA*%
X209850000Y-82435000D03*
%TO.P,J4,29,29*%
%TO.N,/BridgeDriver4/LC+*%
X209850000Y-85205000D03*
%TO.P,J4,30,30*%
%TO.N,GNDA*%
X209850000Y-87975000D03*
%TO.P,J4,31,31*%
%TO.N,/BridgeDriver5/LC+*%
X209850000Y-90745000D03*
%TO.P,J4,32,32*%
%TO.N,GNDA*%
X209850000Y-93515000D03*
%TO.P,J4,33,33*%
%TO.N,/LoadCell/LC+*%
X209850000Y-96285000D03*
%TO.P,J4,34,34*%
%TO.N,/MCU/LED_2*%
X209850000Y-99055000D03*
%TO.P,J4,35,35*%
%TO.N,/MCU/LED_4*%
X209850000Y-101825000D03*
%TO.P,J4,36,36*%
%TO.N,GNDA*%
X209850000Y-104595000D03*
%TO.P,J4,37,37*%
%TO.N,/SERVO_POWER*%
X209850000Y-107365000D03*
%TD*%
D17*
%TO.P,R49,1*%
%TO.N,GNDA*%
X148863266Y-128905000D03*
%TO.P,R49,2*%
%TO.N,Net-(J14-Pad3)*%
X150863266Y-128905000D03*
%TD*%
D13*
%TO.P,Q4,1,B*%
%TO.N,Net-(Q4-Pad1)*%
X188774667Y-94855019D03*
%TO.P,Q4,2,E*%
%TO.N,5VDC*%
X188774667Y-96755019D03*
%TO.P,Q4,3,C*%
%TO.N,/BridgeDriver3/V_LC*%
X190649667Y-95805019D03*
%TD*%
D17*
%TO.P,R29,1*%
%TO.N,Net-(C17-Pad1)*%
X190405000Y-115570000D03*
%TO.P,R29,2*%
%TO.N,/BridgeDriver5/LC-*%
X192405000Y-115570000D03*
%TD*%
%TO.P,R19,1*%
%TO.N,Net-(C11-Pad1)*%
X191135000Y-87630000D03*
%TO.P,R19,2*%
%TO.N,/BridgeDriver3/LC-*%
X193135000Y-87630000D03*
%TD*%
%TO.P,R24,1*%
%TO.N,Net-(C14-Pad1)*%
X191675000Y-102235000D03*
%TO.P,R24,2*%
%TO.N,/BridgeDriver4/LC-*%
X193675000Y-102235000D03*
%TD*%
D14*
%TO.P,EC13,1*%
%TO.N,Net-(EC13-Pad1)*%
X201930000Y-137795000D03*
%TO.P,EC13,2*%
%TO.N,GNDA*%
X201930000Y-132195000D03*
%TD*%
D20*
%TO.P,JP26,1,A*%
%TO.N,Net-(A1-Pad30)*%
X144780000Y-131445000D03*
D21*
%TO.P,JP26,2,B*%
%TO.N,/MCU/V_USB*%
X144780000Y-132745000D03*
%TD*%
D37*
%TO.P,C19,1*%
%TO.N,Net-(C19-Pad1)*%
X187495000Y-127635000D03*
%TO.P,C19,2*%
%TO.N,GNDA*%
X185420000Y-127635000D03*
%TD*%
D24*
%TO.P,J16,1,Pin_1*%
%TO.N,GNDPWR*%
X127635000Y-99695000D03*
D39*
%TO.P,J16,2,Pin_2*%
X130175000Y-99695000D03*
%TO.P,J16,3,Pin_3*%
X132715000Y-99695000D03*
%TD*%
D17*
%TO.P,R47,1*%
%TO.N,GNDA*%
X148854239Y-123825000D03*
%TO.P,R47,2*%
%TO.N,Net-(J14-Pad1)*%
X150854239Y-123825000D03*
%TD*%
D14*
%TO.P,EC7,1*%
%TO.N,/BridgeDriver3/V_LC*%
X196215000Y-95770000D03*
%TO.P,EC7,2*%
%TO.N,GNDA*%
X196215000Y-90170000D03*
%TD*%
D17*
%TO.P,R12,1*%
%TO.N,Net-(R12-Pad1)*%
X188500000Y-78105000D03*
%TO.P,R12,2*%
%TO.N,/BridgeDriver2/V_LC*%
X190500000Y-78105000D03*
%TD*%
D14*
%TO.P,EC1,1*%
%TO.N,/BridgeDriver0/V_LC*%
X196215000Y-52070000D03*
%TO.P,EC1,2*%
%TO.N,GNDA*%
X196215000Y-46470000D03*
%TD*%
D17*
%TO.P,R9,1*%
%TO.N,Net-(C5-Pad1)*%
X191770000Y-57785000D03*
%TO.P,R9,2*%
%TO.N,/BridgeDriver1/LC-*%
X193770000Y-57785000D03*
%TD*%
D32*
%TO.P,J7,1,Pin_1*%
%TO.N,Net-(J7-Pad1)*%
X175895000Y-72390000D03*
D33*
%TO.P,J7,2,Pin_2*%
%TO.N,Net-(J7-Pad2)*%
X175895000Y-73660000D03*
%TD*%
D40*
%TO.P,D6,1,K*%
%TO.N,GNDPWR*%
X152155000Y-74295000D03*
%TO.P,D6,2,A*%
%TO.N,Net-(D6-Pad2)*%
X150105000Y-74295000D03*
%TD*%
D32*
%TO.P,J10,1,Pin_1*%
%TO.N,Net-(J10-Pad1)*%
X175895000Y-115570000D03*
D33*
%TO.P,J10,2,Pin_2*%
%TO.N,Net-(J10-Pad2)*%
X175895000Y-116840000D03*
%TD*%
D37*
%TO.P,C9,1*%
%TO.N,5VDC*%
X175895000Y-81280000D03*
%TO.P,C9,2*%
%TO.N,GNDA*%
X173820000Y-81280000D03*
%TD*%
D20*
%TO.P,JP28,1,A*%
%TO.N,Net-(A1-Pad27)*%
X134620000Y-132080000D03*
D21*
%TO.P,JP28,2,B*%
%TO.N,5VDC*%
X134620000Y-133380000D03*
%TD*%
D38*
%TO.P,R46,1*%
%TO.N,GNDA*%
X127635000Y-122460000D03*
%TO.P,R46,2*%
%TO.N,Net-(D11-Pad1)*%
X127635000Y-124460000D03*
%TD*%
D26*
%TO.P,R3,1*%
%TO.N,GNDA*%
X190595000Y-46355000D03*
%TO.P,R3,2*%
%TO.N,Net-(R2-Pad1)*%
X188595000Y-46355000D03*
%TD*%
D23*
%TO.P,C11,1*%
%TO.N,Net-(C11-Pad1)*%
X188595000Y-87165000D03*
%TO.P,C11,2*%
%TO.N,Net-(C11-Pad2)*%
X188595000Y-85090000D03*
%TD*%
D17*
%TO.P,R35,1*%
%TO.N,Net-(C20-Pad2)*%
X196215000Y-127635000D03*
%TO.P,R35,2*%
%TO.N,/LoadCell/LC+*%
X198215000Y-127635000D03*
%TD*%
D13*
%TO.P,Q1,1,B*%
%TO.N,Net-(Q1-Pad1)*%
X188625000Y-51120000D03*
%TO.P,Q1,2,E*%
%TO.N,5VDC*%
X188625000Y-53020000D03*
%TO.P,Q1,3,C*%
%TO.N,/BridgeDriver0/V_LC*%
X190500000Y-52070000D03*
%TD*%
D24*
%TO.P,J14,1,Pin_1*%
%TO.N,Net-(J14-Pad1)*%
X154305000Y-128270000D03*
D39*
%TO.P,J14,2,Pin_2*%
%TO.N,Net-(J14-Pad2)*%
X154305000Y-130810000D03*
%TO.P,J14,3,Pin_3*%
%TO.N,Net-(J14-Pad3)*%
X154305000Y-133350000D03*
%TO.P,J14,4,Pin_4*%
%TO.N,Net-(J14-Pad4)*%
X154305000Y-135890000D03*
%TO.P,J14,5,Pin_5*%
%TO.N,Net-(J14-Pad5)*%
X154305000Y-138430000D03*
%TD*%
D43*
%TO.P,A1,1,D1/TX*%
%TO.N,/MCU/TX*%
X142240000Y-113030000D03*
D45*
%TO.P,A1,2,D0/RX*%
%TO.N,/MCU/RX*%
X139700000Y-113030000D03*
%TO.P,A1,3,~{RESET}*%
%TO.N,/MCU/RST*%
X137160000Y-113030000D03*
%TO.P,A1,4,GND*%
%TO.N,GNDA*%
X134620000Y-113030000D03*
%TO.P,A1,5,D2*%
%TO.N,/MCU/SCK*%
X132080000Y-113030000D03*
%TO.P,A1,6,D3*%
%TO.N,/MCU/DT0*%
X129540000Y-113030000D03*
%TO.P,A1,7,D4*%
%TO.N,/MCU/DT1*%
X127000000Y-113030000D03*
%TO.P,A1,8,D5*%
%TO.N,/MCU/DT2*%
X124460000Y-113030000D03*
%TO.P,A1,9,D6*%
%TO.N,/MCU/DT3*%
X121920000Y-113030000D03*
%TO.P,A1,10,D7*%
%TO.N,/MCU/DT4*%
X119380000Y-113030000D03*
%TO.P,A1,11,D8*%
%TO.N,/MCU/DT5*%
X116840000Y-113030000D03*
%TO.P,A1,12,D9*%
%TO.N,/MCU/DT6*%
X114300000Y-113030000D03*
%TO.P,A1,13,D10*%
%TO.N,/MCU/DT7*%
X111760000Y-113030000D03*
%TO.P,A1,14,D11*%
%TO.N,/MCU/LIMIT_SWITCH*%
X109220000Y-113030000D03*
%TO.P,A1,15,D12*%
%TO.N,/MCU/SERVO_PWM_PIN*%
X106680000Y-113030000D03*
%TO.P,A1,16,D13*%
%TO.N,/MCU/SPARE_0*%
X106680000Y-128270000D03*
%TO.P,A1,17,3V3*%
%TO.N,Net-(A1-Pad17)*%
X109220000Y-128270000D03*
%TO.P,A1,18,AREF*%
%TO.N,unconnected-(A1-Pad18)*%
X111760000Y-128270000D03*
%TO.P,A1,19,A0*%
%TO.N,Net-(A1-Pad19)*%
X114300000Y-128270000D03*
%TO.P,A1,20,A1*%
%TO.N,/MCU/OUTPUT_ENABLE*%
X116840000Y-128270000D03*
%TO.P,A1,21,A2*%
%TO.N,Net-(A1-Pad21)*%
X119380000Y-128270000D03*
%TO.P,A1,22,A3*%
%TO.N,Net-(A1-Pad22)*%
X121920000Y-128270000D03*
%TO.P,A1,23,A4*%
%TO.N,Net-(A1-Pad23)*%
X124460000Y-128270000D03*
%TO.P,A1,24,A5*%
%TO.N,/MCU/LED_2*%
X127000000Y-128270000D03*
%TO.P,A1,25,A6*%
%TO.N,/MCU/LED_3*%
X129540000Y-128270000D03*
%TO.P,A1,26,A7*%
%TO.N,/MCU/LED_4*%
X132080000Y-128270000D03*
%TO.P,A1,27,+5V*%
%TO.N,Net-(A1-Pad27)*%
X134620000Y-128270000D03*
%TO.P,A1,28,~{RESET}*%
%TO.N,/MCU/RST*%
X137160000Y-128270000D03*
%TO.P,A1,29,GND*%
%TO.N,GNDA*%
X139700000Y-128270000D03*
%TO.P,A1,30,VIN*%
%TO.N,Net-(A1-Pad30)*%
X142240000Y-128270000D03*
%TD*%
D26*
%TO.P,R8,1*%
%TO.N,GNDA*%
X190595000Y-60325000D03*
%TO.P,R8,2*%
%TO.N,Net-(R7-Pad1)*%
X188595000Y-60325000D03*
%TD*%
D34*
%TO.P,EC22,1*%
%TO.N,3V3DC*%
X110750000Y-98425000D03*
%TO.P,EC22,2*%
%TO.N,GNDPWR*%
X105150000Y-98425000D03*
%TD*%
D40*
%TO.P,D7,1,K*%
%TO.N,GNDPWR*%
X152155000Y-78105000D03*
%TO.P,D7,2,A*%
%TO.N,Net-(D7-Pad2)*%
X150105000Y-78105000D03*
%TD*%
D13*
%TO.P,Q6,1,B*%
%TO.N,Net-(Q6-Pad1)*%
X188927500Y-123510000D03*
%TO.P,Q6,2,E*%
%TO.N,5VDC*%
X188927500Y-125410000D03*
%TO.P,Q6,3,C*%
%TO.N,/BridgeDriver5/V_LC*%
X190802500Y-124460000D03*
%TD*%
D46*
%TO.P,U13,1,GND*%
%TO.N,GNDPWR*%
X114935000Y-104380000D03*
D47*
%TO.P,U13,2,VO*%
%TO.N,3V3DC*%
X121235000Y-106680000D03*
D46*
X114935000Y-106680000D03*
%TO.P,U13,3,VI*%
%TO.N,/Power Distribution/12V_BUS*%
X114935000Y-108980000D03*
%TD*%
D24*
%TO.P,J12,1,Pin_1*%
%TO.N,GNDA*%
X139700000Y-137160000D03*
D39*
%TO.P,J12,2,Pin_2*%
%TO.N,/MCU/V_USB*%
X142240000Y-137160000D03*
%TO.P,J12,3,Pin_3*%
%TO.N,/MCU/RST*%
X144780000Y-137160000D03*
%TO.P,J12,4,Pin_4*%
%TO.N,/MCU/RX*%
X147320000Y-137160000D03*
%TO.P,J12,5,Pin_5*%
%TO.N,/MCU/TX*%
X149860000Y-137160000D03*
%TD*%
D15*
%TO.P,JP29,1,A*%
%TO.N,/SERVO_PWM*%
X162575000Y-122555000D03*
D16*
%TO.P,JP29,2,B*%
%TO.N,/MCU/SERVO_PWM_PIN*%
X161275000Y-122555000D03*
%TD*%
D25*
%TO.P,EC20,1*%
%TO.N,/10V_DC*%
X145580000Y-59310000D03*
%TO.P,EC20,2*%
%TO.N,GNDPWR*%
X151180000Y-59310000D03*
%TD*%
D20*
%TO.P,JP35,1,A*%
%TO.N,/BridgeDriver5/D_OUT*%
X150495000Y-106665000D03*
D21*
%TO.P,JP35,2,B*%
%TO.N,/MCU/DT5*%
X150495000Y-107965000D03*
%TD*%
D26*
%TO.P,R28,1*%
%TO.N,GNDA*%
X190595000Y-118745000D03*
%TO.P,R28,2*%
%TO.N,Net-(R27-Pad1)*%
X188595000Y-118745000D03*
%TD*%
D30*
%TO.P,H1,1*%
%TO.N,N/C*%
X107315000Y-43815000D03*
D31*
X105617944Y-42117944D03*
X107315000Y-41415000D03*
X107315000Y-46215000D03*
X109012056Y-42117944D03*
X105617944Y-45512056D03*
X104915000Y-43815000D03*
X109012056Y-45512056D03*
X109715000Y-43815000D03*
%TD*%
D17*
%TO.P,R48,1*%
%TO.N,GNDA*%
X148866364Y-126365000D03*
%TO.P,R48,2*%
%TO.N,Net-(J14-Pad2)*%
X150866364Y-126365000D03*
%TD*%
D26*
%TO.P,R23,1*%
%TO.N,GNDA*%
X190500000Y-104775000D03*
%TO.P,R23,2*%
%TO.N,Net-(R22-Pad1)*%
X188500000Y-104775000D03*
%TD*%
D17*
%TO.P,R14,1*%
%TO.N,Net-(C8-Pad1)*%
X191135000Y-73025000D03*
%TO.P,R14,2*%
%TO.N,/BridgeDriver2/LC-*%
X193135000Y-73025000D03*
%TD*%
D23*
%TO.P,C8,1*%
%TO.N,Net-(C8-Pad1)*%
X188595000Y-73427500D03*
%TO.P,C8,2*%
%TO.N,Net-(C8-Pad2)*%
X188595000Y-71352500D03*
%TD*%
D37*
%TO.P,C1,1*%
%TO.N,Net-(C1-Pad1)*%
X182647500Y-41275000D03*
%TO.P,C1,2*%
%TO.N,GNDA*%
X180572500Y-41275000D03*
%TD*%
D20*
%TO.P,JP33,1,A*%
%TO.N,/BridgeDriver3/D_OUT*%
X155575000Y-106680000D03*
D21*
%TO.P,JP33,2,B*%
%TO.N,/MCU/DT3*%
X155575000Y-107980000D03*
%TD*%
D17*
%TO.P,R22,1*%
%TO.N,Net-(R22-Pad1)*%
X188500000Y-107315000D03*
%TO.P,R22,2*%
%TO.N,/BridgeDriver4/V_LC*%
X190500000Y-107315000D03*
%TD*%
D48*
%TO.P,EC15,1*%
%TO.N,/SERVO_POWER*%
X114045000Y-88900000D03*
%TO.P,EC15,2*%
%TO.N,GNDPWR*%
X106045000Y-88900000D03*
%TD*%
D22*
%TO.P,D10,1,K*%
%TO.N,Net-(D10-Pad1)*%
X124460000Y-131722992D03*
%TO.P,D10,2,A*%
%TO.N,/MCU/LED_3*%
X124460000Y-133772992D03*
%TD*%
D37*
%TO.P,C15,1*%
%TO.N,5VDC*%
X176530000Y-111125000D03*
%TO.P,C15,2*%
%TO.N,GNDA*%
X174455000Y-111125000D03*
%TD*%
D49*
%TO.P,Cff1,1*%
%TO.N,/Power Distribution/FB*%
X118745000Y-83820000D03*
%TO.P,Cff1,2*%
%TO.N,/SERVO_POWER*%
X118745000Y-85895000D03*
%TD*%
D17*
%TO.P,R25,1*%
%TO.N,Net-(C14-Pad2)*%
X191675000Y-99695000D03*
%TO.P,R25,2*%
%TO.N,/BridgeDriver4/LC+*%
X193675000Y-99695000D03*
%TD*%
D23*
%TO.P,C2,1*%
%TO.N,Net-(C2-Pad1)*%
X189230000Y-43582500D03*
%TO.P,C2,2*%
%TO.N,Net-(C2-Pad2)*%
X189230000Y-41507500D03*
%TD*%
D50*
%TO.P,N3,1,A*%
%TO.N,GNDPWR*%
X104648000Y-108974000D03*
%TO.P,N3,2,C*%
%TO.N,/SERVO_GND*%
X104648000Y-109974000D03*
%TD*%
D17*
%TO.P,R2,1*%
%TO.N,Net-(R2-Pad1)*%
X188595000Y-48895000D03*
%TO.P,R2,2*%
%TO.N,/BridgeDriver0/V_LC*%
X190595000Y-48895000D03*
%TD*%
D51*
%TO.P,J1,1,V-*%
%TO.N,GNDPWR*%
X111410000Y-62020000D03*
D52*
%TO.P,J1,2,V+*%
%TO.N,/Power Distribution/12V_IN*%
X111410000Y-54820000D03*
D53*
%TO.P,J1,S1,S1*%
%TO.N,unconnected-(J1-PadS1)*%
X105410000Y-51670000D03*
%TO.P,J1,S2,S2*%
%TO.N,unconnected-(J1-PadS2)*%
X105410000Y-65170000D03*
%TD*%
D17*
%TO.P,R10,1*%
%TO.N,Net-(C5-Pad2)*%
X191770000Y-55880000D03*
%TO.P,R10,2*%
%TO.N,/BridgeDriver1/LC+*%
X193770000Y-55880000D03*
%TD*%
D23*
%TO.P,C23,1*%
%TO.N,5VDC*%
X131445000Y-133752500D03*
%TO.P,C23,2*%
%TO.N,GNDA*%
X131445000Y-131677500D03*
%TD*%
D17*
%TO.P,R32,1*%
%TO.N,Net-(JP22-Pad1)*%
X193310000Y-135255000D03*
%TO.P,R32,2*%
%TO.N,Net-(EC13-Pad1)*%
X195310000Y-135255000D03*
%TD*%
D37*
%TO.P,C6,1*%
%TO.N,5VDC*%
X176065000Y-66675000D03*
%TO.P,C6,2*%
%TO.N,GNDA*%
X173990000Y-66675000D03*
%TD*%
D13*
%TO.P,Q5,1,B*%
%TO.N,Net-(Q5-Pad1)*%
X188673500Y-109159000D03*
%TO.P,Q5,2,E*%
%TO.N,5VDC*%
X188673500Y-111059000D03*
%TO.P,Q5,3,C*%
%TO.N,/BridgeDriver4/V_LC*%
X190548500Y-110109000D03*
%TD*%
D17*
%TO.P,R17,1*%
%TO.N,Net-(R17-Pad1)*%
X188595000Y-92710000D03*
%TO.P,R17,2*%
%TO.N,/BridgeDriver3/V_LC*%
X190595000Y-92710000D03*
%TD*%
D24*
%TO.P,J20,1,Pin_1*%
%TO.N,5VDC*%
X140970000Y-78105000D03*
%TD*%
D15*
%TO.P,JP39,1,A*%
%TO.N,SCK*%
X151780000Y-118745000D03*
D16*
%TO.P,JP39,2,B*%
%TO.N,/MCU/SCK*%
X150480000Y-118745000D03*
%TD*%
D54*
%TO.P,U11,1,VIN*%
%TO.N,/Power Distribution/12V_BUS*%
X122815000Y-71530000D03*
%TO.P,U11,2,OUT*%
%TO.N,/Power Distribution/6VDC*%
X122815000Y-73230000D03*
%TO.P,U11,3,GND*%
%TO.N,GNDPWR*%
X122815000Y-74930000D03*
D55*
X131965000Y-74930000D03*
D54*
%TO.P,U11,4,FB*%
%TO.N,/Power Distribution/FB*%
X122815000Y-76630000D03*
%TO.P,U11,5,~{ON}/OFF*%
%TO.N,GNDPWR*%
X122815000Y-78330000D03*
%TD*%
D13*
%TO.P,Q7,1,B*%
%TO.N,Net-(JP23-Pad2)*%
X193372500Y-137480000D03*
%TO.P,Q7,2,E*%
%TO.N,5VDC*%
X193372500Y-139380000D03*
%TO.P,Q7,3,C*%
%TO.N,Net-(EC13-Pad1)*%
X195247500Y-138430000D03*
%TD*%
D20*
%TO.P,JP34,1,A*%
%TO.N,/BridgeDriver4/D_OUT*%
X153035000Y-106665000D03*
D21*
%TO.P,JP34,2,B*%
%TO.N,/MCU/DT4*%
X153035000Y-107965000D03*
%TD*%
D24*
%TO.P,J15,1,Pin_1*%
%TO.N,Net-(J15-Pad1)*%
X167005000Y-138425000D03*
D39*
%TO.P,J15,2,Pin_2*%
%TO.N,Net-(J15-Pad2)*%
X167005000Y-135885000D03*
%TO.P,J15,3,Pin_3*%
%TO.N,Net-(J15-Pad3)*%
X167005000Y-133345000D03*
%TO.P,J15,4,Pin_4*%
%TO.N,Net-(J15-Pad4)*%
X167005000Y-130805000D03*
%TO.P,J15,5,Pin_5*%
%TO.N,Net-(J15-Pad5)*%
X167005000Y-128265000D03*
%TD*%
D38*
%TO.P,R36,1*%
%TO.N,5VDC*%
X181610000Y-133350000D03*
%TO.P,R36,2*%
%TO.N,Net-(JP25-Pad2)*%
X181610000Y-135350000D03*
%TD*%
D23*
%TO.P,C14,1*%
%TO.N,Net-(C14-Pad1)*%
X189230000Y-102002500D03*
%TO.P,C14,2*%
%TO.N,Net-(C14-Pad2)*%
X189230000Y-99927500D03*
%TD*%
D37*
%TO.P,C18,1*%
%TO.N,5VDC*%
X176530000Y-125095000D03*
%TO.P,C18,2*%
%TO.N,GNDA*%
X174455000Y-125095000D03*
%TD*%
D20*
%TO.P,JP37,1,A*%
%TO.N,/MCU/DATA_7*%
X145415000Y-106665000D03*
D21*
%TO.P,JP37,2,B*%
%TO.N,/MCU/DT7*%
X145415000Y-107965000D03*
%TD*%
D22*
%TO.P,D1,1,K*%
%TO.N,Net-(D1-Pad1)*%
X138430000Y-131445000D03*
%TO.P,D1,2,A*%
%TO.N,/MCU/SPARE_0*%
X138430000Y-133495000D03*
%TD*%
D32*
%TO.P,J11,1,Pin_1*%
%TO.N,Net-(J11-Pad1)*%
X180975000Y-128905000D03*
D33*
%TO.P,J11,2,Pin_2*%
%TO.N,Net-(J11-Pad2)*%
X180975000Y-130175000D03*
%TD*%
D17*
%TO.P,R27,1*%
%TO.N,Net-(R27-Pad1)*%
X188595000Y-121285000D03*
%TO.P,R27,2*%
%TO.N,/BridgeDriver5/V_LC*%
X190595000Y-121285000D03*
%TD*%
D38*
%TO.P,R6,1*%
%TO.N,5VDC*%
X175895000Y-47625000D03*
%TO.P,R6,2*%
%TO.N,Net-(JP4-Pad2)*%
X175895000Y-49625000D03*
%TD*%
D37*
%TO.P,C13,1*%
%TO.N,Net-(C13-Pad1)*%
X182415000Y-99695000D03*
%TO.P,C13,2*%
%TO.N,GNDA*%
X180340000Y-99695000D03*
%TD*%
D40*
%TO.P,D5,1,K*%
%TO.N,GNDPWR*%
X152155000Y-81915000D03*
%TO.P,D5,2,A*%
%TO.N,Net-(D5-Pad2)*%
X150105000Y-81915000D03*
%TD*%
D26*
%TO.P,R42,1*%
%TO.N,Net-(D6-Pad2)*%
X147955000Y-74295000D03*
%TO.P,R42,2*%
%TO.N,/10V_DC*%
X145955000Y-74295000D03*
%TD*%
D38*
%TO.P,R45,1*%
%TO.N,GNDA*%
X124460000Y-122460000D03*
%TO.P,R45,2*%
%TO.N,Net-(D10-Pad1)*%
X124460000Y-124460000D03*
%TD*%
D46*
%TO.P,U12,1,GND*%
%TO.N,GNDPWR*%
X123800000Y-99830000D03*
D47*
%TO.P,U12,2,VO*%
%TO.N,5VDC*%
X117500000Y-97530000D03*
D46*
X123800000Y-97530000D03*
%TO.P,U12,3,VI*%
%TO.N,/Power Distribution/12V_BUS*%
X123800000Y-95230000D03*
%TD*%
D17*
%TO.P,R7,1*%
%TO.N,Net-(R7-Pad1)*%
X188595000Y-62865000D03*
%TO.P,R7,2*%
%TO.N,/BridgeDriver1/V_LC*%
X190595000Y-62865000D03*
%TD*%
%TO.P,R5,1*%
%TO.N,Net-(C2-Pad2)*%
X191770000Y-41275000D03*
%TO.P,R5,2*%
%TO.N,/BridgeDriver0/LC+*%
X193770000Y-41275000D03*
%TD*%
D40*
%TO.P,D8,1,K*%
%TO.N,GNDPWR*%
X152294977Y-70522735D03*
%TO.P,D8,2,A*%
%TO.N,Net-(D8-Pad2)*%
X150244977Y-70522735D03*
%TD*%
D37*
%TO.P,C12,1*%
%TO.N,5VDC*%
X176297500Y-96520000D03*
%TO.P,C12,2*%
%TO.N,GNDA*%
X174222500Y-96520000D03*
%TD*%
D23*
%TO.P,C20,1*%
%TO.N,Net-(C20-Pad1)*%
X193040000Y-129710000D03*
%TO.P,C20,2*%
%TO.N,Net-(C20-Pad2)*%
X193040000Y-127635000D03*
%TD*%
D24*
%TO.P,J17,1,Pin_1*%
%TO.N,GNDPWR*%
X132715000Y-95885000D03*
D39*
%TO.P,J17,2,Pin_2*%
X130175000Y-95885000D03*
%TO.P,J17,3,Pin_3*%
X127635000Y-95885000D03*
%TD*%
D37*
%TO.P,C16,1*%
%TO.N,Net-(C16-Pad1)*%
X182012500Y-114173000D03*
%TO.P,C16,2*%
%TO.N,GNDA*%
X179937500Y-114173000D03*
%TD*%
D31*
%TO.P,H3,1*%
%TO.N,N/C*%
X105617944Y-138222056D03*
X109012056Y-134827944D03*
X107315000Y-134125000D03*
X109012056Y-138222056D03*
D30*
X107315000Y-136525000D03*
D31*
X109715000Y-136525000D03*
X107315000Y-138925000D03*
X105617944Y-134827944D03*
X104915000Y-136525000D03*
%TD*%
D14*
%TO.P,EC2,1*%
%TO.N,5VDC*%
X170180000Y-47885000D03*
%TO.P,EC2,2*%
%TO.N,GNDA*%
X170180000Y-42285000D03*
%TD*%
D38*
%TO.P,R44,1*%
%TO.N,GNDA*%
X121285000Y-122460000D03*
%TO.P,R44,2*%
%TO.N,Net-(D9-Pad1)*%
X121285000Y-124460000D03*
%TD*%
D23*
%TO.P,C25,1*%
%TO.N,3V3DC*%
X158115000Y-130810000D03*
%TO.P,C25,2*%
%TO.N,GNDA*%
X158115000Y-128735000D03*
%TD*%
%TO.P,C27,1*%
%TO.N,5VDC*%
X163195000Y-130810000D03*
%TO.P,C27,2*%
%TO.N,GNDA*%
X163195000Y-128735000D03*
%TD*%
D26*
%TO.P,R33,1*%
%TO.N,GNDA*%
X195310000Y-132715000D03*
%TO.P,R33,2*%
%TO.N,Net-(JP22-Pad1)*%
X193310000Y-132715000D03*
%TD*%
D56*
%TO.P,Q8,1,G*%
%TO.N,/Power Distribution/12V_00*%
X124460000Y-53340000D03*
D57*
%TO.P,Q8,2,D*%
%TO.N,/Power Distribution/12V*%
X124460000Y-55880000D03*
%TO.P,Q8,3,S*%
%TO.N,/Power Distribution/12V_BUS*%
X124460000Y-58420000D03*
%TD*%
D17*
%TO.P,R34,1*%
%TO.N,Net-(C20-Pad1)*%
X196215000Y-130175000D03*
%TO.P,R34,2*%
%TO.N,/LoadCell/LC-*%
X198215000Y-130175000D03*
%TD*%
D23*
%TO.P,C22,1*%
%TO.N,3V3DC*%
X116205000Y-133739018D03*
%TO.P,C22,2*%
%TO.N,GNDA*%
X116205000Y-131664018D03*
%TD*%
D14*
%TO.P,EC6,1*%
%TO.N,5VDC*%
X170180000Y-77355000D03*
%TO.P,EC6,2*%
%TO.N,GNDA*%
X170180000Y-71755000D03*
%TD*%
D22*
%TO.P,D11,1,K*%
%TO.N,Net-(D11-Pad1)*%
X127635000Y-131722992D03*
%TO.P,D11,2,A*%
%TO.N,/MCU/LED_4*%
X127635000Y-133772992D03*
%TD*%
D25*
%TO.P,EC18,1*%
%TO.N,/Power Distribution/12V_BUS*%
X127115000Y-90170000D03*
%TO.P,EC18,2*%
%TO.N,GNDPWR*%
X132715000Y-90170000D03*
%TD*%
D38*
%TO.P,R31,1*%
%TO.N,5VDC*%
X175895000Y-120920000D03*
%TO.P,R31,2*%
%TO.N,Net-(JP19-Pad2)*%
X175895000Y-122920000D03*
%TD*%
D20*
%TO.P,JP36,1,A*%
%TO.N,/LoadCell/D_OUT*%
X147955000Y-106665000D03*
D21*
%TO.P,JP36,2,B*%
%TO.N,/MCU/DT6*%
X147955000Y-107965000D03*
%TD*%
D14*
%TO.P,EC14,1*%
%TO.N,5VDC*%
X175260000Y-135515000D03*
%TO.P,EC14,2*%
%TO.N,GNDA*%
X175260000Y-129915000D03*
%TD*%
D23*
%TO.P,C24,1*%
%TO.N,3V3DC*%
X156210000Y-93345000D03*
%TO.P,C24,2*%
%TO.N,GNDA*%
X156210000Y-91270000D03*
%TD*%
D20*
%TO.P,JP27,1,A*%
%TO.N,Net-(A1-Pad17)*%
X112395000Y-132050000D03*
D21*
%TO.P,JP27,2,B*%
%TO.N,3V3DC*%
X112395000Y-133350000D03*
%TD*%
D58*
%TO.P,D4,1,K*%
%TO.N,/Power Distribution/6VDC*%
X120650000Y-66675000D03*
%TO.P,D4,2,A*%
%TO.N,GNDPWR*%
X116650000Y-66675000D03*
%TD*%
D59*
%TO.P,L1,1,1*%
%TO.N,/Power Distribution/6VDC*%
X115440000Y-76200000D03*
%TO.P,L1,2,2*%
%TO.N,/SERVO_POWER*%
X105540000Y-76200000D03*
%TD*%
D14*
%TO.P,EC8,1*%
%TO.N,5VDC*%
X170180000Y-91700000D03*
%TO.P,EC8,2*%
%TO.N,GNDA*%
X170180000Y-86100000D03*
%TD*%
D38*
%TO.P,R16,1*%
%TO.N,5VDC*%
X175895000Y-76740000D03*
%TO.P,R16,2*%
%TO.N,Net-(JP10-Pad2)*%
X175895000Y-78740000D03*
%TD*%
%TO.P,R26,1*%
%TO.N,5VDC*%
X175895000Y-106680000D03*
%TO.P,R26,2*%
%TO.N,Net-(JP16-Pad2)*%
X175895000Y-108680000D03*
%TD*%
D17*
%TO.P,R4,1*%
%TO.N,Net-(C2-Pad1)*%
X191770000Y-43815000D03*
%TO.P,R4,2*%
%TO.N,/BridgeDriver0/LC-*%
X193770000Y-43815000D03*
%TD*%
D24*
%TO.P,J3,1,Pin_1*%
%TO.N,/SERVO_PWM*%
X208280000Y-130175000D03*
D39*
%TO.P,J3,2,Pin_2*%
%TO.N,/SERVO_POWER*%
X210820000Y-130175000D03*
%TO.P,J3,3,Pin_3*%
%TO.N,/SERVO_GND*%
X213360000Y-130175000D03*
%TD*%
D17*
%TO.P,R50,1*%
%TO.N,GNDA*%
X148860000Y-131445000D03*
%TO.P,R50,2*%
%TO.N,Net-(J14-Pad4)*%
X150860000Y-131445000D03*
%TD*%
D37*
%TO.P,C7,1*%
%TO.N,Net-(C7-Pad1)*%
X183282500Y-70485000D03*
%TO.P,C7,2*%
%TO.N,GNDA*%
X181207500Y-70485000D03*
%TD*%
D17*
%TO.P,R38,1*%
%TO.N,GNDPWR*%
X116840000Y-52070000D03*
%TO.P,R38,2*%
%TO.N,/Power Distribution/12V_00*%
X118840000Y-52070000D03*
%TD*%
D24*
%TO.P,J21,1,Pin_1*%
%TO.N,3V3DC*%
X140970000Y-85725000D03*
%TD*%
D17*
%TO.P,RFB1,1*%
%TO.N,/Power Distribution/FB*%
X121825000Y-82550000D03*
%TO.P,RFB1,2*%
%TO.N,GNDPWR*%
X123825000Y-82550000D03*
%TD*%
D37*
%TO.P,C3,1*%
%TO.N,5VDC*%
X176530000Y-52070000D03*
%TO.P,C3,2*%
%TO.N,GNDA*%
X174455000Y-52070000D03*
%TD*%
D17*
%TO.P,R20,1*%
%TO.N,Net-(C11-Pad2)*%
X191135000Y-85090000D03*
%TO.P,R20,2*%
%TO.N,/BridgeDriver3/LC+*%
X193135000Y-85090000D03*
%TD*%
D24*
%TO.P,J22,1,Pin_1*%
%TO.N,/10V_DC*%
X140970000Y-74295000D03*
%TD*%
D26*
%TO.P,R39,1*%
%TO.N,Net-(D3-Pad2)*%
X148145000Y-85725000D03*
%TO.P,R39,2*%
%TO.N,3V3DC*%
X146145000Y-85725000D03*
%TD*%
%TO.P,R40,1*%
%TO.N,Net-(D5-Pad2)*%
X148048711Y-81915000D03*
%TO.P,R40,2*%
%TO.N,/SERVO_POWER*%
X146048711Y-81915000D03*
%TD*%
D60*
%TO.P,F1,1*%
%TO.N,/Power Distribution/12V_IN*%
X115570000Y-44450000D03*
%TO.P,F1,2*%
%TO.N,/Power Distribution/12V*%
X138170000Y-44450000D03*
%TD*%
D61*
%TO.N,/MCU/SPARE_0*%
X130175000Y-139065000D03*
%TO.N,/MCU/RST*%
X139700000Y-120650000D03*
X139700000Y-123825000D03*
%TO.N,SCK*%
X177800000Y-127000000D03*
X177165000Y-118745000D03*
%TO.N,/MCU/DT1*%
X157353000Y-101981000D03*
X155956000Y-99441000D03*
%TO.N,/MCU/DT2*%
X154919005Y-103136100D03*
X154685999Y-99441001D03*
%TO.N,/MCU/DT3*%
X153543000Y-99441000D03*
X153670000Y-102616000D03*
%TO.N,/MCU/DT4*%
X151889089Y-105285911D03*
X152146000Y-99441000D03*
%TO.N,/MCU/DT5*%
X150368000Y-99441000D03*
X150241000Y-103632000D03*
%TO.N,/MCU/DT6*%
X148844000Y-99822000D03*
X148844000Y-103124000D03*
%TO.N,/MCU/DT7*%
X146431000Y-103886000D03*
X145034000Y-103759000D03*
%TO.N,/MCU/SERVO_PWM_PIN*%
X160020000Y-122555000D03*
X154940000Y-125744500D03*
%TO.N,/MCU/SPARE_0*%
X132717797Y-117472203D03*
X173990000Y-112395000D03*
X172085000Y-111760000D03*
X107823000Y-125476000D03*
X203061048Y-98951884D03*
X109855000Y-123825002D03*
X128261583Y-117474999D03*
%TO.N,/MCU/OUTPUT_ENABLE*%
X129540000Y-107315000D03*
X114935000Y-111125000D03*
%TO.N,/MCU/LED_2*%
X174625000Y-113030000D03*
X134109089Y-117599089D03*
X137795000Y-114605994D03*
X203641589Y-99501589D03*
X128907983Y-118099499D03*
X171450000Y-112395000D03*
X140970000Y-114605994D03*
%TO.N,/MCU/LED_3*%
X189459046Y-112757531D03*
X129540000Y-118745000D03*
X134620000Y-118745000D03*
X140970000Y-115405497D03*
X174117637Y-115062637D03*
X137795000Y-115405497D03*
X204271000Y-103179000D03*
X172022029Y-115312041D03*
X200406000Y-107188000D03*
%TO.N,/MCU/LED_4*%
X140970000Y-116205000D03*
X135890000Y-119380000D03*
X171935026Y-116106796D03*
X204411961Y-104010369D03*
X189230000Y-113538000D03*
X130175000Y-119380000D03*
X137795000Y-116205000D03*
X199898000Y-108331000D03*
X174114726Y-115948726D03*
D62*
%TO.N,GNDA*%
X179070000Y-85090000D03*
X196850000Y-132715000D03*
X183515000Y-60325000D03*
X114326720Y-126781318D03*
X170180000Y-68961000D03*
X158115000Y-91440000D03*
X161925000Y-138430000D03*
X198120000Y-88265000D03*
D61*
X122650000Y-122460000D03*
D62*
X173355000Y-128270000D03*
X172720000Y-82550000D03*
X180340000Y-49530000D03*
X191770000Y-89535000D03*
X147955000Y-101600000D03*
X177785100Y-122555000D03*
X187300500Y-75565000D03*
X199899510Y-103240188D03*
D61*
X148854239Y-125095000D03*
D62*
X178435000Y-114389500D03*
X168275000Y-55245000D03*
X173355000Y-123825000D03*
X172720000Y-97790000D03*
X193040000Y-59690000D03*
D61*
X158750000Y-62230000D03*
D62*
X187960000Y-129540000D03*
X191784900Y-133363260D03*
X132715000Y-130175000D03*
X168275000Y-113119500D03*
X177785100Y-107963260D03*
D61*
X159639000Y-65405000D03*
X159639000Y-67818000D03*
D62*
X159385000Y-95250000D03*
X163195000Y-127000000D03*
D61*
X148870204Y-132736554D03*
X158496000Y-68707000D03*
X159639000Y-63119000D03*
D62*
X174625000Y-53975000D03*
X180340000Y-93345000D03*
X173990000Y-109855000D03*
X179705000Y-70485000D03*
X177785100Y-78753260D03*
X173355000Y-64770000D03*
X179070000Y-41275000D03*
X172720000Y-42545000D03*
X157480000Y-127635000D03*
X193040000Y-75565000D03*
X187325000Y-46990000D03*
X180340000Y-64135000D03*
X195580000Y-43815000D03*
X200025000Y-130810000D03*
X186055000Y-136525000D03*
X178435000Y-135890000D03*
X172085000Y-84455000D03*
D61*
X148866364Y-127635000D03*
D62*
X187325000Y-90170000D03*
X187300500Y-104775000D03*
X192405000Y-118110000D03*
X192405000Y-46990000D03*
X179070000Y-99695000D03*
X181610000Y-57150000D03*
X187325000Y-118745000D03*
D61*
X148863266Y-130175000D03*
D62*
X198755000Y-115570000D03*
D61*
X127234980Y-121285000D03*
D62*
X119380000Y-122555000D03*
%TO.N,5VDC*%
X154305000Y-80010000D03*
X172355000Y-120920000D03*
X162306000Y-80010000D03*
X120649998Y-115951000D03*
X174625000Y-91440002D03*
X172085000Y-125095000D03*
X148590000Y-80010002D03*
X172460000Y-106305000D03*
X130682375Y-108034412D03*
X172932200Y-118196582D03*
X175260000Y-75706482D03*
X177165000Y-47625000D03*
X172085000Y-77470000D03*
X172720000Y-102870000D03*
X173990000Y-69215000D03*
X177800000Y-67310000D03*
X173355000Y-94615000D03*
X172085000Y-127635000D03*
X173355000Y-47625000D03*
X160147000Y-80137000D03*
X172085000Y-91440000D03*
D63*
%TO.N,3V3DC*%
X127000002Y-107315000D03*
X107950000Y-113919000D03*
X107950000Y-111125000D03*
X128905000Y-106680000D03*
D61*
%TO.N,GNDPWR*%
X105665000Y-93725000D03*
X152155000Y-83430000D03*
X112474510Y-104060490D03*
X125730000Y-74930000D03*
X105150000Y-103765000D03*
X105665000Y-91820000D03*
X105665000Y-95630000D03*
X151325000Y-56955000D03*
X151180000Y-63500000D03*
X115570000Y-53340000D03*
X107185000Y-104645000D03*
X131965000Y-92190000D03*
X123507500Y-80327500D03*
X152155000Y-67555000D03*
X128212500Y-101657500D03*
X152155000Y-80255000D03*
X131965000Y-94730000D03*
X129800000Y-103245000D03*
X109934510Y-104060490D03*
X114865000Y-65475000D03*
X152155000Y-68825000D03*
X115570000Y-55245000D03*
X131965000Y-102350000D03*
X126365000Y-78740000D03*
X151440000Y-45410000D03*
X105150000Y-101225000D03*
X114972500Y-58457500D03*
X151180000Y-61545000D03*
X115570000Y-57150000D03*
X113702500Y-59727500D03*
X152155000Y-75810000D03*
X151325000Y-55050000D03*
X131965000Y-97905000D03*
X152155000Y-72000000D03*
X151440000Y-47315000D03*
X113595000Y-64205000D03*
X151130000Y-65405000D03*
D62*
%TO.N,/SERVO_POWER*%
X105410000Y-80645000D03*
X128905000Y-85725000D03*
X134620000Y-86360000D03*
%TO.N,/10V_DC*%
X144780000Y-68580000D03*
X205105000Y-136525000D03*
X144780000Y-72390000D03*
%TO.N,/BridgeDriver0/V_LC*%
X191770000Y-48895000D03*
%TO.N,/BridgeDriver1/V_LC*%
X190500000Y-64770000D03*
X203835000Y-66675000D03*
%TO.N,/BridgeDriver2/V_LC*%
X203200000Y-73660000D03*
X189865000Y-76835000D03*
%TO.N,/BridgeDriver3/V_LC*%
X190500000Y-91469500D03*
%TO.N,/BridgeDriver4/V_LC*%
X191770000Y-106045000D03*
%TO.N,/BridgeDriver5/V_LC*%
X190500000Y-120044500D03*
%TO.N,Net-(EC13-Pad1)*%
X200774500Y-135890000D03*
X194944463Y-134014358D03*
D61*
%TO.N,/SERVO_PWM*%
X207645000Y-126365000D03*
X208295000Y-128285000D03*
%TO.N,/BridgeDriver3/LC-*%
X205105000Y-78105000D03*
D62*
%TO.N,/LoadCell/V_LC*%
X200025000Y-137795000D03*
D61*
%TO.N,/LoadCell/LC-*%
X200660000Y-111163492D03*
X199771000Y-109728000D03*
X203649855Y-97479900D03*
X200660000Y-118745000D03*
X200660000Y-127000000D03*
%TO.N,Net-(JP25-Pad2)*%
X182741964Y-136663036D03*
%TO.N,/BridgeDriver3/LC+*%
X203093589Y-79268589D03*
%TO.N,/BridgeDriver4/LC+*%
X203835000Y-86995000D03*
%TO.N,/BridgeDriver5/LC+*%
X204470000Y-93345000D03*
%TO.N,/LoadCell/LC+*%
X210820000Y-105664000D03*
X199390000Y-127635000D03*
X204470000Y-109220000D03*
X201295000Y-121285000D03*
%TO.N,Net-(J5-Pad1)*%
X180340000Y-43180000D03*
%TO.N,Net-(J5-Pad2)*%
X181610000Y-46355000D03*
%TO.N,Net-(J6-Pad1)*%
X179705000Y-57150000D03*
%TO.N,Net-(J6-Pad2)*%
X180975000Y-60960000D03*
%TO.N,Net-(J7-Pad1)*%
X180340000Y-71755000D03*
%TO.N,Net-(J7-Pad2)*%
X180975000Y-75565000D03*
%TO.N,Net-(J8-Pad1)*%
X179580911Y-86484089D03*
%TO.N,Net-(J8-Pad2)*%
X180975000Y-90170000D03*
%TO.N,Net-(J9-Pad1)*%
X179953616Y-101351384D03*
%TO.N,Net-(J9-Pad2)*%
X180340000Y-104775000D03*
%TO.N,Net-(J10-Pad1)*%
X179186438Y-115545839D03*
%TO.N,Net-(J10-Pad2)*%
X180340000Y-118745000D03*
%TO.N,Net-(J11-Pad1)*%
X185420000Y-129540000D03*
%TO.N,Net-(J11-Pad2)*%
X185811824Y-130644373D03*
%TO.N,Net-(JP2-Pad1)*%
X183515000Y-46990000D03*
%TO.N,Net-(JP4-Pad2)*%
X180340000Y-50800000D03*
%TO.N,Net-(JP5-Pad1)*%
X184150000Y-64770000D03*
%TO.N,Net-(JP7-Pad2)*%
X180340000Y-66040000D03*
X175895000Y-65405000D03*
%TO.N,Net-(JP8-Pad1)*%
X182880000Y-79375000D03*
%TO.N,Net-(JP10-Pad2)*%
X181610000Y-79375000D03*
%TO.N,Net-(JP11-Pad1)*%
X184150000Y-93980000D03*
%TO.N,Net-(JP13-Pad2)*%
X180340000Y-96520000D03*
%TO.N,Net-(JP14-Pad1)*%
X184150000Y-109220000D03*
%TO.N,Net-(JP16-Pad2)*%
X180340000Y-108587760D03*
%TO.N,Net-(JP17-Pad1)*%
X184150000Y-123190000D03*
%TO.N,Net-(JP19-Pad2)*%
X180975000Y-121920000D03*
%TO.N,Net-(JP21-Pad1)*%
X188595000Y-137160000D03*
%TO.N,Net-(JP22-Pad1)*%
X189230000Y-133350000D03*
D62*
%TO.N,Net-(JP23-Pad2)*%
X192405000Y-138430000D03*
%TO.N,Net-(JP23-Pad1)*%
X189230000Y-138430000D03*
D61*
%TO.N,/BridgeDriver0/D_OUT*%
X159131000Y-101473000D03*
X160655000Y-96520000D03*
%TO.N,/BridgeDriver1/D_OUT*%
X170680020Y-59690000D03*
X158115000Y-103505000D03*
X173990000Y-59690000D03*
X161544000Y-101219000D03*
%TO.N,/BridgeDriver2/D_OUT*%
X170815000Y-80010000D03*
X156845000Y-104140000D03*
X161675437Y-102007625D03*
X177165000Y-76835000D03*
%TO.N,/BridgeDriver3/D_OUT*%
X165735000Y-100330000D03*
X166878000Y-99441000D03*
X154940000Y-105410000D03*
X162941000Y-103251000D03*
%TO.N,/BridgeDriver4/D_OUT*%
X170434000Y-109728000D03*
X174644105Y-107919359D03*
X164876641Y-107919359D03*
X153035000Y-103505000D03*
%TO.N,/BridgeDriver5/D_OUT*%
X163830000Y-118110000D03*
X150619089Y-105285911D03*
X162560000Y-116840000D03*
X157287215Y-113019500D03*
%TO.N,/LoadCell/D_OUT*%
X160020000Y-116840000D03*
X167640000Y-124460000D03*
X149217500Y-104775000D03*
X161290000Y-118109998D03*
X156199412Y-113019500D03*
X170402536Y-127000000D03*
%TO.N,/MCU/LIMIT_SWITCH*%
X134847612Y-120015000D03*
X133516592Y-120004500D03*
X154305000Y-117475000D03*
X151765000Y-116840000D03*
%TO.N,/MCU/TX*%
X142240000Y-123825000D03*
X142240000Y-120650000D03*
%TO.N,/MCU/RX*%
X140970000Y-123825000D03*
X140970000Y-120650000D03*
%TD*%
D64*
%TO.N,/MCU/RST*%
X138430000Y-119380000D02*
X139700000Y-120650000D01*
X138430000Y-114300000D02*
X138430000Y-119380000D01*
X137160000Y-113030000D02*
X138430000Y-114300000D01*
X137160000Y-126365000D02*
X139700000Y-123825000D01*
X137160000Y-128270000D02*
X137160000Y-126365000D01*
%TO.N,/MCU/LED_4*%
X137160000Y-116840000D02*
X137795000Y-116205000D01*
X135890000Y-119380000D02*
X137160000Y-118110000D01*
X137160000Y-118110000D02*
X137160000Y-116840000D01*
%TO.N,/MCU/LED_2*%
X137102184Y-114605994D02*
X137795000Y-114605994D01*
X134109089Y-117599089D02*
X137102184Y-114605994D01*
%TO.N,/MCU/LED_3*%
X137546821Y-115570000D02*
X137795000Y-115570000D01*
X134620000Y-118496821D02*
X137546821Y-115570000D01*
X134620000Y-118745000D02*
X134620000Y-118496821D01*
X137795000Y-115570000D02*
X137795000Y-115405497D01*
%TO.N,/MCU/TX*%
X140345499Y-114347316D02*
X140345499Y-118755499D01*
X142240000Y-113030000D02*
X141662815Y-113030000D01*
%TO.N,/MCU/LED_2*%
X154405873Y-111495979D02*
X151295858Y-114605994D01*
X170550979Y-111495979D02*
X154405873Y-111495979D01*
X171450000Y-112395000D02*
X170550979Y-111495979D01*
%TO.N,/MCU/LED_3*%
X151132059Y-115405497D02*
X140970000Y-115405497D01*
X154592067Y-111945489D02*
X151132059Y-115405497D01*
X164015489Y-111945489D02*
X154592067Y-111945489D01*
X169079520Y-117009520D02*
X164015489Y-111945489D01*
X170967973Y-117009520D02*
X169079520Y-117009520D01*
X171308678Y-115849965D02*
X171308678Y-116668815D01*
X172022029Y-115312041D02*
X171846602Y-115312041D01*
%TO.N,/MCU/LED_4*%
X150968260Y-116205000D02*
X140970000Y-116205000D01*
X154778260Y-112395000D02*
X150968260Y-116205000D01*
X171154167Y-117459030D02*
X168645852Y-117459031D01*
X171758189Y-116283633D02*
X171758189Y-116855008D01*
%TO.N,/MCU/TX*%
X140345499Y-118755499D02*
X142240000Y-120650000D01*
%TO.N,/MCU/LED_4*%
X171935026Y-116106796D02*
X171758189Y-116283633D01*
X171758189Y-116855008D02*
X171154167Y-117459030D01*
%TO.N,/MCU/TX*%
X141662815Y-113030000D02*
X140345499Y-114347316D01*
%TO.N,/MCU/LED_4*%
X163581821Y-112395000D02*
X154778260Y-112395000D01*
X168645852Y-117459031D02*
X163581821Y-112395000D01*
%TO.N,/MCU/LED_3*%
X171846602Y-115312041D02*
X171308678Y-115849965D01*
%TO.N,/MCU/LED_2*%
X151295858Y-114605994D02*
X140970000Y-114605994D01*
%TO.N,/MCU/LED_3*%
X171308678Y-116668815D02*
X170967973Y-117009520D01*
%TO.N,/MCU/LIMIT_SWITCH*%
X146523964Y-121285000D02*
X136117612Y-121285000D01*
X136117612Y-121285000D02*
X134847612Y-120015000D01*
X150968964Y-116840000D02*
X146523964Y-121285000D01*
X151765000Y-116840000D02*
X150968964Y-116840000D01*
%TO.N,/BridgeDriver5/D_OUT*%
X150495000Y-105410000D02*
X150619089Y-105285911D01*
X150495000Y-106665000D02*
X150495000Y-105410000D01*
X150619089Y-104148732D02*
X150619089Y-105285911D01*
X152695000Y-101287500D02*
X152695000Y-102072821D01*
X152695000Y-102072821D02*
X150619089Y-104148732D01*
%TO.N,/MCU/DT4*%
X152626060Y-107965000D02*
X151889089Y-107228029D01*
X151889089Y-107228029D02*
X151889089Y-105285911D01*
X153035000Y-107965000D02*
X152626060Y-107965000D01*
%TO.N,/BridgeDriver3/D_OUT*%
X154294505Y-103425587D02*
X154940000Y-104071082D01*
X153995000Y-101287500D02*
X153995000Y-102057821D01*
X154294505Y-102357326D02*
X154294505Y-103425587D01*
X155575000Y-106045000D02*
X154940000Y-105410000D01*
X153995000Y-102057821D02*
X154294505Y-102357326D01*
X155575000Y-106680000D02*
X155575000Y-106045000D01*
X154940000Y-104071082D02*
X154940000Y-105410000D01*
%TO.N,/BridgeDriver4/D_OUT*%
X153035000Y-102367821D02*
X153035000Y-103505000D01*
X153345000Y-102057821D02*
X153035000Y-102367821D01*
X153345000Y-101287500D02*
X153345000Y-102057821D01*
X153035000Y-106665000D02*
X153035000Y-103505000D01*
%TO.N,/MCU/DT5*%
X149870499Y-104002501D02*
X150241000Y-103632000D01*
X149870499Y-105668678D02*
X149870499Y-104002501D01*
X149420489Y-107299429D02*
X149420489Y-106118688D01*
X150086060Y-107965000D02*
X149420489Y-107299429D01*
X150495000Y-107965000D02*
X150086060Y-107965000D01*
X149420489Y-106118688D02*
X149870499Y-105668678D01*
%TO.N,GNDA*%
X170180000Y-42285000D02*
X170440000Y-42545000D01*
X170440000Y-42545000D02*
X172720000Y-42545000D01*
%TO.N,/MCU/SPARE_0*%
X113855978Y-139065000D02*
X130175000Y-139065000D01*
X113125489Y-135846859D02*
X113125489Y-138334511D01*
X106680000Y-129401370D02*
X113125489Y-135846859D01*
X106680000Y-128270000D02*
X106680000Y-129401370D01*
%TO.N,/MCU/OUTPUT_ENABLE*%
X157002989Y-139604511D02*
X157792500Y-138815000D01*
X131597690Y-139604511D02*
X157002989Y-139604511D01*
X130433678Y-138440499D02*
X131597690Y-139604511D01*
X115665489Y-137646499D02*
X116459489Y-138440499D01*
X115665489Y-136673501D02*
X115665489Y-137646499D01*
X117924511Y-134414479D02*
X115665489Y-136673501D01*
X117924511Y-129354511D02*
X117924511Y-134414479D01*
X116840000Y-128270000D02*
X117924511Y-129354511D01*
D65*
%TO.N,3V3DC*%
X106045002Y-111125000D02*
X107950000Y-111125000D01*
X104775000Y-112395002D02*
X106045002Y-111125000D01*
X108599501Y-123240561D02*
X104775000Y-119416060D01*
X104775000Y-119416060D02*
X104775000Y-112395002D01*
X108599501Y-125618033D02*
X108599501Y-123240561D01*
X108070489Y-126147045D02*
X108599501Y-125618033D01*
X111295480Y-132214420D02*
X108070489Y-128989429D01*
X108070489Y-128989429D02*
X108070489Y-126147045D01*
X111295480Y-132694776D02*
X111295480Y-132214420D01*
D64*
%TO.N,/MCU/SPARE_0*%
X113125489Y-138334511D02*
X113855978Y-139065000D01*
D65*
%TO.N,3V3DC*%
X111950704Y-133350000D02*
X111295480Y-132694776D01*
D64*
%TO.N,/MCU/OUTPUT_ENABLE*%
X116459489Y-138440499D02*
X130433678Y-138440499D01*
D65*
%TO.N,3V3DC*%
X112395000Y-133350000D02*
X111950704Y-133350000D01*
D64*
%TO.N,Net-(A1-Pad22)*%
X119380000Y-130810000D02*
X121920000Y-128270000D01*
X119380000Y-137160000D02*
X119380000Y-130810000D01*
%TO.N,Net-(D9-Pad1)*%
X123044511Y-126219511D02*
X121285000Y-124460000D01*
X123044511Y-129930489D02*
X123044511Y-126219511D01*
%TO.N,Net-(A1-Pad21)*%
X118580001Y-129069999D02*
X118580001Y-135419999D01*
X119380000Y-128270000D02*
X118580001Y-129069999D01*
X118580001Y-135419999D02*
X116840000Y-137160000D01*
%TO.N,Net-(D9-Pad1)*%
X121285000Y-131690000D02*
X123044511Y-129930489D01*
%TO.N,Net-(A1-Pad23)*%
X120260480Y-135500480D02*
X121920000Y-137160000D01*
X120260480Y-133177027D02*
X120260480Y-135500480D01*
X120597027Y-132840480D02*
X120260480Y-133177027D01*
X121722013Y-132840480D02*
X120597027Y-132840480D01*
X124460000Y-130102493D02*
X121722013Y-132840480D01*
X124460000Y-128270000D02*
X124460000Y-130102493D01*
%TO.N,/MCU/LED_2*%
X121458197Y-133740000D02*
X121285000Y-133740000D01*
X122324725Y-132873472D02*
X121458197Y-133740000D01*
X126200001Y-131609999D02*
X124936528Y-132873472D01*
X126200001Y-129069999D02*
X126200001Y-131609999D01*
X124936528Y-132873472D02*
X122324725Y-132873472D01*
X127000000Y-128270000D02*
X126200001Y-129069999D01*
%TO.N,Net-(D10-Pad1)*%
X125584511Y-125584511D02*
X124460000Y-124460000D01*
X125584511Y-130598481D02*
X125584511Y-125584511D01*
X124460000Y-131722992D02*
X125584511Y-130598481D01*
%TO.N,Net-(A1-Pad19)*%
X114409011Y-137160000D02*
X114300000Y-137160000D01*
X117475000Y-134094011D02*
X114409011Y-137160000D01*
X117475000Y-133384025D02*
X117475000Y-134094011D01*
X116917973Y-132826998D02*
X117475000Y-133384025D01*
X115742987Y-132826998D02*
X116917973Y-132826998D01*
X114300000Y-131384011D02*
X115742987Y-132826998D01*
X114300000Y-128270000D02*
X114300000Y-131384011D01*
%TO.N,/MCU/OUTPUT_ENABLE*%
X113471590Y-124901590D02*
X110048410Y-124901590D01*
X116840000Y-128270000D02*
X113471590Y-124901590D01*
%TO.N,GNDA*%
X114715614Y-126781318D02*
X114326720Y-126781318D01*
%TO.N,/MCU/OUTPUT_ENABLE*%
X110048410Y-124901590D02*
X109230499Y-124083680D01*
%TO.N,GNDA*%
X115699511Y-131158529D02*
X115699511Y-127765215D01*
X116205000Y-131664018D02*
X115699511Y-131158529D01*
X115699511Y-127765215D02*
X114715614Y-126781318D01*
%TO.N,/MCU/LED_3*%
X124672712Y-133772992D02*
X124460000Y-133772992D01*
X125572232Y-132873472D02*
X124672712Y-133772992D01*
X128072013Y-132873472D02*
X125572232Y-132873472D01*
X129540000Y-128270000D02*
X129540000Y-131405485D01*
X129540000Y-131405485D02*
X128072013Y-132873472D01*
%TO.N,/MCU/LED_4*%
X129989510Y-136710490D02*
X129540000Y-137160000D01*
X129989510Y-130360490D02*
X129989510Y-136710490D01*
X132080000Y-128270000D02*
X129989510Y-130360490D01*
%TO.N,/MCU/RST*%
X140970000Y-137795000D02*
X141509511Y-138334511D01*
X140970000Y-136768990D02*
X140970000Y-137795000D01*
X142142013Y-132369520D02*
X142629520Y-132857027D01*
X140917027Y-132369520D02*
X142142013Y-132369520D01*
X139410480Y-130520480D02*
X139410480Y-130862973D01*
X141509511Y-138334511D02*
X143605489Y-138334511D01*
X143605489Y-138334511D02*
X144780000Y-137160000D01*
X139410480Y-130862973D02*
X140917027Y-132369520D01*
X142629520Y-132857027D02*
X142629520Y-135109470D01*
X137160000Y-128270000D02*
X139410480Y-130520480D01*
X142629520Y-135109470D02*
X140970000Y-136768990D01*
%TO.N,SCK*%
X174902020Y-74756944D02*
X174902020Y-73382980D01*
X174732020Y-89673380D02*
X174732020Y-79895929D01*
X183873928Y-132715000D02*
X182158439Y-130999511D01*
X174870480Y-64817973D02*
X174870480Y-61642027D01*
X174324901Y-90080499D02*
X178905499Y-90080499D01*
X172207700Y-116717300D02*
X172207700Y-118622300D01*
X174079501Y-47925099D02*
X174079501Y-47828006D01*
X166370000Y-105410000D02*
X167640000Y-104140000D01*
X166253499Y-98759913D02*
X173900499Y-91112913D01*
X175363964Y-104140000D02*
X175998964Y-104775000D01*
X167640000Y-104140000D02*
X168275000Y-104140000D01*
X168275000Y-104140000D02*
X175363964Y-104140000D01*
X174732020Y-79895929D02*
X174370969Y-79534877D01*
X174370969Y-79534877D02*
X174370969Y-75287995D01*
X174370969Y-75287995D02*
X174676982Y-74981982D01*
X173232299Y-118921083D02*
X173408382Y-118745000D01*
X178411982Y-74981982D02*
X178995000Y-75565000D01*
X158895989Y-118875989D02*
X158895989Y-124642049D01*
X166370000Y-105410000D02*
X170063499Y-109103499D01*
X182158439Y-130999511D02*
X179842708Y-130999511D01*
X156225000Y-116205000D02*
X157495000Y-117475000D01*
X173900499Y-90504901D02*
X174324901Y-90080499D01*
X174676982Y-74981982D02*
X178411982Y-74981982D01*
X172751338Y-116173662D02*
X172207700Y-116717300D01*
X174870480Y-61642027D02*
X175552507Y-60960000D01*
X160655000Y-117475000D02*
X168026117Y-117475000D01*
X160815490Y-129101550D02*
X160815489Y-132307278D01*
X175552507Y-60960000D02*
X179070000Y-60960000D01*
X173900499Y-90504901D02*
X174732020Y-89673380D01*
X184075000Y-132715000D02*
X183873928Y-132715000D01*
X166370000Y-105410000D02*
X166370000Y-100081821D01*
X170692678Y-109103499D02*
X172751338Y-111162159D01*
X168026117Y-117475000D02*
X168465129Y-117914012D01*
X172506483Y-118921083D02*
X173232299Y-118921083D01*
X157495000Y-117475000D02*
X161290000Y-117475000D01*
X175998964Y-104775000D02*
X178995000Y-104775000D01*
X168465129Y-117914012D02*
X171499412Y-117914012D01*
X162773211Y-134265000D02*
X163517500Y-134265000D01*
X173408382Y-118745000D02*
X178995000Y-118745000D01*
X179842708Y-130999511D02*
X177800000Y-128956803D01*
X171499412Y-117914012D02*
X172207700Y-118622300D01*
X174902020Y-64849513D02*
X174870480Y-64817973D01*
X151780000Y-118745000D02*
X151780000Y-118095704D01*
X178990978Y-46359022D02*
X178995000Y-46355000D01*
X158895989Y-124642049D02*
X160513053Y-126259113D01*
X160815489Y-132307278D02*
X162773211Y-134265000D01*
X173355000Y-60126547D02*
X173355000Y-48649600D01*
X172751338Y-111162159D02*
X172751338Y-116173662D01*
X160513053Y-126259113D02*
X160513053Y-128799113D01*
X178905499Y-90080499D02*
X178995000Y-90170000D01*
X166253499Y-99965320D02*
X166253499Y-98759913D01*
X174902020Y-73382980D02*
X174902020Y-64849513D01*
X172207700Y-118622300D02*
X172506483Y-118921083D01*
X151780000Y-118095704D02*
X153670704Y-116205000D01*
X173900499Y-91112913D02*
X173900499Y-90504901D01*
X160513053Y-128799113D02*
X160815490Y-129101550D01*
X157495000Y-117475000D02*
X158895989Y-118875989D01*
X173355000Y-48649600D02*
X174079501Y-47925099D01*
X174079501Y-47828006D02*
X175548485Y-46359022D01*
X174870480Y-61642027D02*
X173355000Y-60126547D01*
X166370000Y-100081821D02*
X166253499Y-99965320D01*
X175548485Y-46359022D02*
X178990978Y-46359022D01*
X170063499Y-109103499D02*
X170692678Y-109103499D01*
X174676982Y-74981982D02*
X174902020Y-74756944D01*
X153670704Y-116205000D02*
X156225000Y-116205000D01*
X177800000Y-128956803D02*
X177800000Y-127000000D01*
%TO.N,/MCU/DT1*%
X144311422Y-111455977D02*
X152538763Y-111455977D01*
X127000000Y-113030000D02*
X128196810Y-111833190D01*
X153847294Y-110147446D02*
X155279740Y-110147446D01*
X155295000Y-95562500D02*
X155295000Y-98780000D01*
X135872314Y-111455978D02*
X136321825Y-111006467D01*
X136321825Y-111006467D02*
X143861914Y-111006469D01*
X131428019Y-111455977D02*
X135872314Y-111455978D01*
X155279740Y-110147446D02*
X155465229Y-109961957D01*
X152538763Y-111455977D02*
X153847294Y-110147446D01*
X158673043Y-109961957D02*
X160655000Y-107980000D01*
X157861000Y-101981000D02*
X157353000Y-101981000D01*
X143861914Y-111006469D02*
X144311422Y-111455977D01*
X155295000Y-98780000D02*
X155956000Y-99441000D01*
X161729511Y-105849511D02*
X157861000Y-101981000D01*
X160655000Y-107980000D02*
X161063940Y-107980000D01*
X131050806Y-111833190D02*
X131428019Y-111455977D01*
X161729511Y-107314429D02*
X161729511Y-105849511D01*
X128196810Y-111833190D02*
X131050806Y-111833190D01*
X161063940Y-107980000D02*
X161729511Y-107314429D01*
X155465229Y-109961957D02*
X158673043Y-109961957D01*
%TO.N,/MCU/DT2*%
X130916839Y-111331453D02*
X131241826Y-111006466D01*
X158115000Y-107980000D02*
X157706060Y-107980000D01*
X154645000Y-95562500D02*
X154686000Y-95603500D01*
X135686121Y-111006467D02*
X136135632Y-110556956D01*
X126158547Y-111331453D02*
X130916839Y-111331453D01*
X156824520Y-105014341D02*
X154946279Y-103136100D01*
X152352569Y-111006466D02*
X153661100Y-109697935D01*
X154946279Y-103136100D02*
X154919005Y-103136100D01*
X157706060Y-107980000D02*
X156824520Y-107098460D01*
X155279036Y-109512446D02*
X156582553Y-109512447D01*
X153661100Y-109697935D02*
X155093546Y-109697935D01*
X136135632Y-110556956D02*
X144048114Y-110556957D01*
X124460000Y-113030000D02*
X126158547Y-111331453D01*
X156582553Y-109512447D02*
X158115000Y-107980000D01*
X144048114Y-110556957D02*
X144497623Y-111006466D01*
X144497623Y-111006466D02*
X152352569Y-111006466D01*
X156824520Y-107098460D02*
X156824520Y-105014341D01*
X131241826Y-111006466D02*
X135686121Y-111006467D01*
X154686000Y-95603500D02*
X154685999Y-99441001D01*
X155093546Y-109697935D02*
X155279036Y-109512446D01*
%TO.N,/MCU/DT3*%
X154306575Y-109248425D02*
X155575000Y-107980000D01*
X154063095Y-95630595D02*
X154063095Y-98920905D01*
X149001324Y-110321966D02*
X152401367Y-110321966D01*
X152401367Y-110321966D02*
X153474909Y-109248424D01*
X148766334Y-110556955D02*
X149001324Y-110321966D01*
X155166060Y-107980000D02*
X154210807Y-107024747D01*
X135949441Y-110107445D02*
X144234308Y-110107447D01*
X153474909Y-109248424D02*
X154306575Y-109248425D01*
X144234308Y-110107447D02*
X144683816Y-110556955D01*
X144683816Y-110556955D02*
X148766334Y-110556955D01*
X154210807Y-103977593D02*
X153670000Y-103436786D01*
X130751611Y-110860977D02*
X131055633Y-110556955D01*
X153670000Y-103436786D02*
X153670000Y-102616000D01*
X154210807Y-107024747D02*
X154210807Y-103977593D01*
X124089022Y-110860978D02*
X130751611Y-110860977D01*
X155575000Y-107980000D02*
X155166060Y-107980000D01*
X135499928Y-110556956D02*
X135949441Y-110107445D01*
X121920000Y-113030000D02*
X124089022Y-110860978D01*
X153995000Y-95562500D02*
X154063095Y-95630595D01*
X154063095Y-98920905D02*
X153543000Y-99441000D01*
X131055633Y-110556955D02*
X135499928Y-110556956D01*
%TO.N,/MCU/DT4*%
X145670964Y-110107444D02*
X148580138Y-110107446D01*
X119380000Y-113030000D02*
X121998533Y-110411467D01*
X130869440Y-110107445D02*
X135313734Y-110107446D01*
X145252053Y-109688533D02*
X145670964Y-110107444D01*
X135763241Y-109657939D02*
X144420495Y-109657939D01*
X153345000Y-98242000D02*
X152146000Y-99441000D01*
X151127545Y-109872455D02*
X153035000Y-107965000D01*
X144420495Y-109657939D02*
X144451090Y-109688533D01*
X148580138Y-110107446D02*
X148815131Y-109872455D01*
X153345000Y-95562500D02*
X153345000Y-98242000D01*
X121998533Y-110411467D02*
X130565418Y-110411467D01*
X144451090Y-109688533D02*
X145252053Y-109688533D01*
X130565418Y-110411467D02*
X130869440Y-110107445D01*
X148815131Y-109872455D02*
X151127545Y-109872455D01*
X135313734Y-110107446D02*
X135763241Y-109657939D01*
%TO.N,/MCU/DT5*%
X120014991Y-109855009D02*
X130486173Y-109855008D01*
X130486173Y-109855008D02*
X130683247Y-109657934D01*
X152695000Y-97114000D02*
X150368000Y-99441000D01*
X145438246Y-109239022D02*
X145857157Y-109657933D01*
X145857157Y-109657933D02*
X148393944Y-109657936D01*
X144606689Y-109208429D02*
X144637282Y-109239022D01*
X152695000Y-95562500D02*
X152695000Y-97114000D01*
X150086880Y-107965000D02*
X150495000Y-107965000D01*
X130683247Y-109657934D02*
X135127542Y-109657935D01*
X116840000Y-113030000D02*
X120014991Y-109855009D01*
X135577048Y-109208429D02*
X144606689Y-109208429D01*
X148393944Y-109657936D02*
X150086880Y-107965000D01*
X144637282Y-109239022D02*
X145438246Y-109239022D01*
X135127542Y-109657935D02*
X135577048Y-109208429D01*
%TO.N,/MCU/DT6*%
X115130989Y-112199011D02*
X115767397Y-112199011D01*
X115767397Y-112199011D02*
X116841409Y-111124999D01*
X152045000Y-96367718D02*
X148844000Y-99568718D01*
X135390854Y-108758919D02*
X144792883Y-108758919D01*
X134941349Y-109208424D02*
X135390854Y-108758919D01*
X147546060Y-107965000D02*
X146880489Y-107299429D01*
X119828798Y-109405498D02*
X130299979Y-109405498D01*
X148844000Y-99568718D02*
X148844000Y-99822000D01*
X130497054Y-109208423D02*
X134941349Y-109208424D01*
X152045000Y-95562500D02*
X152045000Y-96367718D01*
X114300000Y-113030000D02*
X115130989Y-112199011D01*
X146880489Y-107299429D02*
X146880489Y-106098394D01*
X144823475Y-108789511D02*
X147130489Y-108789511D01*
X130299979Y-109405498D02*
X130497054Y-109208423D01*
X148844000Y-104134883D02*
X148844000Y-103124000D01*
X118109297Y-111124999D02*
X119828798Y-109405498D01*
X147955000Y-107965000D02*
X147546060Y-107965000D01*
X144792883Y-108758919D02*
X144823475Y-108789511D01*
X146880489Y-106098394D02*
X148844000Y-104134883D01*
X116841409Y-111124999D02*
X118109297Y-111124999D01*
X147130489Y-108789511D02*
X147955000Y-107965000D01*
%TO.N,/MCU/DT7*%
X135204673Y-108309401D02*
X145070599Y-108309401D01*
X119642613Y-108955979D02*
X130113794Y-108955979D01*
X130113794Y-108955979D02*
X130310861Y-108758912D01*
X145006060Y-107965000D02*
X144165489Y-107124429D01*
X113040499Y-111749501D02*
X115581204Y-111749501D01*
X145070599Y-108309401D02*
X145415000Y-107965000D01*
X146431000Y-103985477D02*
X146431000Y-103886000D01*
X134755156Y-108758913D02*
X135204673Y-108309401D01*
X151395000Y-95562500D02*
X151395000Y-96382000D01*
X144165489Y-107124429D02*
X144165489Y-106250988D01*
X151395000Y-96382000D02*
X145034000Y-102743000D01*
X116655216Y-110675488D02*
X117923103Y-110675489D01*
X111760000Y-113030000D02*
X113040499Y-111749501D01*
X145415000Y-107965000D02*
X145006060Y-107965000D01*
X144165489Y-106250988D02*
X146431000Y-103985477D01*
X130310861Y-108758912D02*
X134755156Y-108758913D01*
X115581204Y-111749501D02*
X116655216Y-110675488D01*
X145034000Y-102743000D02*
X145034000Y-103759000D01*
X117923103Y-110675489D02*
X119642613Y-108955979D01*
%TO.N,/MCU/DT0*%
X152724956Y-111905488D02*
X154033487Y-110596957D01*
X160919499Y-102134866D02*
X164269520Y-105484887D01*
X155651420Y-110411468D02*
X160793532Y-110411468D01*
X154033487Y-110596957D02*
X155465932Y-110596956D01*
X160919499Y-99604506D02*
X160919499Y-102134866D01*
X143675720Y-111455979D02*
X144125229Y-111905488D01*
X163603940Y-108010000D02*
X163195000Y-108010000D01*
X131614212Y-111905488D02*
X136058508Y-111905488D01*
X136508018Y-111455978D02*
X143675720Y-111455979D01*
X136058508Y-111905488D02*
X136508018Y-111455978D01*
X129540000Y-113030000D02*
X130489700Y-113030000D01*
X164269520Y-107344420D02*
X163603940Y-108010000D01*
X155465932Y-110596956D02*
X155651420Y-110411468D01*
X156595000Y-95562500D02*
X156595000Y-96705953D01*
X130489700Y-113030000D02*
X131614212Y-111905488D01*
X164269520Y-105484887D02*
X164269520Y-107344420D01*
X160097973Y-98782980D02*
X160919499Y-99604506D01*
X158672027Y-98782980D02*
X160097973Y-98782980D01*
X160793532Y-110411468D02*
X163195000Y-108010000D01*
X144125229Y-111905488D02*
X152724956Y-111905488D01*
X156595000Y-96705953D02*
X158672027Y-98782980D01*
%TO.N,/LIMIT_SWITCH*%
X208134511Y-106445789D02*
X208134511Y-104334511D01*
X162780978Y-134915000D02*
X160365979Y-132500001D01*
X163517500Y-134915000D02*
X162780978Y-134915000D01*
X207475789Y-107104511D02*
X208134511Y-106445789D01*
X208134511Y-104334511D02*
X207010000Y-103210000D01*
X210195499Y-126989501D02*
X211455000Y-125730000D01*
X164931458Y-128677532D02*
X167233491Y-126375499D01*
X173474802Y-126375499D02*
X173693334Y-126594031D01*
X206544211Y-107104511D02*
X207475789Y-107104511D01*
X178058678Y-126375499D02*
X178167209Y-126484030D01*
X178167209Y-126484030D02*
X200292791Y-126484030D01*
X173693334Y-126594031D02*
X177322790Y-126594031D01*
X159730979Y-127454578D02*
X159730978Y-126112742D01*
X163517500Y-134915000D02*
X164205361Y-134915000D01*
X209550000Y-125730000D02*
X205105000Y-121285000D01*
X159730978Y-126112742D02*
X156860000Y-123241764D01*
X160063540Y-127787139D02*
X159730979Y-127454578D01*
X206772320Y-126375499D02*
X207386322Y-126989501D01*
X160365979Y-129287743D02*
X160063542Y-128985306D01*
X205885489Y-107763233D02*
X206544211Y-107104511D01*
X164205361Y-134915000D02*
X164931458Y-134188903D01*
X160365979Y-132500001D02*
X160365979Y-129287743D01*
X164931458Y-134188903D02*
X164931458Y-128677532D01*
X200401322Y-126375499D02*
X206772320Y-126375499D01*
X177541322Y-126375499D02*
X178058678Y-126375499D01*
X156860000Y-123241764D02*
X156860000Y-118745000D01*
X207386322Y-126989501D02*
X210195499Y-126989501D01*
X205885488Y-114955789D02*
X205885489Y-107763233D01*
X205105000Y-116501763D02*
X205885489Y-115721273D01*
X205105000Y-121285000D02*
X205105000Y-116501763D01*
X160063542Y-128985306D02*
X160063540Y-127787139D01*
X200292791Y-126484030D02*
X200401322Y-126375499D01*
X205885489Y-115721273D02*
X205885488Y-114955789D01*
X211455000Y-125730000D02*
X209550000Y-125730000D01*
X177322790Y-126594031D02*
X177541322Y-126375499D01*
X167233491Y-126375499D02*
X173474802Y-126375499D01*
%TO.N,/MCU/SERVO_PWM_PIN*%
X106680000Y-113030000D02*
X106680000Y-114161370D01*
X120349899Y-115226499D02*
X127778572Y-115226499D01*
X155654511Y-129020570D02*
X155654511Y-126459011D01*
X147866247Y-123200499D02*
X148511746Y-122555000D01*
X151750500Y-122555000D02*
X154940000Y-125744500D01*
X127778572Y-115226499D02*
X130664012Y-118111939D01*
X155654511Y-126459011D02*
X154940000Y-125744500D01*
X156659511Y-131832011D02*
X156659511Y-130025571D01*
X130664012Y-118111939D02*
X130664012Y-118279418D01*
X148511746Y-122555000D02*
X151750500Y-122555000D01*
X119925497Y-115650901D02*
X120349899Y-115226499D01*
X157792500Y-132965000D02*
X156659511Y-131832011D01*
X131299012Y-118914419D02*
X131299012Y-119376513D01*
X135122998Y-123200499D02*
X147866247Y-123200499D01*
X156659511Y-130025571D02*
X155654511Y-129020570D01*
X161275000Y-122555000D02*
X160020000Y-122555000D01*
X108169531Y-115650901D02*
X119925497Y-115650901D01*
X106680000Y-114161370D02*
X108169531Y-115650901D01*
X131299012Y-119376513D02*
X135122998Y-123200499D01*
X130664012Y-118279418D02*
X131299012Y-118914419D01*
%TO.N,/MCU/SPARE_0*%
X154219680Y-111046468D02*
X171370764Y-111046468D01*
X171370764Y-111046468D02*
X172084296Y-111760000D01*
X136694211Y-111905489D02*
X143489526Y-111905489D01*
X106680000Y-126619000D02*
X107823000Y-125476000D01*
X135919511Y-114270489D02*
X135919511Y-112680189D01*
X135919511Y-112680189D02*
X136694211Y-111905489D01*
X134765000Y-137160000D02*
X138430000Y-133495000D01*
X132717797Y-117472203D02*
X135919511Y-114270489D01*
X143979037Y-112395000D02*
X152871148Y-112395000D01*
X177809777Y-111749519D02*
X187456063Y-111749519D01*
X187456063Y-111749519D02*
X187522063Y-111683519D01*
X195181027Y-111683520D02*
X196062026Y-112564519D01*
X173990000Y-112395000D02*
X174210480Y-112174520D01*
X196062026Y-112564519D02*
X197637973Y-112564520D01*
X197637973Y-112564520D02*
X198424477Y-111778016D01*
X132080000Y-137160000D02*
X134765000Y-137160000D01*
X203017088Y-101147208D02*
X203017088Y-98995844D01*
X143489526Y-111905489D02*
X143979037Y-112395000D01*
X177384776Y-112174520D02*
X177809777Y-111749519D01*
X109855000Y-123825002D02*
X115570002Y-118110000D01*
X203017088Y-98995844D02*
X203061048Y-98951884D01*
X152871148Y-112395000D02*
X154219680Y-111046468D01*
X198424477Y-111778016D02*
X198424477Y-105739819D01*
X127626582Y-118110000D02*
X128261583Y-117474999D01*
X172084296Y-111760000D02*
X172085000Y-111760000D01*
X106680000Y-128270000D02*
X106680000Y-126619000D01*
X198424477Y-105739819D02*
X203017088Y-101147208D01*
X187522063Y-111683519D02*
X195181027Y-111683520D01*
X174210480Y-112174520D02*
X177384776Y-112174520D01*
X115570002Y-118110000D02*
X127626582Y-118110000D01*
%TO.N,Net-(A1-Pad17)*%
X112395000Y-132050000D02*
X112395000Y-131445000D01*
X112395000Y-131445000D02*
X109220000Y-128270000D01*
%TO.N,/MCU/OUTPUT_ENABLE*%
X129545088Y-107309912D02*
X129540000Y-107315000D01*
X138997588Y-107309912D02*
X129545088Y-107309912D01*
X150745000Y-95562500D02*
X138997588Y-107309912D01*
X109230499Y-123200499D02*
X105555489Y-119525489D01*
X105555489Y-119525489D02*
X105555489Y-112564211D01*
X106214211Y-111905489D02*
X109081569Y-111905489D01*
X109230499Y-124083680D02*
X109230499Y-123200499D01*
X105555489Y-112564211D02*
X106214211Y-111905489D01*
X109862058Y-111125000D02*
X114935000Y-111125000D01*
X109081569Y-111905489D02*
X109862058Y-111125000D01*
%TO.N,/MCU/LED_2*%
X187708256Y-112133030D02*
X187642256Y-112199030D01*
X198873988Y-112276012D02*
X198135969Y-113014031D01*
X203641589Y-101158411D02*
X198873988Y-105926012D01*
X198135969Y-113014031D02*
X195875833Y-113014030D01*
X177995970Y-112199030D02*
X177570969Y-112624031D01*
X175030969Y-112624031D02*
X174625000Y-113030000D01*
X124460000Y-137160000D02*
X121285000Y-133985000D01*
X177570969Y-112624031D02*
X175030969Y-112624031D01*
X187642256Y-112199030D02*
X177995970Y-112199030D01*
X121285000Y-133985000D02*
X121285000Y-133740000D01*
X194994833Y-112133030D02*
X187708256Y-112133030D01*
X126365000Y-120642482D02*
X126365000Y-127635000D01*
X128907983Y-118099499D02*
X126365000Y-120642482D01*
X198873988Y-105926012D02*
X198873988Y-112276012D01*
X203641589Y-99501589D02*
X203641589Y-101158411D01*
X126365000Y-127635000D02*
X127000000Y-128270000D01*
X195875833Y-113014030D02*
X194994833Y-112133030D01*
%TO.N,/MCU/LED_3*%
X179323541Y-112648541D02*
X189350056Y-112648541D01*
X200406000Y-107044000D02*
X200406000Y-107188000D01*
X127000000Y-137160000D02*
X124460000Y-134620000D01*
X189350056Y-112648541D02*
X189459046Y-112757531D01*
X174117637Y-115062637D02*
X174117637Y-114933659D01*
X178308459Y-112648541D02*
X179323541Y-112648541D01*
X129540000Y-128270000D02*
X129540000Y-118745000D01*
X177883459Y-113073541D02*
X178308459Y-112648541D01*
X124460000Y-134620000D02*
X124460000Y-133772992D01*
X175977755Y-113073541D02*
X177883459Y-113073541D01*
X204271000Y-103179000D02*
X200406000Y-107044000D01*
X174117637Y-114933659D02*
X175977755Y-113073541D01*
%TO.N,/MCU/LED_4*%
X174879000Y-114936978D02*
X175070489Y-114745489D01*
X132080000Y-128270000D02*
X130175000Y-126365000D01*
X174114726Y-115948726D02*
X174879000Y-115184452D01*
X204411961Y-104198039D02*
X200279000Y-108331000D01*
X174879000Y-115184452D02*
X174879000Y-114936978D01*
X130175000Y-126365000D02*
X130175000Y-119380000D01*
X178595520Y-113123480D02*
X186275480Y-113123480D01*
X200279000Y-108331000D02*
X199898000Y-108331000D01*
X186309000Y-113157000D02*
X188849000Y-113157000D01*
X127635000Y-135255000D02*
X127635000Y-133772992D01*
X176973511Y-114745489D02*
X178595520Y-113123480D01*
X186275480Y-113123480D02*
X186309000Y-113157000D01*
X204411961Y-104010369D02*
X204411961Y-104198039D01*
X175070489Y-114745489D02*
X176973511Y-114745489D01*
X129540000Y-137160000D02*
X127635000Y-135255000D01*
X188849000Y-113157000D02*
X189230000Y-113538000D01*
%TO.N,Net-(A1-Pad27)*%
X134620000Y-132080000D02*
X134620000Y-128270000D01*
%TO.N,Net-(A1-Pad30)*%
X142240000Y-128270000D02*
X144780000Y-130810000D01*
X144780000Y-130810000D02*
X144780000Y-131445000D01*
%TO.N,Net-(C1-Pad1)*%
X185293928Y-46355000D02*
X185495000Y-46355000D01*
X182647500Y-43708572D02*
X185293928Y-46355000D01*
X182647500Y-41275000D02*
X182647500Y-43708572D01*
%TO.N,GNDA*%
X196850000Y-117475000D02*
X198755000Y-115570000D01*
X179070000Y-41275000D02*
X180572500Y-41275000D01*
X185495000Y-91440000D02*
X186055000Y-91440000D01*
X190595000Y-118745000D02*
X191770000Y-118745000D01*
X148860000Y-131445000D02*
X148860000Y-132726350D01*
X148863266Y-131441734D02*
X148863266Y-130175000D01*
X127635000Y-122460000D02*
X127635000Y-121685020D01*
X173990000Y-110660000D02*
X173990000Y-109855000D01*
X193155000Y-75680000D02*
X193040000Y-75565000D01*
X158115000Y-128270000D02*
X157480000Y-127635000D01*
X170180000Y-86100000D02*
X170440000Y-86100000D01*
X179937500Y-114173000D02*
X178651500Y-114173000D01*
X201930000Y-132195000D02*
X201410000Y-132195000D01*
X190595000Y-60325000D02*
X192405000Y-60325000D01*
X139700000Y-129540000D02*
X139700000Y-128270000D01*
X174222500Y-96520000D02*
X174222500Y-96922500D01*
X148866364Y-126365000D02*
X148854239Y-126352875D01*
X196215000Y-44450000D02*
X195580000Y-43815000D01*
X201410000Y-132195000D02*
X200025000Y-130810000D01*
X178995000Y-79375000D02*
X178406840Y-79375000D01*
X168364500Y-113119500D02*
X168275000Y-113119500D01*
X187575480Y-104087027D02*
X187912027Y-103750480D01*
X159385000Y-97620000D02*
X159385000Y-95250000D01*
X192405000Y-60325000D02*
X193040000Y-59690000D01*
X174455000Y-124925000D02*
X173355000Y-123825000D01*
X185495000Y-106045000D02*
X186030500Y-106045000D01*
X184075000Y-136525000D02*
X186055000Y-136525000D01*
X189475480Y-103750480D02*
X190500000Y-104775000D01*
X196850000Y-117850000D02*
X196850000Y-117475000D01*
X179705000Y-50165000D02*
X180340000Y-49530000D01*
X173820000Y-81280000D02*
X173820000Y-81450000D01*
X185495000Y-120015000D02*
X186055000Y-120015000D01*
X191163160Y-133985000D02*
X191784900Y-133363260D01*
X190500000Y-75565000D02*
X193040000Y-75565000D01*
X157945000Y-91270000D02*
X158115000Y-91440000D01*
X162310000Y-138815000D02*
X161925000Y-138430000D01*
X196215000Y-46470000D02*
X196215000Y-44450000D01*
X190595000Y-46355000D02*
X191770000Y-46355000D01*
X178995000Y-50165000D02*
X179705000Y-50165000D01*
X178995000Y-122555000D02*
X177785100Y-122555000D01*
X119475000Y-122460000D02*
X119380000Y-122555000D01*
X170440000Y-86100000D02*
X172085000Y-84455000D01*
X185368928Y-62230000D02*
X183515000Y-60376072D01*
X148267500Y-101287500D02*
X147955000Y-101600000D01*
X194945000Y-59690000D02*
X193040000Y-59690000D01*
X131445000Y-131445000D02*
X132715000Y-130175000D01*
X196215000Y-90170000D02*
X198120000Y-88265000D01*
X158115000Y-128735000D02*
X158115000Y-128270000D01*
X186030500Y-76835000D02*
X187300500Y-75565000D01*
X173990000Y-66675000D02*
X173990000Y-65405000D01*
X178667500Y-136122500D02*
X178435000Y-135890000D01*
X180340000Y-93345000D02*
X179630000Y-93345000D01*
X179070000Y-99695000D02*
X180340000Y-99695000D01*
X170180000Y-56890000D02*
X168535000Y-55245000D01*
X195310000Y-132715000D02*
X196850000Y-132715000D01*
X170180000Y-71755000D02*
X170180000Y-68961000D01*
X181610000Y-57150000D02*
X181610000Y-56685000D01*
X198499812Y-103240188D02*
X199899510Y-103240188D01*
X179630000Y-93345000D02*
X178995000Y-93980000D01*
X180340000Y-85090000D02*
X179070000Y-85090000D01*
X181207500Y-70485000D02*
X179705000Y-70485000D01*
X122650000Y-122460000D02*
X124460000Y-122460000D01*
X177785100Y-107963260D02*
X178373260Y-107963260D01*
X191135000Y-90170000D02*
X191770000Y-89535000D01*
X163517500Y-138815000D02*
X162310000Y-138815000D01*
X148860000Y-132746758D02*
X148870204Y-132736554D01*
X174222500Y-96922500D02*
X173355000Y-97790000D01*
X170180000Y-114935000D02*
X168364500Y-113119500D01*
X174455000Y-52070000D02*
X174455000Y-53805000D01*
X185570000Y-62230000D02*
X185368928Y-62230000D01*
X121285000Y-122460000D02*
X122650000Y-122460000D01*
X186690000Y-47625000D02*
X187325000Y-46990000D01*
X173355000Y-97790000D02*
X172720000Y-97790000D01*
X174455000Y-111125000D02*
X173990000Y-110660000D01*
X196215000Y-75680000D02*
X193155000Y-75680000D01*
X148866364Y-126365000D02*
X148866364Y-127635000D01*
X170180000Y-100705000D02*
X172720000Y-98165000D01*
X148854239Y-123825000D02*
X148854239Y-125095000D01*
X191770000Y-118745000D02*
X192405000Y-118110000D01*
X196215000Y-60960000D02*
X194945000Y-59690000D01*
X172720000Y-98165000D02*
X172720000Y-97790000D01*
X174455000Y-125095000D02*
X174455000Y-124925000D01*
X181610000Y-56685000D02*
X180805000Y-55880000D01*
X168535000Y-55245000D02*
X168275000Y-55245000D01*
X148866364Y-128901902D02*
X148866364Y-127635000D01*
X178667500Y-137795000D02*
X178667500Y-136122500D01*
X121285000Y-122460000D02*
X119475000Y-122460000D01*
X148863266Y-128905000D02*
X148866364Y-128901902D01*
X180340000Y-64135000D02*
X179705000Y-64135000D01*
X196850000Y-104890000D02*
X198499812Y-103240188D01*
X131445000Y-131677500D02*
X131445000Y-131445000D01*
X148860000Y-133985000D02*
X148860000Y-132746758D01*
X190595000Y-90170000D02*
X191135000Y-90170000D01*
X190575000Y-133985000D02*
X191163160Y-133985000D01*
X150745000Y-101287500D02*
X148267500Y-101287500D01*
X185420000Y-127635000D02*
X187325000Y-129540000D01*
X148860000Y-131445000D02*
X148863266Y-131441734D01*
X187575480Y-104524520D02*
X187575480Y-104087027D01*
X191770000Y-46355000D02*
X192405000Y-46990000D01*
X178651500Y-114173000D02*
X178435000Y-114389500D01*
X186030500Y-106045000D02*
X187300500Y-104775000D01*
D66*
X159893000Y-67564000D02*
X158750000Y-68707000D01*
D64*
X148860000Y-132726350D02*
X148870204Y-132736554D01*
X178406840Y-79375000D02*
X177785100Y-78753260D01*
X173820000Y-81450000D02*
X172720000Y-82550000D01*
X173615000Y-128270000D02*
X173355000Y-128270000D01*
D66*
X158750000Y-68707000D02*
X158496000Y-68707000D01*
D64*
X156210000Y-91270000D02*
X157945000Y-91270000D01*
X127635000Y-121685020D02*
X127234980Y-121285000D01*
X186055000Y-91440000D02*
X187325000Y-90170000D01*
D66*
X159893000Y-63373000D02*
X159893000Y-67564000D01*
D64*
X179705000Y-64135000D02*
X179070000Y-64770000D01*
X185495000Y-106045000D02*
X186055000Y-106045000D01*
X187912027Y-103750480D02*
X189475480Y-103750480D01*
X148863266Y-128905000D02*
X148863266Y-130175000D01*
X178373260Y-107963260D02*
X178995000Y-108585000D01*
X141605000Y-131445000D02*
X139700000Y-129540000D01*
D66*
X158750000Y-62230000D02*
X159893000Y-63373000D01*
D64*
X175260000Y-129915000D02*
X173615000Y-128270000D01*
X185495000Y-76835000D02*
X186030500Y-76835000D01*
X186055000Y-120015000D02*
X187325000Y-118745000D01*
X185495000Y-47625000D02*
X186690000Y-47625000D01*
X174455000Y-53805000D02*
X174625000Y-53975000D01*
X163195000Y-128735000D02*
X163195000Y-127000000D01*
X173990000Y-65405000D02*
X173355000Y-64770000D01*
X186055000Y-106045000D02*
X187575480Y-104524520D01*
X148854239Y-126352875D02*
X148854239Y-125095000D01*
X187325000Y-129540000D02*
X187960000Y-129540000D01*
X183515000Y-60376072D02*
X183515000Y-60325000D01*
%TO.N,Net-(C2-Pad1)*%
X187727500Y-45085000D02*
X189230000Y-43582500D01*
X185495000Y-45085000D02*
X187727500Y-45085000D01*
X191770000Y-43815000D02*
X189462500Y-43815000D01*
X189462500Y-43815000D02*
X189230000Y-43582500D01*
%TO.N,Net-(C2-Pad2)*%
X186922500Y-43815000D02*
X189230000Y-41507500D01*
X191537500Y-41507500D02*
X191770000Y-41275000D01*
X185495000Y-43815000D02*
X186922500Y-43815000D01*
X189230000Y-41507500D02*
X191537500Y-41507500D01*
D65*
%TO.N,5VDC*%
X170180000Y-91700000D02*
X169030480Y-90550480D01*
X162414512Y-120650000D02*
X166874023Y-125109511D01*
X139770489Y-79304511D02*
X140970000Y-78105000D01*
X173225848Y-109523136D02*
X174076992Y-108671992D01*
X185570000Y-67310000D02*
X187972500Y-67310000D01*
X179070000Y-67310000D02*
X177800000Y-67310000D01*
X130824501Y-119573064D02*
X130824501Y-119110967D01*
X139770489Y-81699511D02*
X139770489Y-79304511D01*
X175260000Y-135515000D02*
X172085000Y-132340000D01*
X174076992Y-108671992D02*
X173478051Y-108671992D01*
X175625002Y-91440002D02*
X175895000Y-91710000D01*
X172085000Y-64395000D02*
X170180000Y-62490000D01*
X174392500Y-94615000D02*
X173355000Y-94615000D01*
X190460499Y-139179501D02*
X184189501Y-139179501D01*
X175895000Y-81280000D02*
X175895000Y-80387849D01*
X160020000Y-80010000D02*
X160147000Y-80137000D01*
X190575000Y-139065000D02*
X190460499Y-139179501D01*
X122450489Y-101495489D02*
X122450489Y-98879511D01*
X190890000Y-139380000D02*
X190575000Y-139065000D01*
X176530000Y-111125000D02*
X178995000Y-111125000D01*
X172720000Y-69215000D02*
X173990000Y-69215000D01*
X185495000Y-111125000D02*
X188607500Y-111125000D01*
X160987564Y-128602564D02*
X160987564Y-124441098D01*
X172085000Y-69850000D02*
X172720000Y-69215000D01*
X187977500Y-81915000D02*
X188292500Y-82230000D01*
X147955002Y-80010002D02*
X148590000Y-80010002D01*
X172932200Y-116750496D02*
X173225848Y-116456848D01*
X189067020Y-125549520D02*
X198840480Y-125549520D01*
X155945000Y-100564283D02*
X155581197Y-100200480D01*
X176944520Y-65795480D02*
X176944520Y-63279520D01*
X178995000Y-52705000D02*
X185495000Y-52705000D01*
X179411021Y-110708979D02*
X185078979Y-110708979D01*
X176530000Y-111125000D02*
X174076992Y-108671992D01*
X170180000Y-77355000D02*
X171970000Y-77355000D01*
X130189501Y-118475967D02*
X130189501Y-118308487D01*
X145683501Y-102811543D02*
X145683501Y-104028033D01*
X174625000Y-91440002D02*
X175625002Y-91440002D01*
X170180000Y-122838548D02*
X170180000Y-120535000D01*
X172085000Y-132340000D02*
X172085000Y-127635000D01*
X185495000Y-52705000D02*
X188310000Y-52705000D01*
X185495000Y-125095000D02*
X188612500Y-125095000D01*
X170565000Y-120920000D02*
X172355000Y-120920000D01*
X145683501Y-104028033D02*
X141876643Y-107834891D01*
X180560480Y-137612980D02*
X180560480Y-134399520D01*
X169030480Y-84351671D02*
X172093576Y-81288576D01*
X155945000Y-100564283D02*
X155945000Y-101287500D01*
X176297500Y-96520000D02*
X174392500Y-94615000D01*
X177165000Y-47625000D02*
X175895000Y-47625000D01*
X162306000Y-80010000D02*
X167525000Y-80010000D01*
X188539648Y-96520000D02*
X188774667Y-96755019D01*
X177425000Y-133350000D02*
X181610000Y-133350000D01*
X179644501Y-97169501D02*
X184845499Y-97169501D01*
X173225848Y-109727603D02*
X173225848Y-109523136D01*
X167525000Y-80010000D02*
X170180000Y-77355000D01*
X184075000Y-139065000D02*
X182012500Y-139065000D01*
X129540000Y-90170000D02*
X135175490Y-84534510D01*
X174845480Y-79338329D02*
X174845480Y-77789520D01*
X159370499Y-121905499D02*
X160625998Y-120650000D01*
X133464501Y-131732999D02*
X133464501Y-122213064D01*
X175895000Y-81280000D02*
X176530000Y-81915000D01*
X127832014Y-115951000D02*
X120649998Y-115951000D01*
X184189501Y-139179501D02*
X184075000Y-139065000D01*
X170180000Y-106305000D02*
X174885000Y-106305000D01*
X173225848Y-109727603D02*
X173225848Y-116456848D01*
X117500000Y-97530000D02*
X123800000Y-97530000D01*
X180560480Y-134399520D02*
X181610000Y-133350000D01*
X146050000Y-78105000D02*
X147955002Y-80010002D01*
X176944520Y-63279520D02*
X175895000Y-62230000D01*
X130824501Y-119110967D02*
X130189501Y-118475967D01*
X175895000Y-120920000D02*
X174845480Y-121969520D01*
X160625998Y-120650000D02*
X162414512Y-120650000D01*
X170180000Y-120535000D02*
X170565000Y-120920000D01*
X176297500Y-96520000D02*
X178995000Y-96520000D01*
X174845480Y-123518329D02*
X176422151Y-125095000D01*
X184845499Y-97169501D02*
X185495000Y-96520000D01*
X185495000Y-81915000D02*
X187977500Y-81915000D01*
X130189501Y-118308487D02*
X127832014Y-115951000D01*
X172085000Y-69850000D02*
X172085000Y-64395000D01*
X170440000Y-91440000D02*
X170180000Y-91700000D01*
X176530000Y-81915000D02*
X178995000Y-81915000D01*
X172355000Y-120920000D02*
X175895000Y-120920000D01*
X178995000Y-111125000D02*
X179411021Y-110708979D01*
X129064410Y-108109410D02*
X130607377Y-108109410D01*
X149113033Y-100471501D02*
X148023543Y-100471501D01*
X187972500Y-67310000D02*
X188292500Y-66990000D01*
X174845480Y-77789520D02*
X175895000Y-76740000D01*
X134620000Y-133380000D02*
X131719651Y-133380000D01*
X162794283Y-133615000D02*
X162430480Y-133251197D01*
X172085000Y-125095000D02*
X172085000Y-121190000D01*
X159370499Y-122824033D02*
X159370499Y-121905499D01*
X172085000Y-77470000D02*
X172085000Y-69850000D01*
X126365000Y-105410000D02*
X122450489Y-101495489D01*
X171111059Y-106305000D02*
X170180000Y-106305000D01*
X171329520Y-61340480D02*
X171329520Y-49034520D01*
X170180000Y-47885000D02*
X173095000Y-47885000D01*
X175260000Y-106680000D02*
X175895000Y-106680000D01*
X176530000Y-125095000D02*
X178995000Y-125095000D01*
X173478051Y-108671992D02*
X171111059Y-106305000D01*
X174845480Y-50385480D02*
X176530000Y-52070000D01*
X123800000Y-97530000D02*
X129540000Y-91790000D01*
X154305000Y-80010000D02*
X160020000Y-80010000D01*
X172932200Y-118196582D02*
X172932200Y-116750496D01*
X130607377Y-108109410D02*
X130682375Y-108034412D01*
X170180000Y-62490000D02*
X171329520Y-61340480D01*
X178995000Y-125095000D02*
X185495000Y-125095000D01*
X163195000Y-130810000D02*
X160987564Y-128602564D01*
X193372500Y-139380000D02*
X190890000Y-139380000D01*
X136935490Y-84534510D02*
X139770489Y-81699511D01*
X179070000Y-67310000D02*
X185570000Y-67310000D01*
X126365000Y-105410000D02*
X129064410Y-108109410D01*
X175260000Y-135515000D02*
X177425000Y-133350000D01*
X162430480Y-133251197D02*
X162430480Y-131574520D01*
X198840480Y-125549520D02*
X203105000Y-121285000D01*
X160987564Y-124441098D02*
X159370499Y-122824033D01*
X172085000Y-121190000D02*
X172355000Y-120920000D01*
X175895000Y-76740000D02*
X175260000Y-76105000D01*
X176065000Y-66675000D02*
X176944520Y-65795480D01*
X174845480Y-48674520D02*
X174845480Y-50385480D01*
X177165000Y-52705000D02*
X178995000Y-52705000D01*
X155945000Y-100564283D02*
X156814283Y-99695000D01*
X131445000Y-133752500D02*
X131677500Y-133520000D01*
X176297500Y-96520000D02*
X176297500Y-99292500D01*
X167909037Y-125109511D02*
X170180000Y-122838548D01*
X129540000Y-91790000D02*
X129540000Y-90170000D01*
X188927500Y-125410000D02*
X189067020Y-125549520D01*
X185078979Y-110708979D02*
X185495000Y-111125000D01*
X172085000Y-91440000D02*
X170440000Y-91440000D01*
X175895000Y-80387849D02*
X174845480Y-79338329D01*
X162430480Y-131574520D02*
X163195000Y-130810000D01*
X172093576Y-77478576D02*
X172085000Y-77470000D01*
X176700000Y-67310000D02*
X177800000Y-67310000D01*
X171329520Y-49034520D02*
X170180000Y-47885000D01*
X122450489Y-98879511D02*
X123800000Y-97530000D01*
X171970000Y-77355000D02*
X172085000Y-77470000D01*
X141876643Y-107834891D02*
X130881896Y-107834891D01*
X131677500Y-133520000D02*
X134480000Y-133520000D01*
X130881896Y-107834891D02*
X130682375Y-108034412D01*
X133464501Y-122213064D02*
X130824501Y-119573064D01*
X172093576Y-81288576D02*
X172093576Y-77478576D01*
X173095000Y-47885000D02*
X173355000Y-47625000D01*
X188612500Y-125095000D02*
X188927500Y-125410000D01*
X178995000Y-81915000D02*
X185495000Y-81915000D01*
X178995000Y-96520000D02*
X179644501Y-97169501D01*
X176422151Y-125095000D02*
X176530000Y-125095000D01*
X176297500Y-99292500D02*
X172720000Y-102870000D01*
X169030480Y-90550480D02*
X169030480Y-84351671D01*
X166874023Y-125109511D02*
X167909037Y-125109511D01*
X188607500Y-111125000D02*
X188673500Y-111059000D01*
X131445000Y-133752500D02*
X133464501Y-131732999D01*
X155581197Y-100200480D02*
X149384054Y-100200480D01*
X174885000Y-106305000D02*
X175260000Y-106680000D01*
X182012500Y-139065000D02*
X180742500Y-137795000D01*
X156814283Y-99695000D02*
X159385000Y-99695000D01*
X175260000Y-76105000D02*
X175260000Y-75706482D01*
X175895000Y-47625000D02*
X174845480Y-48674520D01*
X174845480Y-121969520D02*
X174845480Y-123518329D01*
X176065000Y-66675000D02*
X176700000Y-67310000D01*
X180742500Y-137795000D02*
X180560480Y-137612980D01*
X176530000Y-52070000D02*
X177165000Y-52705000D01*
X188310000Y-52705000D02*
X188625000Y-53020000D01*
X148023543Y-100471501D02*
X145683501Y-102811543D01*
X140970000Y-78105000D02*
X146050000Y-78105000D01*
X134480000Y-133520000D02*
X134620000Y-133380000D01*
X135175490Y-84534510D02*
X136935490Y-84534510D01*
X149384054Y-100200480D02*
X149113033Y-100471501D01*
X163517500Y-133615000D02*
X162794283Y-133615000D01*
X185495000Y-96520000D02*
X188539648Y-96520000D01*
D64*
%TO.N,Net-(C4-Pad1)*%
X185368928Y-60960000D02*
X182880000Y-58471072D01*
X182880000Y-58471072D02*
X182880000Y-55880000D01*
X185570000Y-60960000D02*
X185368928Y-60960000D01*
%TO.N,Net-(C5-Pad1)*%
X188595000Y-57785000D02*
X191770000Y-57785000D01*
X185570000Y-59690000D02*
X186690000Y-59690000D01*
X186690000Y-59690000D02*
X188595000Y-57785000D01*
%TO.N,Net-(C5-Pad2)*%
X185885000Y-58420000D02*
X188595000Y-55710000D01*
X188595000Y-55710000D02*
X191600000Y-55710000D01*
X185570000Y-58420000D02*
X185885000Y-58420000D01*
X191600000Y-55710000D02*
X191770000Y-55880000D01*
%TO.N,Net-(C7-Pad1)*%
X185293928Y-75565000D02*
X183282500Y-73553572D01*
X185495000Y-75565000D02*
X185293928Y-75565000D01*
X183282500Y-73553572D02*
X183282500Y-70485000D01*
%TO.N,Net-(C8-Pad1)*%
X187727500Y-74295000D02*
X188595000Y-73427500D01*
X188595000Y-73427500D02*
X190732500Y-73427500D01*
X190732500Y-73427500D02*
X191135000Y-73025000D01*
X185495000Y-74295000D02*
X187727500Y-74295000D01*
%TO.N,Net-(C8-Pad2)*%
X186922500Y-73025000D02*
X188595000Y-71352500D01*
X190267500Y-71352500D02*
X191135000Y-70485000D01*
X185495000Y-73025000D02*
X186922500Y-73025000D01*
X188595000Y-71352500D02*
X190267500Y-71352500D01*
%TO.N,Net-(C10-Pad1)*%
X182415000Y-87291072D02*
X182415000Y-85090000D01*
X185495000Y-90170000D02*
X185293928Y-90170000D01*
X185293928Y-90170000D02*
X182415000Y-87291072D01*
%TO.N,Net-(C11-Pad1)*%
X188595000Y-87165000D02*
X190670000Y-87165000D01*
X185495000Y-88900000D02*
X186860000Y-88900000D01*
X186860000Y-88900000D02*
X188595000Y-87165000D01*
X190670000Y-87165000D02*
X191135000Y-87630000D01*
%TO.N,Net-(C11-Pad2)*%
X185495000Y-87630000D02*
X186055000Y-87630000D01*
X188595000Y-85090000D02*
X191135000Y-85090000D01*
X186055000Y-87630000D02*
X188595000Y-85090000D01*
%TO.N,Net-(C13-Pad1)*%
X185495000Y-104775000D02*
X185293928Y-104775000D01*
X182415000Y-101896072D02*
X182415000Y-99695000D01*
X185293928Y-104775000D02*
X182415000Y-101896072D01*
%TO.N,Net-(C14-Pad1)*%
X185495000Y-103505000D02*
X185699030Y-103300970D01*
X185699030Y-103300970D02*
X187931530Y-103300970D01*
X189230000Y-102002500D02*
X191442500Y-102002500D01*
X191442500Y-102002500D02*
X191675000Y-102235000D01*
X187931530Y-103300970D02*
X189230000Y-102002500D01*
%TO.N,Net-(C14-Pad2)*%
X186922500Y-102235000D02*
X189230000Y-99927500D01*
X191442500Y-99927500D02*
X191675000Y-99695000D01*
X189230000Y-99927500D02*
X191442500Y-99927500D01*
X185495000Y-102235000D02*
X186922500Y-102235000D01*
%TO.N,Net-(C16-Pad1)*%
X185495000Y-118745000D02*
X185293928Y-118745000D01*
X185293928Y-118745000D02*
X182012500Y-115463572D01*
X182012500Y-115463572D02*
X182012500Y-114173000D01*
%TO.N,Net-(C17-Pad1)*%
X187960000Y-116205000D02*
X189770000Y-116205000D01*
X189770000Y-116205000D02*
X190405000Y-115570000D01*
X185495000Y-117475000D02*
X186690000Y-117475000D01*
X186690000Y-117475000D02*
X187960000Y-116205000D01*
%TO.N,Net-(C17-Pad2)*%
X185495000Y-116205000D02*
X185885000Y-116205000D01*
X188030000Y-114200000D02*
X189870000Y-114200000D01*
X185885000Y-116205000D02*
X187960000Y-114130000D01*
X187960000Y-114130000D02*
X188030000Y-114200000D01*
X189870000Y-114200000D02*
X190405000Y-113665000D01*
%TO.N,Net-(C19-Pad1)*%
X190373928Y-132715000D02*
X188684501Y-131025573D01*
X188684501Y-128824501D02*
X187495000Y-127635000D01*
X190575000Y-132715000D02*
X190373928Y-132715000D01*
X188684501Y-131025573D02*
X188684501Y-128824501D01*
%TO.N,Net-(C20-Pad1)*%
X195750000Y-129710000D02*
X196215000Y-130175000D01*
X193040000Y-129710000D02*
X195750000Y-129710000D01*
X190575000Y-131445000D02*
X191305000Y-131445000D01*
X191305000Y-131445000D02*
X193040000Y-129710000D01*
%TO.N,Net-(C20-Pad2)*%
X193040000Y-127635000D02*
X190575000Y-130100000D01*
X193040000Y-127635000D02*
X196215000Y-127635000D01*
X190575000Y-130100000D02*
X190575000Y-130175000D01*
D65*
%TO.N,3V3DC*%
X114983044Y-101979022D02*
X116284511Y-103280489D01*
X131138523Y-118082869D02*
X131138523Y-117915391D01*
X128919501Y-106665499D02*
X128905000Y-106680000D01*
X156730499Y-126601965D02*
X152048534Y-121920000D01*
X139240733Y-101140733D02*
X133565977Y-106815489D01*
X155945000Y-95562500D02*
X155945000Y-93610000D01*
X157792500Y-133615000D02*
X158515717Y-133615000D01*
X158115000Y-130810000D02*
X156730499Y-129425499D01*
X107950000Y-111125000D02*
X109190998Y-111125000D01*
X158879520Y-131574520D02*
X158115000Y-130810000D01*
X131138523Y-117915391D02*
X127975121Y-114751989D01*
X107950000Y-109220000D02*
X107950000Y-106582151D01*
X131773523Y-119179964D02*
X131773523Y-118717871D01*
X139240733Y-101140733D02*
X140970000Y-99411466D01*
X153670000Y-93345000D02*
X156210000Y-93345000D01*
X156730499Y-129425499D02*
X156730499Y-126601965D01*
X121235000Y-106680000D02*
X126365002Y-106680000D01*
X112395000Y-133350000D02*
X115815982Y-133350000D01*
X152048534Y-121920000D02*
X148475686Y-121920000D01*
X131773523Y-118717871D02*
X131138523Y-118082869D01*
X115822260Y-110200978D02*
X117714022Y-110200978D01*
X140970000Y-99411466D02*
X140970000Y-85725000D01*
X109840499Y-110475499D02*
X110504501Y-110475499D01*
X110504501Y-110475499D02*
X115547737Y-110475499D01*
X109205499Y-110475499D02*
X110504501Y-110475499D01*
X147669697Y-122725989D02*
X135319546Y-122725988D01*
X115547737Y-110475499D02*
X115822260Y-110200978D01*
X110750000Y-98425000D02*
X114304022Y-101979022D01*
X146050000Y-85725000D02*
X153670000Y-93345000D01*
X126365002Y-106680000D02*
X127000002Y-107315000D01*
X155945000Y-93610000D02*
X156210000Y-93345000D01*
X135319546Y-122725988D02*
X131773523Y-119179964D01*
X107950000Y-109220000D02*
X109205499Y-110475499D01*
X158515717Y-133615000D02*
X158879520Y-133251197D01*
X116284511Y-103280489D02*
X116284511Y-105330489D01*
X158879520Y-133251197D02*
X158879520Y-131574520D01*
X140970000Y-85725000D02*
X146050000Y-85725000D01*
X116284511Y-105330489D02*
X114935000Y-106680000D01*
X129809033Y-106665499D02*
X128919501Y-106665499D01*
X114304022Y-101979022D02*
X114983044Y-101979022D01*
X117714022Y-110200978D02*
X121235000Y-106680000D01*
X127975121Y-114751989D02*
X108782989Y-114751989D01*
X114300000Y-106680000D02*
X114935000Y-106680000D01*
X133565977Y-106815489D02*
X129959023Y-106815489D01*
X129959023Y-106815489D02*
X129809033Y-106665499D01*
X109190998Y-111125000D02*
X109840499Y-110475499D01*
X113030000Y-105410000D02*
X114300000Y-106680000D01*
X115815982Y-133350000D02*
X116205000Y-133739018D01*
X148475686Y-121920000D02*
X147669697Y-122725989D01*
X109122151Y-105410000D02*
X113030000Y-105410000D01*
X107950000Y-106582151D02*
X109122151Y-105410000D01*
X108782989Y-114751989D02*
X107950000Y-113919000D01*
D66*
%TO.N,/Power Distribution/12V_BUS*%
X137864511Y-81529511D02*
X136844022Y-82550000D01*
X114935000Y-108980000D02*
X115063531Y-108851469D01*
X112530000Y-108980000D02*
X114935000Y-108980000D01*
X127115000Y-91915000D02*
X123800000Y-95230000D01*
X115063531Y-108851469D02*
X116912553Y-108851469D01*
X134620000Y-56770000D02*
X140970000Y-63120000D01*
X117634022Y-102721504D02*
X115542029Y-100629511D01*
X118110000Y-59690000D02*
X123190000Y-59690000D01*
X139700000Y-70485000D02*
X140970000Y-70485000D01*
X136844022Y-82550000D02*
X134735000Y-82550000D01*
X140970000Y-70485000D02*
X146145000Y-70485000D01*
X123190000Y-59690000D02*
X124460000Y-58420000D01*
X137864511Y-72320489D02*
X139700000Y-70485000D01*
X131930000Y-58420000D02*
X134620000Y-55730000D01*
X145025000Y-44885000D02*
X145840000Y-44070000D01*
X138450000Y-55730000D02*
X145025000Y-49155000D01*
X110490000Y-106940000D02*
X112530000Y-108980000D01*
X115542029Y-100629511D02*
X115300489Y-100629511D01*
X116912553Y-108851469D02*
X117634022Y-108130000D01*
X124460000Y-58420000D02*
X124460000Y-69885000D01*
X114935000Y-93980000D02*
X118745000Y-90170000D01*
X134620000Y-55730000D02*
X138450000Y-55730000D01*
X115300489Y-100629511D02*
X114935000Y-100264022D01*
X124460000Y-58420000D02*
X131930000Y-58420000D01*
X118745000Y-90170000D02*
X127115000Y-90170000D01*
X140970000Y-63120000D02*
X140970000Y-70485000D01*
X127115000Y-90170000D02*
X127115000Y-91915000D01*
X134735000Y-82550000D02*
X127115000Y-90170000D01*
X124460000Y-69885000D02*
X122864511Y-71480489D01*
X114935000Y-100264022D02*
X114935000Y-93980000D01*
X137864511Y-72320489D02*
X137864511Y-81529511D01*
X117634022Y-108130000D02*
X117634022Y-102721504D01*
X145025000Y-49155000D02*
X145025000Y-44885000D01*
%TO.N,GNDPWR*%
X131965000Y-102350000D02*
X131965000Y-100445000D01*
X115570000Y-55245000D02*
X115570000Y-53340000D01*
X131965000Y-94730000D02*
X131965000Y-92190000D01*
X113702500Y-59727500D02*
X114972500Y-58457500D01*
X105150000Y-101225000D02*
X105150000Y-103765000D01*
X116650000Y-66675000D02*
X116065000Y-66675000D01*
X152155000Y-66430000D02*
X152155000Y-67555000D01*
X151440000Y-51320000D02*
X151325000Y-51435000D01*
X151325000Y-55050000D02*
X151325000Y-56955000D01*
X151180000Y-59310000D02*
X151180000Y-65355000D01*
X131965000Y-90920000D02*
X132715000Y-90170000D01*
X151325000Y-51435000D02*
X151325000Y-55050000D01*
X131965000Y-97905000D02*
X131965000Y-94730000D01*
X105150000Y-98425000D02*
X105150000Y-101225000D01*
X115570000Y-53340000D02*
X115570000Y-52070000D01*
X128515489Y-78379511D02*
X126725489Y-78379511D01*
X112474510Y-104060490D02*
X109934510Y-104060490D01*
X131965000Y-100445000D02*
X131965000Y-97905000D01*
X131965000Y-74930000D02*
X128515489Y-78379511D01*
X152155000Y-75810000D02*
X152155000Y-80255000D01*
X152155000Y-70485000D02*
X152155000Y-72000000D01*
X131965000Y-92190000D02*
X131965000Y-90920000D01*
X123507500Y-80327500D02*
X121920000Y-78740000D01*
X152155000Y-68825000D02*
X152155000Y-70485000D01*
X151440000Y-47315000D02*
X151440000Y-51320000D01*
X109934510Y-104060490D02*
X107769510Y-104060490D01*
X152155000Y-85717311D02*
X152147311Y-85725000D01*
X126365000Y-78740000D02*
X121920000Y-78740000D01*
X134620000Y-63730000D02*
X134620000Y-72275000D01*
X105150000Y-106680000D02*
X104890000Y-106940000D01*
X115570000Y-55245000D02*
X115570000Y-57150000D01*
X152155000Y-67555000D02*
X152155000Y-68825000D01*
X127000000Y-100445000D02*
X127000000Y-100330000D01*
X114615490Y-104060490D02*
X112474510Y-104060490D01*
X151440000Y-44070000D02*
X151440000Y-45410000D01*
X151180000Y-65355000D02*
X151130000Y-65405000D01*
X107185000Y-104645000D02*
X104890000Y-106940000D01*
X123800000Y-99830000D02*
X126500000Y-99830000D01*
X114972500Y-58457500D02*
X115570000Y-57860000D01*
X105665000Y-95630000D02*
X105665000Y-97910000D01*
X114935000Y-104380000D02*
X114615490Y-104060490D01*
X131965000Y-105410000D02*
X131965000Y-102350000D01*
X134620000Y-72275000D02*
X131965000Y-74930000D01*
X107769510Y-104060490D02*
X107185000Y-104645000D01*
X152155000Y-72000000D02*
X152155000Y-75810000D01*
X105665000Y-88900000D02*
X105665000Y-91820000D01*
X116065000Y-66675000D02*
X114865000Y-65475000D01*
X115570000Y-52070000D02*
X116205000Y-51435000D01*
X114865000Y-65475000D02*
X113595000Y-64205000D01*
X151325000Y-59165000D02*
X151180000Y-59310000D01*
X115570000Y-57860000D02*
X115570000Y-57150000D01*
X128212500Y-101657500D02*
X127000000Y-100445000D01*
X152155000Y-80255000D02*
X152155000Y-83430000D01*
X152155000Y-83430000D02*
X152155000Y-85717311D01*
X151130000Y-65405000D02*
X152155000Y-66430000D01*
X151440000Y-45410000D02*
X151440000Y-47315000D01*
X105665000Y-97910000D02*
X105150000Y-98425000D01*
X131965000Y-105410000D02*
X129800000Y-103245000D01*
X105665000Y-93725000D02*
X105665000Y-95630000D01*
X151325000Y-56955000D02*
X151325000Y-59165000D01*
X129800000Y-103245000D02*
X128212500Y-101657500D01*
X113595000Y-64205000D02*
X111410000Y-62020000D01*
X105665000Y-91820000D02*
X105665000Y-93725000D01*
X111410000Y-62020000D02*
X113702500Y-59727500D01*
X126725489Y-78379511D02*
X126365000Y-78740000D01*
X104890000Y-106940000D02*
X104890000Y-108274480D01*
X123825000Y-80645000D02*
X123507500Y-80327500D01*
X126500000Y-99830000D02*
X127000000Y-100330000D01*
X105150000Y-103765000D02*
X105150000Y-106680000D01*
X131965000Y-74930000D02*
X125730000Y-74930000D01*
X123825000Y-82550000D02*
X123825000Y-80645000D01*
D67*
%TO.N,/SERVO_POWER*%
X210835000Y-129593610D02*
X210835000Y-130175000D01*
X123825000Y-86360000D02*
X128270000Y-86360000D01*
X105540000Y-79880000D02*
X105410000Y-80010000D01*
X120609520Y-87759520D02*
X118745000Y-85895000D01*
X209850000Y-107365000D02*
X213995000Y-111510000D01*
X118745000Y-85895000D02*
X116670000Y-85895000D01*
X105540000Y-76200000D02*
X105540000Y-79880000D01*
X128270000Y-86360000D02*
X128905000Y-85725000D01*
X116670000Y-85895000D02*
X113665000Y-88900000D01*
X122568304Y-87759520D02*
X120609520Y-87759520D01*
X137160000Y-86360000D02*
X140970000Y-82550000D01*
X123825000Y-86360000D02*
X123825000Y-86502824D01*
X140970000Y-82550000D02*
X140970000Y-81915000D01*
X105410000Y-80645000D02*
X105410000Y-80010000D01*
X123825000Y-86502824D02*
X122568304Y-87759520D01*
X113665000Y-88900000D02*
X105410000Y-80645000D01*
X213995000Y-126433610D02*
X210835000Y-129593610D01*
X213995000Y-111510000D02*
X213995000Y-126433610D01*
X140970000Y-81915000D02*
X146048711Y-81915000D01*
X134620000Y-86360000D02*
X137160000Y-86360000D01*
%TO.N,/Power Distribution/FB*%
X120265978Y-76630000D02*
X119815489Y-77080489D01*
X119815489Y-80540489D02*
X121825000Y-82550000D01*
X122815000Y-76630000D02*
X120265978Y-76630000D01*
X118745000Y-81915000D02*
X120015000Y-80645000D01*
X119815489Y-77080489D02*
X119815489Y-80540489D01*
X120015000Y-80645000D02*
X121825000Y-82455000D01*
X121825000Y-86360000D02*
X121825000Y-82550000D01*
X118745000Y-83820000D02*
X118745000Y-81915000D01*
X121825000Y-82455000D02*
X121825000Y-82550000D01*
D64*
%TO.N,Net-(D1-Pad1)*%
X140430000Y-133445000D02*
X141605000Y-133445000D01*
X138430000Y-131445000D02*
X140430000Y-133445000D01*
D66*
%TO.N,/Power Distribution/12V_00*%
X124460000Y-53340000D02*
X120110000Y-53340000D01*
X120110000Y-53340000D02*
X118840000Y-52070000D01*
X118840000Y-52070000D02*
X118840000Y-55460000D01*
X118840000Y-55460000D02*
X118110000Y-56190000D01*
D67*
%TO.N,/Power Distribution/6VDC*%
X118410000Y-73230000D02*
X118410000Y-71455000D01*
X120650000Y-69215000D02*
X120650000Y-66675000D01*
X118410000Y-71455000D02*
X120650000Y-69215000D01*
X118410000Y-73230000D02*
X115440000Y-76200000D01*
X122815000Y-73230000D02*
X118410000Y-73230000D01*
D65*
%TO.N,/10V_DC*%
X147939520Y-44672631D02*
X147939520Y-48021458D01*
X144780000Y-60110000D02*
X144780000Y-68580000D01*
X147775489Y-50964511D02*
X145025000Y-53715000D01*
X215900000Y-53279768D02*
X202805712Y-40185480D01*
X211316855Y-131374511D02*
X212019511Y-130671855D01*
X145580000Y-59310000D02*
X145025000Y-58755000D01*
X142875000Y-74295000D02*
X140970000Y-74295000D01*
X212019511Y-129819123D02*
X215900000Y-125938634D01*
X147939520Y-48021458D02*
X147775489Y-48185489D01*
X205105000Y-136158868D02*
X209889357Y-131374511D01*
X215900000Y-125938634D02*
X215900000Y-53279768D01*
X144780000Y-72390000D02*
X142875000Y-74295000D01*
X205105000Y-136525000D02*
X205105000Y-136158868D01*
X212019511Y-130671855D02*
X212019511Y-129819123D01*
X152426671Y-40185480D02*
X147939520Y-44672631D01*
X145025000Y-58755000D02*
X145025000Y-53715000D01*
X140970000Y-74295000D02*
X146050000Y-74295000D01*
X145580000Y-59310000D02*
X144780000Y-60110000D01*
X202805712Y-40185480D02*
X152426671Y-40185480D01*
X209889357Y-131374511D02*
X211316855Y-131374511D01*
X147775489Y-48185489D02*
X147775489Y-50964511D01*
%TO.N,/BridgeDriver0/V_LC*%
X190500000Y-52070000D02*
X196215000Y-52070000D01*
X190500000Y-52070000D02*
X190500000Y-48990000D01*
X196215000Y-52070000D02*
X200190000Y-52070000D01*
X191770000Y-48895000D02*
X190595000Y-48895000D01*
X190500000Y-48990000D02*
X190595000Y-48895000D01*
X200190000Y-52070000D02*
X207010000Y-58890000D01*
%TO.N,/BridgeDriver1/V_LC*%
X190500000Y-64770000D02*
X194425000Y-64770000D01*
X190500000Y-62960000D02*
X190595000Y-62865000D01*
X196330000Y-66675000D02*
X203835000Y-66675000D01*
X190500000Y-65707500D02*
X190167500Y-66040000D01*
X194425000Y-64770000D02*
X196215000Y-66560000D01*
X190500000Y-64770000D02*
X190500000Y-65707500D01*
X190500000Y-64770000D02*
X190500000Y-62960000D01*
X196215000Y-66560000D02*
X196330000Y-66675000D01*
%TO.N,/BridgeDriver2/V_LC*%
X189865000Y-77470000D02*
X190500000Y-78105000D01*
X190167500Y-78437500D02*
X190500000Y-78105000D01*
X190167500Y-81280000D02*
X196215000Y-81280000D01*
X190167500Y-81280000D02*
X190167500Y-78437500D01*
X189865000Y-76835000D02*
X189865000Y-77470000D01*
X203200000Y-74295000D02*
X203200000Y-73660000D01*
X196215000Y-81280000D02*
X203200000Y-74295000D01*
%TO.N,/BridgeDriver3/V_LC*%
X190500000Y-92615000D02*
X190595000Y-92710000D01*
X190649667Y-92764667D02*
X190595000Y-92710000D01*
X190649667Y-95805019D02*
X190649667Y-92764667D01*
X196179981Y-95805019D02*
X196215000Y-95770000D01*
X205754501Y-78374033D02*
X205754501Y-76765499D01*
X190500000Y-91469500D02*
X190500000Y-92615000D01*
X196215000Y-95770000D02*
X202379510Y-89605490D01*
X205754501Y-76765499D02*
X207010000Y-75510000D01*
X202379510Y-81749024D02*
X205754501Y-78374033D01*
X190649667Y-95805019D02*
X196179981Y-95805019D01*
X202379510Y-89605490D02*
X202379510Y-81749024D01*
%TO.N,/BridgeDriver4/V_LC*%
X206709017Y-84969511D02*
X207486144Y-84969511D01*
X190548500Y-110109000D02*
X190914999Y-110475499D01*
X203649511Y-94165489D02*
X203649511Y-92896193D01*
X190914999Y-110475499D02*
X196835499Y-110475499D01*
X204884012Y-87429516D02*
X204884012Y-86794516D01*
X190548500Y-110109000D02*
X190548500Y-107363500D01*
X207486144Y-84969511D02*
X208159511Y-84296144D01*
X208159511Y-84296144D02*
X208159511Y-82199511D01*
X191770000Y-106045000D02*
X190500000Y-107315000D01*
X203649511Y-92896193D02*
X204284511Y-92261193D01*
X204284511Y-92261193D02*
X204284511Y-88029017D01*
X196835499Y-110475499D02*
X196850000Y-110490000D01*
X208159511Y-82199511D02*
X207010000Y-81050000D01*
X204284511Y-88029017D02*
X204884012Y-87429516D01*
X204884012Y-86794516D02*
X206709017Y-84969511D01*
X191770000Y-106045000D02*
X203649511Y-94165489D01*
X190548500Y-107363500D02*
X190500000Y-107315000D01*
%TO.N,/BridgeDriver5/V_LC*%
X205918523Y-104612997D02*
X205918524Y-103744179D01*
X196850000Y-123450000D02*
X200905499Y-119394501D01*
X190802500Y-124460000D02*
X195840000Y-124460000D01*
X205860489Y-103354967D02*
X205807123Y-103301601D01*
X207204438Y-90791217D02*
X208159511Y-89836144D01*
X205807123Y-104724399D02*
X205918523Y-104612997D01*
X200929033Y-119394501D02*
X201473523Y-118850011D01*
X205860489Y-103686144D02*
X205860489Y-103354967D01*
X190500000Y-120044500D02*
X190500000Y-121190000D01*
X195840000Y-124460000D02*
X196850000Y-123450000D01*
X206388783Y-90791217D02*
X207204438Y-90791217D01*
X190802500Y-121492500D02*
X190595000Y-121285000D01*
X201499264Y-110048257D02*
X205807123Y-105740398D01*
X190802500Y-124460000D02*
X190802500Y-121492500D01*
X208159511Y-87739511D02*
X207010000Y-86590000D01*
X190500000Y-121190000D02*
X190595000Y-121285000D01*
X205807123Y-105740398D02*
X205807123Y-104724399D01*
X201473523Y-118850011D02*
X201473523Y-111458266D01*
X208159511Y-89836144D02*
X208159511Y-87739511D01*
X200905499Y-119394501D02*
X200929033Y-119394501D01*
X205918524Y-103744179D02*
X205860489Y-103686144D01*
X201473523Y-111458266D02*
X201499264Y-111432525D01*
X205807122Y-91372878D02*
X206388783Y-90791217D01*
X205807123Y-103301601D02*
X205807122Y-91372878D01*
X201499264Y-111432525D02*
X201499264Y-110048257D01*
%TO.N,Net-(EC13-Pad1)*%
X195310000Y-135255000D02*
X195310000Y-138367500D01*
X200774500Y-136639500D02*
X200774500Y-135890000D01*
X195310000Y-138367500D02*
X195247500Y-138430000D01*
X194944463Y-134889463D02*
X195310000Y-135255000D01*
X194944463Y-134014358D02*
X194944463Y-134889463D01*
X201930000Y-137795000D02*
X200774500Y-136639500D01*
D66*
%TO.N,/Power Distribution/12V_IN*%
X111410000Y-48610000D02*
X115570000Y-44450000D01*
X111410000Y-54820000D02*
X111410000Y-48610000D01*
%TO.N,/Power Distribution/12V*%
X138170000Y-44450000D02*
X126740000Y-55880000D01*
X126740000Y-55880000D02*
X124460000Y-55880000D01*
D64*
%TO.N,/SERVO_PWM*%
X177355129Y-125925988D02*
X183736948Y-125925988D01*
X204470000Y-124868940D02*
X204470000Y-124460000D01*
X165100000Y-125730000D02*
X165100000Y-125685000D01*
X200106598Y-126034519D02*
X200215129Y-125925988D01*
X165645499Y-125819501D02*
X173554508Y-125819501D01*
X164200980Y-131420925D02*
X164481948Y-131139957D01*
X164481948Y-126348052D02*
X165100000Y-125730000D01*
X203412952Y-125925988D02*
X204470000Y-124868940D01*
X177136597Y-126144520D02*
X177355129Y-125925988D01*
X173554508Y-125819501D02*
X173879527Y-126144520D01*
X183845480Y-126034520D02*
X200106598Y-126034519D01*
X183736948Y-125925988D02*
X183845480Y-126034520D01*
X204470000Y-124460000D02*
X205740704Y-124460000D01*
X165234501Y-125819501D02*
X165645499Y-125819501D01*
X164244520Y-124829520D02*
X165234501Y-125819501D01*
X164200979Y-132281521D02*
X164200980Y-131420925D01*
X173879527Y-126144520D02*
X177136597Y-126144520D01*
X164481948Y-131139957D02*
X164481948Y-126348052D01*
X205740704Y-124460000D02*
X207645000Y-126364296D01*
X208295000Y-128285000D02*
X208295000Y-130175000D01*
X164244520Y-124829520D02*
X162575000Y-123160000D01*
X165010499Y-125819501D02*
X165645499Y-125819501D01*
X200215129Y-125925988D02*
X203412952Y-125925988D01*
X207645000Y-126364296D02*
X207645000Y-126365000D01*
X164481948Y-126348052D02*
X165010499Y-125819501D01*
X162575000Y-123160000D02*
X162575000Y-122555000D01*
X165100000Y-125685000D02*
X164244520Y-124829520D01*
X163517500Y-132965000D02*
X164200979Y-132281521D01*
D68*
%TO.N,/BridgeDriver0/LC-*%
X208109511Y-56362555D02*
X205730978Y-53984022D01*
X205730978Y-52976733D02*
X195869744Y-43115499D01*
X208109511Y-60560489D02*
X208109511Y-56362555D01*
X195869744Y-43115499D02*
X194469501Y-43115499D01*
X207010000Y-61660000D02*
X208109511Y-60560489D01*
X205730978Y-53984022D02*
X205730978Y-52976733D01*
X194469501Y-43115499D02*
X193770000Y-43815000D01*
%TO.N,/BridgeDriver1/LC-*%
X197595000Y-57785000D02*
X207010000Y-67200000D01*
X193770000Y-57785000D02*
X197595000Y-57785000D01*
%TO.N,/BridgeDriver2/LC-*%
X193420000Y-72740000D02*
X207010000Y-72740000D01*
X193135000Y-73025000D02*
X193420000Y-72740000D01*
%TO.N,/BridgeDriver3/LC-*%
X193135000Y-87630000D02*
X195580000Y-87630000D01*
X195580000Y-87630000D02*
X205105000Y-78105000D01*
%TO.N,/BridgeDriver4/LC-*%
X204434501Y-86395499D02*
X207010000Y-83820000D01*
X203599511Y-88078313D02*
X204434501Y-87243323D01*
X204434501Y-87243323D02*
X204434501Y-86395499D01*
X203599511Y-92310489D02*
X203599511Y-88078313D01*
X193675000Y-102235000D02*
X203599511Y-92310489D01*
%TO.N,/BridgeDriver5/LC-*%
X196745343Y-115570000D02*
X200060500Y-112254842D01*
X200060500Y-112254842D02*
X200060499Y-110851318D01*
X205357612Y-105554205D02*
X205357612Y-104538206D01*
X205410979Y-103541161D02*
X205357612Y-103487794D01*
X205410979Y-104484839D02*
X205410979Y-103541161D01*
X205357612Y-104538206D02*
X205410979Y-104484839D01*
X192405000Y-115570000D02*
X196745343Y-115570000D01*
X200060499Y-110851318D02*
X205357612Y-105554205D01*
X205357612Y-103487794D02*
X205357611Y-91012389D01*
X205357611Y-91012389D02*
X207010000Y-89360000D01*
D65*
%TO.N,/LoadCell/V_LC*%
X201195524Y-134294520D02*
X200025000Y-135465044D01*
X209206203Y-127657331D02*
X209184371Y-127635499D01*
X203509520Y-134294520D02*
X201195524Y-134294520D01*
X208025967Y-127635499D02*
X203509520Y-132151946D01*
X200025000Y-135465044D02*
X200025000Y-137795000D01*
X203509520Y-132151946D02*
X203509520Y-134294520D01*
X212939510Y-126195151D02*
X211477331Y-127657331D01*
X208700489Y-110821414D02*
X212939510Y-115060435D01*
X207010000Y-92130000D02*
X208700489Y-93820489D01*
X208700489Y-93820489D02*
X208700489Y-110821414D01*
X211477331Y-127657331D02*
X209206203Y-127657331D01*
X209184371Y-127635499D02*
X208025967Y-127635499D01*
X212939510Y-115060435D02*
X212939510Y-126195151D01*
D68*
%TO.N,/LoadCell/LC-*%
X198215000Y-130175000D02*
X198332824Y-130175000D01*
X199298499Y-109255499D02*
X199771000Y-109728000D01*
X200660000Y-127847824D02*
X200660000Y-127000000D01*
X203649855Y-98027031D02*
X204383601Y-98760777D01*
X203649855Y-97479900D02*
X203649855Y-98027031D01*
X198332824Y-130175000D02*
X200660000Y-127847824D01*
X204383601Y-98760777D02*
X204383601Y-101016748D01*
X200660000Y-118745000D02*
X200660000Y-111163492D01*
X199298499Y-106101850D02*
X199298499Y-109255499D01*
X204383601Y-101016748D02*
X199298499Y-106101850D01*
D64*
%TO.N,Net-(JP25-Pad2)*%
X184075000Y-137795000D02*
X183873928Y-137795000D01*
X183873928Y-137795000D02*
X182741964Y-136663036D01*
X181610000Y-135531072D02*
X182741964Y-136663036D01*
X181610000Y-135350000D02*
X181610000Y-135531072D01*
%TO.N,Net-(D3-Pad2)*%
X148050000Y-85725000D02*
X150097311Y-85725000D01*
%TO.N,/PWM*%
X204029520Y-116941540D02*
X205435978Y-115535081D01*
X203170000Y-122832493D02*
X204029520Y-121972973D01*
X205435978Y-115535081D02*
X205435978Y-107554022D01*
X203170000Y-124460000D02*
X203170000Y-122832493D01*
X204029520Y-121972973D02*
X204029520Y-116941540D01*
X205435978Y-107554022D02*
X207010000Y-105980000D01*
D68*
%TO.N,/BridgeDriver0/LC+*%
X210949511Y-61945489D02*
X210949511Y-58377373D01*
X209850000Y-63045000D02*
X210949511Y-61945489D01*
X206130489Y-53558351D02*
X206130489Y-52811251D01*
X210949511Y-58377373D02*
X206130489Y-53558351D01*
X206130489Y-52811251D02*
X194594238Y-41275000D01*
X194594238Y-41275000D02*
X193770000Y-41275000D01*
%TO.N,/BridgeDriver1/LC+*%
X207465433Y-63330489D02*
X208750489Y-64615545D01*
X208750489Y-67485489D02*
X209850000Y-68585000D01*
X207125545Y-63330489D02*
X207465433Y-63330489D01*
X208750489Y-64615545D02*
X208750489Y-67485489D01*
X193770000Y-55880000D02*
X199675056Y-55880000D01*
X199675056Y-55880000D02*
X207125545Y-63330489D01*
%TO.N,/BridgeDriver2/LC+*%
X206894455Y-71069511D02*
X209850000Y-74025056D01*
X193135000Y-70485000D02*
X193719511Y-71069511D01*
X209850000Y-74025056D02*
X209850000Y-74125000D01*
X193719511Y-71069511D02*
X206894455Y-71069511D01*
%TO.N,/BridgeDriver3/LC+*%
X193135000Y-85090000D02*
X197555006Y-85090000D01*
X197555006Y-85090000D02*
X203093589Y-79551417D01*
X203093589Y-79551417D02*
X203093589Y-79268589D01*
%TO.N,/BridgeDriver4/LC+*%
X203200000Y-87630000D02*
X203835000Y-86995000D01*
X203200000Y-91612138D02*
X203200000Y-87630000D01*
X195117138Y-99695000D02*
X203200000Y-91612138D01*
X193675000Y-99695000D02*
X195117138Y-99695000D01*
%TO.N,/BridgeDriver5/LC+*%
X199660989Y-110685834D02*
X204958101Y-105388723D01*
X205011468Y-103706644D02*
X204958101Y-103653276D01*
X205011468Y-104319357D02*
X205011468Y-103706644D01*
X204958101Y-103653276D02*
X204958101Y-93833101D01*
X198065848Y-113684501D02*
X199660989Y-112089360D01*
X204958101Y-104372724D02*
X205011468Y-104319357D01*
X199660989Y-112089360D02*
X199660989Y-110685834D01*
X192405000Y-113665000D02*
X192424501Y-113684501D01*
X204958101Y-105388723D02*
X204958101Y-104372724D01*
X204958101Y-93833101D02*
X204470000Y-93345000D01*
X192424501Y-113684501D02*
X198065848Y-113684501D01*
%TO.N,/LoadCell/LC+*%
X209850000Y-96285000D02*
X210949511Y-97384511D01*
X201930000Y-120650000D02*
X201295000Y-121285000D01*
X210949511Y-105534489D02*
X210820000Y-105664000D01*
X204470000Y-109220000D02*
X201930000Y-111760000D01*
X210949511Y-97384511D02*
X210949511Y-105534489D01*
X198215000Y-127635000D02*
X199390000Y-127635000D01*
X201930000Y-111760000D02*
X201930000Y-120650000D01*
D64*
%TO.N,Net-(D5-Pad2)*%
X148048711Y-81915000D02*
X150105000Y-81915000D01*
%TO.N,Net-(D6-Pad2)*%
X148050000Y-74295000D02*
X150105000Y-74295000D01*
%TO.N,Net-(J5-Pad1)*%
X178995000Y-43815000D02*
X179705000Y-43815000D01*
X175895000Y-43815000D02*
X178995000Y-43815000D01*
X179705000Y-43815000D02*
X180340000Y-43180000D01*
%TO.N,Net-(J5-Pad2)*%
X175895000Y-45085000D02*
X178995000Y-45085000D01*
X180340000Y-45085000D02*
X181610000Y-46355000D01*
X178995000Y-45085000D02*
X180340000Y-45085000D01*
%TO.N,Net-(J6-Pad1)*%
X179070000Y-57785000D02*
X179705000Y-57150000D01*
X178435000Y-57785000D02*
X179070000Y-58420000D01*
X179070000Y-58420000D02*
X179070000Y-57785000D01*
X175895000Y-57785000D02*
X178435000Y-57785000D01*
%TO.N,Net-(J6-Pad2)*%
X180975000Y-60325000D02*
X180975000Y-60960000D01*
X179070000Y-59690000D02*
X180340000Y-59690000D01*
X175895000Y-59055000D02*
X178435000Y-59055000D01*
X178435000Y-59055000D02*
X179070000Y-59690000D01*
X180340000Y-59690000D02*
X180975000Y-60325000D01*
%TO.N,Net-(J7-Pad1)*%
X178360000Y-72390000D02*
X178995000Y-73025000D01*
X175895000Y-72390000D02*
X178360000Y-72390000D01*
X179070000Y-73025000D02*
X180340000Y-71755000D01*
X178995000Y-73025000D02*
X179070000Y-73025000D01*
%TO.N,Net-(J7-Pad2)*%
X175895000Y-73660000D02*
X178360000Y-73660000D01*
X178995000Y-74295000D02*
X179705000Y-74295000D01*
X179705000Y-74295000D02*
X180975000Y-75565000D01*
X178360000Y-73660000D02*
X178995000Y-74295000D01*
%TO.N,Net-(J8-Pad1)*%
X178995000Y-87630000D02*
X178995000Y-87070000D01*
X178995000Y-87070000D02*
X179580911Y-86484089D01*
X175895000Y-87630000D02*
X178995000Y-87630000D01*
%TO.N,Net-(J8-Pad2)*%
X178995000Y-88900000D02*
X179705000Y-88900000D01*
X179705000Y-88900000D02*
X180975000Y-90170000D01*
X175895000Y-88900000D02*
X178995000Y-88900000D01*
%TO.N,Net-(J9-Pad1)*%
X178995000Y-102235000D02*
X179878616Y-101351384D01*
X178995000Y-102235000D02*
X175895000Y-102235000D01*
X179878616Y-101351384D02*
X179953616Y-101351384D01*
%TO.N,Net-(J9-Pad2)*%
X179443559Y-103505000D02*
X180340000Y-104401441D01*
X180340000Y-104401441D02*
X180340000Y-104775000D01*
X175895000Y-103505000D02*
X178995000Y-103505000D01*
X178995000Y-103505000D02*
X179443559Y-103505000D01*
%TO.N,Net-(J10-Pad1)*%
X178995000Y-115737277D02*
X179186438Y-115545839D01*
X178360000Y-115570000D02*
X178995000Y-116205000D01*
X178995000Y-116205000D02*
X178995000Y-115737277D01*
X175895000Y-115570000D02*
X178360000Y-115570000D01*
%TO.N,Net-(J10-Pad2)*%
X178995000Y-117475000D02*
X179196072Y-117475000D01*
X175895000Y-116840000D02*
X178360000Y-116840000D01*
X180340000Y-118618928D02*
X180340000Y-118745000D01*
X178360000Y-116840000D02*
X178995000Y-117475000D01*
X179196072Y-117475000D02*
X180340000Y-118618928D01*
%TO.N,Net-(J11-Pad1)*%
X184075000Y-130175000D02*
X182880000Y-130175000D01*
X184785000Y-130175000D02*
X185420000Y-129540000D01*
X180975000Y-128905000D02*
X181610000Y-128905000D01*
X182880000Y-130175000D02*
X181610000Y-128905000D01*
X184075000Y-130175000D02*
X184785000Y-130175000D01*
%TO.N,Net-(J11-Pad2)*%
X183239632Y-131445000D02*
X184075000Y-131445000D01*
X180975000Y-130175000D02*
X181969632Y-130175000D01*
X181969632Y-130175000D02*
X183239632Y-131445000D01*
X185011197Y-131445000D02*
X185811824Y-130644373D01*
X184075000Y-131445000D02*
X185011197Y-131445000D01*
D65*
%TO.N,/MCU/V_USB*%
X142240000Y-137160000D02*
X144780000Y-134620000D01*
X144780000Y-134620000D02*
X144780000Y-132745000D01*
D64*
%TO.N,Net-(J14-Pad1)*%
X150854239Y-123825000D02*
X154305000Y-127275761D01*
X155929021Y-134389382D02*
X155929021Y-129930785D01*
X157104639Y-135565000D02*
X155929021Y-134389382D01*
X155929021Y-129930785D02*
X154305000Y-128306764D01*
X157792500Y-135565000D02*
X157104639Y-135565000D01*
X154305000Y-127275761D02*
X154305000Y-128270000D01*
X154305000Y-128306764D02*
X154305000Y-128270000D01*
%TO.N,Net-(J14-Pad2)*%
X157792500Y-136215000D02*
X157104639Y-136215000D01*
X155479510Y-131984510D02*
X154305000Y-130810000D01*
X157104639Y-136215000D02*
X155479510Y-134589871D01*
X155479510Y-134589871D02*
X155479510Y-131984510D01*
X154305000Y-130810000D02*
X154305000Y-130734241D01*
X150866364Y-126365000D02*
X152437880Y-127936516D01*
X154305000Y-130734241D02*
X152437880Y-128867120D01*
X152437880Y-127936516D02*
X152437880Y-128867120D01*
%TO.N,Net-(J14-Pad3)*%
X157792500Y-136865000D02*
X157104639Y-136865000D01*
X150863266Y-129835773D02*
X150863266Y-128905000D01*
X154305000Y-133350000D02*
X154305000Y-133277507D01*
X157104639Y-136865000D02*
X154305000Y-134065361D01*
X154305000Y-134065361D02*
X154305000Y-133350000D01*
X154305000Y-133277507D02*
X150863266Y-129835773D01*
%TO.N,Net-(J14-Pad4)*%
X150860000Y-132372507D02*
X150860000Y-131445000D01*
X154305000Y-135890000D02*
X154305000Y-135817507D01*
X155930000Y-137515000D02*
X154305000Y-135890000D01*
X154305000Y-135817507D02*
X150860000Y-132372507D01*
X157792500Y-137515000D02*
X155930000Y-137515000D01*
%TO.N,Net-(J14-Pad5)*%
X154305000Y-138430000D02*
X150860000Y-134985000D01*
X154570000Y-138165000D02*
X154305000Y-138430000D01*
X157792500Y-138165000D02*
X154570000Y-138165000D01*
X150860000Y-134985000D02*
X150860000Y-133985000D01*
%TO.N,Net-(J15-Pad1)*%
X163517500Y-138165000D02*
X166745000Y-138165000D01*
X166745000Y-138165000D02*
X167005000Y-138425000D01*
%TO.N,Net-(J15-Pad2)*%
X165375000Y-137515000D02*
X167005000Y-135885000D01*
X163517500Y-137515000D02*
X165375000Y-137515000D01*
%TO.N,Net-(J15-Pad3)*%
X164205361Y-136865000D02*
X167005000Y-134065361D01*
X167005000Y-134065361D02*
X167005000Y-133345000D01*
X163517500Y-136865000D02*
X164205361Y-136865000D01*
%TO.N,Net-(J15-Pad4)*%
X164205361Y-136215000D02*
X165830489Y-134589872D01*
X163517500Y-136215000D02*
X164205361Y-136215000D01*
X165830489Y-134589872D02*
X165830489Y-132266184D01*
X165830489Y-132266184D02*
X167005000Y-131091673D01*
X167005000Y-131091673D02*
X167005000Y-130805000D01*
%TO.N,Net-(J15-Pad5)*%
X163517500Y-135565000D02*
X164205361Y-135565000D01*
X165380969Y-134389392D02*
X165380969Y-129820969D01*
X164205361Y-135565000D02*
X165380969Y-134389392D01*
X166015969Y-129185969D02*
X166084031Y-129185969D01*
X165380969Y-129820969D02*
X166015969Y-129185969D01*
X166084031Y-129185969D02*
X167005000Y-128265000D01*
%TO.N,Net-(JP2-Pad1)*%
X183515000Y-48386072D02*
X183515000Y-46990000D01*
X185495000Y-50165000D02*
X185293928Y-50165000D01*
X185293928Y-50165000D02*
X183515000Y-48386072D01*
%TO.N,Net-(JP4-Pad2)*%
X178995000Y-51435000D02*
X177800000Y-51435000D01*
X180340000Y-50800000D02*
X179630000Y-50800000D01*
X175990000Y-49625000D02*
X175895000Y-49625000D01*
X179630000Y-50800000D02*
X178995000Y-51435000D01*
X177800000Y-51435000D02*
X175990000Y-49625000D01*
%TO.N,Net-(JP5-Pad1)*%
X185570000Y-64770000D02*
X184150000Y-64770000D01*
%TO.N,Net-(JP7-Pad2)*%
X179070000Y-66040000D02*
X180340000Y-66040000D01*
X175895000Y-65405000D02*
X175895000Y-64230000D01*
%TO.N,Net-(JP8-Pad1)*%
X185495000Y-79375000D02*
X182880000Y-79375000D01*
%TO.N,Net-(JP10-Pad2)*%
X175895000Y-78740000D02*
X177800000Y-80645000D01*
X178995000Y-80645000D02*
X180340000Y-80645000D01*
X177800000Y-80645000D02*
X178995000Y-80645000D01*
X180340000Y-80645000D02*
X181610000Y-79375000D01*
%TO.N,Net-(JP11-Pad1)*%
X185495000Y-93980000D02*
X184150000Y-93980000D01*
%TO.N,Net-(JP13-Pad2)*%
X180340000Y-96393928D02*
X180340000Y-96520000D01*
X179196072Y-95250000D02*
X180340000Y-96393928D01*
X177435000Y-95250000D02*
X175895000Y-93710000D01*
X178995000Y-95250000D02*
X177435000Y-95250000D01*
X178995000Y-95250000D02*
X179196072Y-95250000D01*
%TO.N,Net-(JP14-Pad1)*%
X185495000Y-108585000D02*
X184785000Y-108585000D01*
X184785000Y-108585000D02*
X184150000Y-109220000D01*
%TO.N,Net-(JP16-Pad2)*%
X178995000Y-109855000D02*
X179196072Y-109855000D01*
X180340000Y-108711072D02*
X180340000Y-108587760D01*
X177070000Y-109855000D02*
X178995000Y-109855000D01*
X175895000Y-108680000D02*
X177070000Y-109855000D01*
X179196072Y-109855000D02*
X180340000Y-108711072D01*
%TO.N,Net-(JP17-Pad1)*%
X184785000Y-122555000D02*
X184150000Y-123190000D01*
X185495000Y-122555000D02*
X184785000Y-122555000D01*
%TO.N,Net-(JP19-Pad2)*%
X179196072Y-123825000D02*
X180975000Y-122046072D01*
X180975000Y-122046072D02*
X180975000Y-121920000D01*
X175895000Y-122920000D02*
X176800000Y-123825000D01*
X178995000Y-123825000D02*
X179196072Y-123825000D01*
X176800000Y-123825000D02*
X178995000Y-123825000D01*
%TO.N,Net-(JP21-Pad1)*%
X188595000Y-137160000D02*
X189230000Y-136525000D01*
X189230000Y-136525000D02*
X190575000Y-136525000D01*
%TO.N,Net-(JP22-Pad1)*%
X193310000Y-135255000D02*
X193310000Y-132715000D01*
X190575000Y-135255000D02*
X193310000Y-135255000D01*
X190575000Y-135255000D02*
X190373928Y-135255000D01*
X190373928Y-135255000D02*
X189230000Y-134111072D01*
X189230000Y-134111072D02*
X189230000Y-133350000D01*
D65*
%TO.N,Net-(JP23-Pad2)*%
X192422500Y-138430000D02*
X192405000Y-138430000D01*
X193372500Y-137480000D02*
X192422500Y-138430000D01*
%TO.N,Net-(JP23-Pad1)*%
X190575000Y-137795000D02*
X189865000Y-137795000D01*
X189865000Y-137795000D02*
X189230000Y-138430000D01*
%TO.N,Net-(Q1-Pad1)*%
X188310000Y-51435000D02*
X188625000Y-51120000D01*
X185495000Y-51435000D02*
X188310000Y-51435000D01*
%TO.N,Net-(Q2-Pad1)*%
X185570000Y-66040000D02*
X187342500Y-66040000D01*
X187342500Y-66040000D02*
X188292500Y-65090000D01*
%TO.N,Net-(Q3-Pad1)*%
X185495000Y-80645000D02*
X187977500Y-80645000D01*
X187977500Y-80645000D02*
X188292500Y-80330000D01*
%TO.N,Net-(Q4-Pad1)*%
X185495000Y-95250000D02*
X188379686Y-95250000D01*
X188379686Y-95250000D02*
X188774667Y-94855019D01*
%TO.N,Net-(Q5-Pad1)*%
X185495000Y-109855000D02*
X187977500Y-109855000D01*
X187977500Y-109855000D02*
X188673500Y-109159000D01*
%TO.N,Net-(Q6-Pad1)*%
X188612500Y-123825000D02*
X188927500Y-123510000D01*
X185495000Y-123825000D02*
X188612500Y-123825000D01*
D64*
%TO.N,Net-(R2-Pad1)*%
X188595000Y-48895000D02*
X185495000Y-48895000D01*
X188595000Y-46355000D02*
X188595000Y-48895000D01*
%TO.N,Net-(R7-Pad1)*%
X188595000Y-62865000D02*
X188595000Y-60325000D01*
X185570000Y-63500000D02*
X187960000Y-63500000D01*
X187960000Y-63500000D02*
X188595000Y-62865000D01*
%TO.N,Net-(R12-Pad1)*%
X188500000Y-78105000D02*
X185495000Y-78105000D01*
X188500000Y-78105000D02*
X188500000Y-75565000D01*
%TO.N,Net-(R17-Pad1)*%
X185495000Y-92710000D02*
X188595000Y-92710000D01*
X188595000Y-92710000D02*
X188595000Y-90170000D01*
%TO.N,Net-(R22-Pad1)*%
X188500000Y-107315000D02*
X185495000Y-107315000D01*
X188500000Y-104775000D02*
X188500000Y-107315000D01*
%TO.N,Net-(R27-Pad1)*%
X188595000Y-118745000D02*
X188595000Y-121285000D01*
X185495000Y-121285000D02*
X188595000Y-121285000D01*
%TO.N,/BridgeDriver0/D_OUT*%
X161090511Y-68239630D02*
X161090511Y-96084489D01*
X161344511Y-53857996D02*
X161344511Y-67858630D01*
X179196072Y-47625000D02*
X180119520Y-46701552D01*
X180119520Y-46701552D02*
X180119520Y-46008448D01*
X176426036Y-45720000D02*
X176236525Y-45909511D01*
X161217511Y-67985630D02*
X161217511Y-68112630D01*
X161217511Y-68112630D02*
X161090511Y-68239630D01*
X161090511Y-96084489D02*
X160655000Y-96520000D01*
X171067004Y-45909511D02*
X170967973Y-45810480D01*
X178995000Y-47625000D02*
X179196072Y-47625000D01*
X158945500Y-101287500D02*
X159131000Y-101473000D01*
X180119520Y-46008448D02*
X179831072Y-45720000D01*
X170967973Y-45810480D02*
X169392027Y-45810480D01*
X161344511Y-67858630D02*
X161217511Y-67985630D01*
X159258000Y-101473000D02*
X159131000Y-101473000D01*
X163195000Y-105410000D02*
X159258000Y-101473000D01*
X169392027Y-45810480D02*
X161344511Y-53857996D01*
X179831072Y-45720000D02*
X176426036Y-45720000D01*
X176236525Y-45909511D02*
X171067004Y-45909511D01*
X163195000Y-106710000D02*
X163195000Y-105410000D01*
X156595000Y-101287500D02*
X158945500Y-101287500D01*
%TO.N,/BridgeDriver1/D_OUT*%
X160655000Y-106680000D02*
X158115000Y-104140000D01*
X155295000Y-101975361D02*
X156824639Y-103505000D01*
X179070000Y-62230000D02*
X179271072Y-62230000D01*
X161794022Y-68013485D02*
X161794022Y-68171823D01*
X179271072Y-62230000D02*
X180194520Y-61306552D01*
X161794022Y-68171823D02*
X161544000Y-68421845D01*
X179895592Y-60314520D02*
X174614520Y-60314520D01*
X156824639Y-103505000D02*
X158115000Y-103505000D01*
X174614520Y-60314520D02*
X173990000Y-59690000D01*
X161544000Y-68421845D02*
X161544000Y-101219000D01*
X158115000Y-104140000D02*
X158115000Y-103505000D01*
X180194520Y-60613448D02*
X179895592Y-60314520D01*
X180194520Y-61306552D02*
X180194520Y-60613448D01*
X170117507Y-59690000D02*
X161794022Y-68013485D01*
X170680020Y-59690000D02*
X170117507Y-59690000D01*
X155295000Y-101287500D02*
X155295000Y-101975361D01*
%TO.N,/BridgeDriver2/D_OUT*%
X158115000Y-105410000D02*
X156845000Y-104140000D01*
X170815000Y-80010000D02*
X162595754Y-88229246D01*
X154645000Y-101978916D02*
X156806084Y-104140000D01*
X162595754Y-101087308D02*
X161675437Y-102007625D01*
X158115000Y-106680000D02*
X158115000Y-105410000D01*
X156806084Y-104140000D02*
X156845000Y-104140000D01*
X162595754Y-88229246D02*
X162595754Y-101087308D01*
X154645000Y-101287500D02*
X154645000Y-101978916D01*
X178995000Y-76835000D02*
X177165000Y-76835000D01*
%TO.N,/BridgeDriver3/D_OUT*%
X165735000Y-100330000D02*
X162941000Y-103124000D01*
X177448448Y-92785480D02*
X173533520Y-92785480D01*
X162941000Y-103124000D02*
X162941000Y-103251000D01*
X173533520Y-92785480D02*
X166878000Y-99441000D01*
X178995000Y-91440000D02*
X178793928Y-91440000D01*
X178793928Y-91440000D02*
X177448448Y-92785480D01*
%TO.N,/BridgeDriver4/D_OUT*%
X170307000Y-109601000D02*
X170434000Y-109728000D01*
X164876641Y-107919359D02*
X166558282Y-109601000D01*
X166558282Y-109601000D02*
X170307000Y-109601000D01*
X176582973Y-107604520D02*
X174958944Y-107604520D01*
X174958944Y-107604520D02*
X174644105Y-107919359D01*
X178142493Y-106045000D02*
X176582973Y-107604520D01*
X178995000Y-106045000D02*
X178142493Y-106045000D01*
%TO.N,/BridgeDriver5/D_OUT*%
X162560000Y-116840000D02*
X161924296Y-116840000D01*
X161924296Y-116840000D02*
X158103796Y-113019500D01*
X164083522Y-118363522D02*
X163830000Y-118110000D01*
X158103796Y-113019500D02*
X157287215Y-113019500D01*
X170871015Y-118363522D02*
X164083522Y-118363522D01*
X178995000Y-120015000D02*
X178975480Y-119995480D01*
X172502973Y-119995480D02*
X170871015Y-118363522D01*
X178975480Y-119995480D02*
X172502973Y-119995480D01*
%TO.N,/LoadCell/D_OUT*%
X183873928Y-133985000D02*
X184075000Y-133985000D01*
X149420511Y-103569310D02*
X149420511Y-104571989D01*
X161290000Y-118109998D02*
X167640000Y-124460000D01*
X149420511Y-104571989D02*
X149217500Y-104775000D01*
X173398542Y-127043542D02*
X175251035Y-127043542D01*
X175251035Y-127043542D02*
X180632973Y-132425480D01*
X170492037Y-126910499D02*
X173265499Y-126910499D01*
X173265499Y-126910499D02*
X173398542Y-127043542D01*
X156199500Y-113019500D02*
X156199412Y-113019500D01*
X180632973Y-132425480D02*
X182314408Y-132425480D01*
X147955000Y-106665000D02*
X149217500Y-105402500D01*
X182314408Y-132425480D02*
X183873928Y-133985000D01*
X149982322Y-103007499D02*
X149420511Y-103569310D01*
X152045000Y-102087117D02*
X151124618Y-103007499D01*
X160020000Y-116840000D02*
X156199500Y-113019500D01*
X149217500Y-105402500D02*
X149217500Y-104775000D01*
X152045000Y-101287500D02*
X152045000Y-102087117D01*
X151124618Y-103007499D02*
X149982322Y-103007499D01*
X170402536Y-127000000D02*
X170492037Y-126910499D01*
%TO.N,/MCU/DATA_7*%
X151395000Y-101975361D02*
X151395000Y-101287500D01*
X148219499Y-102865322D02*
X148735301Y-102349520D01*
X151020841Y-102349520D02*
X151395000Y-101975361D01*
X145678179Y-106665000D02*
X148219499Y-104123680D01*
X148735301Y-102349520D02*
X151020841Y-102349520D01*
X148219499Y-104123680D02*
X148219499Y-102865322D01*
X145415000Y-106665000D02*
X145678179Y-106665000D01*
%TO.N,/MCU/SCK*%
X155414510Y-124263450D02*
X150480000Y-119328940D01*
X155414510Y-124409517D02*
X155414510Y-124263450D01*
X159164520Y-131188448D02*
X159164520Y-128159527D01*
X132090499Y-117728081D02*
X132090499Y-113040499D01*
X132090499Y-113040499D02*
X132080000Y-113030000D01*
X150480000Y-118745000D02*
X147315499Y-121909501D01*
X132704501Y-118099501D02*
X132461917Y-118099501D01*
X132461917Y-118099501D02*
X132090499Y-117728081D01*
X158536789Y-134265000D02*
X159354040Y-133447749D01*
X159164520Y-128159527D02*
X155414510Y-124409517D01*
X134181550Y-119576550D02*
X132704501Y-118099501D01*
X150480000Y-119328940D02*
X150480000Y-118745000D01*
X159354040Y-131377968D02*
X159164520Y-131188448D01*
X157792500Y-134265000D02*
X158536789Y-134265000D01*
X134181550Y-120810491D02*
X134181550Y-119576550D01*
X135280561Y-121909501D02*
X134181550Y-120810491D01*
X147315499Y-121909501D02*
X135280561Y-121909501D01*
X159354040Y-133447749D02*
X159354040Y-131377968D01*
%TO.N,/MCU/LIMIT_SWITCH*%
X159803551Y-133633942D02*
X159803551Y-129547212D01*
X128246775Y-114277479D02*
X131640989Y-117671693D01*
X155864021Y-124223324D02*
X155864020Y-124077256D01*
X157792500Y-134915000D02*
X158522493Y-134915000D01*
X155560000Y-118745000D02*
X154305000Y-117490000D01*
X133516592Y-119789879D02*
X133516592Y-120004500D01*
X131640989Y-117914276D02*
X133516592Y-119789879D01*
X155864020Y-124077256D02*
X155560000Y-123773236D01*
X159614031Y-129357692D02*
X159614031Y-127973334D01*
X109220000Y-113030000D02*
X110467479Y-114277479D01*
X154305000Y-117490000D02*
X154305000Y-117475000D01*
X159803551Y-129547212D02*
X159614031Y-129357692D01*
X159614031Y-127973334D02*
X155864021Y-124223324D01*
X131640989Y-117671693D02*
X131640989Y-117914276D01*
X158522493Y-134915000D02*
X159803551Y-133633942D01*
X110467479Y-114277479D02*
X128246775Y-114277479D01*
X155560000Y-123773236D02*
X155560000Y-118745000D01*
%TO.N,Net-(D11-Pad1)*%
X127635000Y-131722992D02*
X128124511Y-131233481D01*
X128124511Y-131233481D02*
X128124511Y-124949511D01*
X128124511Y-124949511D02*
X127635000Y-124460000D01*
D67*
%TO.N,/SERVO_GND*%
X102997000Y-137721742D02*
X102997000Y-111760000D01*
X213360000Y-130175000D02*
X215354511Y-132169511D01*
X212852000Y-140716000D02*
X105991258Y-140716000D01*
X102997000Y-111760000D02*
X104583480Y-110173520D01*
X215354511Y-132169511D02*
X215354511Y-138213489D01*
X105991258Y-140716000D02*
X102997000Y-137721742D01*
X215354511Y-138213489D02*
X212852000Y-140716000D01*
D64*
%TO.N,Net-(D7-Pad2)*%
X148050000Y-78105000D02*
X150105000Y-78105000D01*
%TO.N,Net-(D8-Pad2)*%
X148145000Y-70485000D02*
X150105000Y-70485000D01*
%TO.N,/MCU/TX*%
X147935480Y-129520480D02*
X142240000Y-123825000D01*
X149860000Y-137160000D02*
X147935480Y-135235480D01*
X147935480Y-135235480D02*
X147935480Y-129520480D01*
%TO.N,/MCU/RX*%
X147320000Y-137160000D02*
X147320000Y-130810000D01*
X140970000Y-124460000D02*
X140970000Y-123825000D01*
X139700000Y-119380000D02*
X139700000Y-113030000D01*
X147320000Y-130810000D02*
X140970000Y-124460000D01*
X140970000Y-120650000D02*
X139700000Y-119380000D01*
%TD*%
M02*
